<svg width="91" height="90" viewBox="0 0 91 90" fill="none" xmlns="http://www.w3.org/2000/svg">
<mask id="mask0_114_638" style="mask-type:alpha" maskUnits="userSpaceOnUse" x="0" y="0" width="91" height="90">
<rect x="3" y="2.5" width="85" height="85" fill="#D9D9D9" stroke="#8C52FF" stroke-width="5"/>
</mask>
<g mask="url(#mask0_114_638)">
<path d="M36.664 45.2716L36.6925 45.2401L36.72 45.2076C37.9149 43.7955 39.2916 42.6359 40.8571 41.7183C42.2816 40.8832 43.8131 40.4678 45.499 40.4678C47.2133 40.4678 48.765 40.8663 50.1976 41.6567C51.7359 42.5054 53.0941 43.6209 54.2781 45.0201L54.2914 45.0359L54.3051 45.0515C55.9487 46.93 57.402 48.9554 58.6656 51.1301C60.0981 53.5953 61.7801 55.8931 63.7091 58.0216L63.7158 58.029L63.7227 58.0365C65.9068 60.4078 68.1066 62.8104 70.3221 65.2444C72.1285 67.2288 72.999 69.4749 72.999 72.0928C72.999 74.4342 72.2598 76.3886 70.7667 78.0776C69.3223 79.7113 67.6387 80.4678 65.5615 80.4678C62.3262 80.4678 59.1224 80.1982 55.9488 79.6593C52.4974 79.0732 49.0136 78.7803 45.499 78.7803C41.9844 78.7803 38.5006 79.0732 35.0492 79.6593C31.8756 80.1982 28.6719 80.4678 25.4365 80.4678C23.3594 80.4678 21.6758 79.7113 20.2314 78.0776C18.7382 76.3886 17.999 74.4342 17.999 72.0928C17.999 69.4749 18.8696 67.2288 20.6759 65.2444C22.8893 62.8128 25.0871 60.4124 27.2691 58.0433C29.2087 55.9688 30.8837 53.7074 32.291 51.2614C33.5121 49.1389 34.9684 47.1426 36.664 45.2716ZM17.374 42.9678C15.3942 42.9678 13.8167 42.3124 12.4855 40.9813C11.1544 39.6501 10.499 38.0726 10.499 36.0928C10.499 34.1129 11.1544 32.5354 12.4855 31.2043C13.8167 29.8731 15.3942 29.2178 17.374 29.2178C19.3539 29.2178 20.9313 29.8731 22.2625 31.2043C23.5937 32.5354 24.249 34.1129 24.249 36.0928C24.249 38.0726 23.5937 39.6501 22.2625 40.9813C20.9314 42.3124 19.3539 42.9678 17.374 42.9678ZM34.249 27.9678C32.2692 27.9678 30.6917 27.3124 29.3605 25.9813C28.0294 24.6501 27.374 23.0726 27.374 21.0928C27.374 19.1129 28.0294 17.5354 29.3605 16.2043C30.6917 14.8731 32.2692 14.2178 34.249 14.2178C36.2289 14.2178 37.8064 14.8731 39.1375 16.2043C40.4687 17.5354 41.124 19.1129 41.124 21.0928C41.124 23.0726 40.4687 24.6501 39.1375 25.9813C37.8064 27.3124 36.2289 27.9678 34.249 27.9678ZM56.749 27.9678C54.7692 27.9678 53.1917 27.3124 51.8605 25.9813C50.5294 24.6501 49.874 23.0726 49.874 21.0928C49.874 19.1129 50.5294 17.5355 51.8605 16.2043C53.1917 14.8731 54.7692 14.2178 56.749 14.2178C58.7289 14.2178 60.3064 14.8731 61.6375 16.2043C62.9687 17.5354 63.624 19.1129 63.624 21.0928C63.624 23.0726 62.9687 24.6501 61.6375 25.9813C60.3064 27.3124 58.7289 27.9678 56.749 27.9678ZM73.624 42.9678C71.6442 42.9678 70.0667 42.3124 68.7355 40.9813C67.4044 39.6501 66.749 38.0726 66.749 36.0928C66.749 34.1129 67.4044 32.5354 68.7355 31.2043C70.0667 29.8731 71.6442 29.2178 73.624 29.2178C75.6039 29.2178 77.1814 29.8731 78.5125 31.2043C79.8437 32.5354 80.499 34.1129 80.499 36.0928C80.499 38.0726 79.8437 39.6501 78.5125 40.9813C77.1814 42.3124 75.6039 42.9678 73.624 42.9678Z" stroke="#8C52FF" stroke-width="5"/>
</g>
</svg>
