<svg width="91" height="90" viewBox="0 0 91 90" fill="none" xmlns="http://www.w3.org/2000/svg">
<mask id="mask0_114_632" style="mask-type:alpha" maskUnits="userSpaceOnUse" x="0" y="0" width="91" height="90">
<rect x="0.5" width="90" height="90" fill="#8C52FF"/>
</mask>
<g mask="url(#mask0_114_632)">
<path d="M18.6885 82.499V45.4678H26.1885V74.999H52.4385V56.9053L62.2822 47.0615C64.0947 45.249 65.501 43.2178 66.501 40.9678C67.501 38.7178 68.001 36.3115 68.001 33.749C68.001 31.249 67.4854 28.874 66.4541 26.624C65.4229 24.374 64.0322 22.3428 62.2822 20.5303L59.9385 18.0928L48.0322 29.999H33.0322L29.001 34.0303L23.6572 28.7803L29.9385 22.499H44.9385L59.9385 7.49902L67.626 15.1865C70.126 17.6865 72.0635 20.5146 73.4385 23.6709C74.8135 26.8271 75.501 30.1865 75.501 33.749C75.501 37.3115 74.8135 40.6709 73.4385 43.8271C72.0635 46.9834 70.126 49.8115 67.626 52.3115L59.9385 59.999V82.499H18.6885ZM37.1572 64.9678L17.6572 45.4678C16.9697 44.7803 16.4385 43.9678 16.0635 43.0303C15.6885 42.0928 15.501 41.124 15.501 40.124C15.501 39.124 15.6885 38.1709 16.0635 37.2646C16.4385 36.3584 16.9697 35.5615 17.6572 34.874L25.5322 26.9053L37.1572 38.4365C38.9072 40.1865 40.2666 42.2021 41.2354 44.4834C42.2041 46.7646 42.6885 49.1553 42.6885 51.6553C42.6885 54.1553 42.2197 56.5459 41.2822 58.8271C40.3447 61.1084 38.9697 63.1553 37.1572 64.9678Z" fill="#8C52FF"/>
</g>
</svg>
