<svg width="91" height="90" viewBox="0 0 91 90" fill="none" xmlns="http://www.w3.org/2000/svg">
<mask id="mask0_114_635" style="mask-type:alpha" maskUnits="userSpaceOnUse" x="0" y="0" width="91" height="90">
<rect x="0.5" width="90" height="90" fill="#D9D9D9"/>
</mask>
<g mask="url(#mask0_114_635)">
<path d="M36.124 82.499C31.4365 82.499 27.4521 80.8584 24.1709 77.5772C20.8896 74.2959 19.249 70.3115 19.249 65.624C19.249 63.4365 19.7803 61.4209 20.8428 59.5772C21.9053 57.7334 23.874 55.374 26.749 52.499C27.124 52.124 27.4834 51.7334 27.8271 51.3272C28.1709 50.9209 28.624 50.374 29.1865 49.6865C25.999 44.8115 23.5459 39.7022 21.8271 34.3584C20.1084 29.0147 19.249 23.8115 19.249 18.749C19.249 15.124 19.9053 12.3428 21.2178 10.4053C22.5303 8.46777 24.374 7.49902 26.749 7.49902C30.3115 7.49902 33.499 9.21777 36.3115 12.6553C39.124 16.0928 41.249 19.249 42.6865 22.124C43.249 23.374 43.7646 24.6397 44.2334 25.9209C44.7021 27.2022 45.124 28.5303 45.499 29.9053C45.874 28.5303 46.2959 27.2022 46.7646 25.9209C47.2334 24.6397 47.7803 23.374 48.4053 22.124C49.7803 19.249 51.874 16.0928 54.6865 12.6553C57.499 9.21777 60.6865 7.49902 64.249 7.49902C66.624 7.49902 68.4678 8.46777 69.7803 10.4053C71.0928 12.3428 71.749 15.124 71.749 18.749C71.749 23.8115 70.8896 29.0147 69.1709 34.3584C67.4521 39.7022 64.999 44.8115 61.8115 49.6865C62.374 50.374 62.8271 50.9209 63.1709 51.3272C63.5146 51.7334 63.874 52.124 64.249 52.499C67.124 55.374 69.0928 57.7334 70.1553 59.5772C71.2178 61.4209 71.749 63.4365 71.749 65.624C71.749 70.3115 70.1084 74.2959 66.8271 77.5772C63.5459 80.8584 59.5615 82.499 54.874 82.499C52.0615 82.499 49.7959 82.1865 48.0771 81.5615L45.499 80.624L42.9209 81.5615C41.2021 82.1865 38.9365 82.499 36.124 82.499ZM36.124 74.999C37.5615 74.999 38.999 74.8272 40.4365 74.4834C41.874 74.1397 43.2178 73.624 44.4678 72.9365C43.7803 72.624 43.1553 72.0928 42.5928 71.3428C42.0303 70.5928 41.749 69.9365 41.749 69.374C41.749 68.874 42.1084 68.4365 42.8271 68.0615C43.5459 67.6865 44.4365 67.499 45.499 67.499C46.5615 67.499 47.4521 67.6865 48.1709 68.0615C48.8896 68.4365 49.249 68.874 49.249 69.374C49.249 69.9365 48.9678 70.5928 48.4053 71.3428C47.8428 72.0928 47.2178 72.624 46.5303 72.9365C47.7803 73.624 49.124 74.1397 50.5615 74.4834C51.999 74.8272 53.4365 74.999 54.874 74.999C57.499 74.999 59.7178 74.0928 61.5303 72.2803C63.3428 70.4678 64.249 68.249 64.249 65.624C64.249 64.499 63.9365 63.4053 63.3115 62.3428C62.6865 61.2803 61.749 60.2178 60.499 59.1553C59.624 58.4053 58.9053 57.749 58.3428 57.1865C57.7803 56.624 56.874 55.5615 55.624 53.999C53.8115 51.8115 52.3115 50.3897 51.124 49.7334C49.9365 49.0772 48.0615 48.749 45.499 48.749C42.9365 48.749 41.0459 49.0772 39.8271 49.7334C38.6084 50.3897 37.124 51.8115 35.374 53.999C34.124 55.5615 33.2178 56.624 32.6553 57.1865C32.0928 57.749 31.374 58.4053 30.499 59.1553C29.249 60.2178 28.3115 61.2803 27.6865 62.3428C27.0615 63.4053 26.749 64.499 26.749 65.624C26.749 68.249 27.6553 70.4678 29.4678 72.2803C31.2803 74.0928 33.499 74.999 36.124 74.999ZM39.874 62.8115C39.374 62.8115 38.9365 62.5303 38.5615 61.9678C38.1865 61.4053 37.999 60.749 37.999 59.999C37.999 59.249 38.1865 58.5928 38.5615 58.0303C38.9365 57.4678 39.374 57.1865 39.874 57.1865C40.374 57.1865 40.8115 57.4678 41.1865 58.0303C41.5615 58.5928 41.749 59.249 41.749 59.999C41.749 60.749 41.5615 61.4053 41.1865 61.9678C40.8115 62.5303 40.374 62.8115 39.874 62.8115ZM51.124 62.8115C50.624 62.8115 50.1865 62.5303 49.8115 61.9678C49.4365 61.4053 49.249 60.749 49.249 59.999C49.249 59.249 49.4365 58.5928 49.8115 58.0303C50.1865 57.4678 50.624 57.1865 51.124 57.1865C51.624 57.1865 52.0615 57.4678 52.4365 58.0303C52.8115 58.5928 52.999 59.249 52.999 59.999C52.999 60.749 52.8115 61.4053 52.4365 61.9678C52.0615 62.5303 51.624 62.8115 51.124 62.8115ZM34.5303 44.1553C35.2178 43.6553 35.999 43.2178 36.874 42.8428C37.749 42.4678 38.7178 42.124 39.7803 41.8115C39.6553 38.8115 39.2021 35.8272 38.4209 32.8584C37.6396 29.8897 36.6553 27.1865 35.4678 24.749C34.2803 22.249 32.9678 20.1397 31.5303 18.4209C30.0928 16.7022 28.6553 15.5928 27.2178 15.0928C27.0928 15.4678 26.9834 15.9522 26.8896 16.5459C26.7959 17.1397 26.749 17.874 26.749 18.749C26.749 22.999 27.4209 27.3115 28.7646 31.6865C30.1084 36.0615 32.0303 40.2178 34.5303 44.1553ZM56.4678 44.1553C58.9678 40.2178 60.8896 36.0615 62.2334 31.6865C63.5771 27.3115 64.249 22.999 64.249 18.749C64.249 17.874 64.2021 17.1397 64.1084 16.5459C64.0146 15.9522 63.9053 15.4678 63.7803 15.0928C62.3428 15.5928 60.9053 16.7022 59.4678 18.4209C58.0303 20.1397 56.7178 22.249 55.5303 24.749C54.4053 27.1865 53.4521 29.8897 52.6709 32.8584C51.8896 35.8272 51.4053 38.8115 51.2178 41.8115C52.1553 42.0615 53.0615 42.3897 53.9365 42.7959C54.8115 43.2022 55.6553 43.6553 56.4678 44.1553Z" fill="#1C1B1F"/>
</g>
</svg>
