<svg width="25" height="26" viewBox="0 0 25 26" fill="none" xmlns="http://www.w3.org/2000/svg">
<path d="M12.5004 0.5C9.53218 0.499932 6.66078 1.58284 4.40005 3.55495C2.13933 5.52705 0.636819 8.25963 0.161405 11.2637C-0.314009 14.2678 0.268697 17.3473 1.80525 19.9511C3.3418 22.555 5.73192 24.5132 8.54788 25.4755C9.17289 25.5883 9.40664 25.2038 9.40664 24.8667C9.40664 24.563 9.39164 23.553 9.39164 22.4803C6.25036 23.0724 5.43785 21.6946 5.18785 20.9743C4.91053 20.273 4.47077 19.6514 3.90659 19.1634C3.46909 18.9237 2.84408 18.3303 3.89034 18.3149C4.29019 18.3593 4.67372 18.5019 5.00839 18.7305C5.34307 18.9592 5.61902 19.2673 5.81286 19.6286C5.98377 19.9435 6.21361 20.2207 6.48919 20.4443C6.76478 20.6679 7.0807 20.8336 7.41885 20.9319C7.757 21.0301 8.11073 21.0589 8.45977 21.0167C8.80881 20.9745 9.14629 20.8621 9.45289 20.686C9.50703 20.0341 9.79047 19.4246 10.2504 18.9711C7.46912 18.6507 4.56285 17.5459 4.56285 12.6436C4.54514 11.3696 5.00357 10.137 5.84411 9.19855C5.46199 8.09148 5.5067 6.87657 5.96911 5.80218C5.96911 5.80218 7.01537 5.46639 9.40664 7.11587C11.452 6.53907 13.6113 6.53907 15.6567 7.11587C18.0467 5.44973 19.0942 5.80218 19.0942 5.80218C19.5568 6.87654 19.6015 8.0915 19.2192 9.19855C20.0623 10.1354 20.5211 11.3691 20.5005 12.6436C20.5005 17.5613 17.578 18.6507 14.7967 18.9711C15.095 19.2811 15.3248 19.6533 15.4704 20.0625C15.6159 20.4716 15.674 20.908 15.6404 21.3422C15.6404 23.057 15.6254 24.4348 15.6254 24.8667C15.6254 25.2038 15.8592 25.6037 16.4842 25.4755C19.295 24.5052 21.678 22.5423 23.2078 19.9372C24.7376 17.3321 25.3147 14.2543 24.836 11.2533C24.3573 8.25226 22.854 5.52333 20.5945 3.55363C18.335 1.58393 15.4662 0.501653 12.5004 0.5Z" fill="white"/>
</svg>
