<svg width="25" height="25" viewBox="0 0 25 25" fill="none" xmlns="http://www.w3.org/2000/svg">
<mask id="mask0_34_52" style="mask-type:alpha" maskUnits="userSpaceOnUse" x="0" y="0" width="25" height="25">
<rect x="0.00488281" y="0.5625" width="24" height="24" fill="#D9D9D9"/>
</mask>
<g mask="url(#mask0_34_52)">
<path d="M5.85488 17.6625C6.70488 17.0125 7.65488 16.5 8.70488 16.125C9.75488 15.75 10.8549 15.5625 12.0049 15.5625C13.1549 15.5625 14.2549 15.75 15.3049 16.125C16.3549 16.5 17.3049 17.0125 18.1549 17.6625C18.7382 16.9792 19.1924 16.2042 19.5174 15.3375C19.8424 14.4708 20.0049 13.5458 20.0049 12.5625C20.0049 10.3458 19.2257 8.45833 17.6674 6.9C16.109 5.34167 14.2215 4.5625 12.0049 4.5625C9.78822 4.5625 7.90072 5.34167 6.34238 6.9C4.78405 8.45833 4.00488 10.3458 4.00488 12.5625C4.00488 13.5458 4.16738 14.4708 4.49238 15.3375C4.81738 16.2042 5.27155 16.9792 5.85488 17.6625ZM12.0049 13.5625C11.0215 13.5625 10.1924 13.225 9.51738 12.55C8.84238 11.875 8.50488 11.0458 8.50488 10.0625C8.50488 9.07917 8.84238 8.25 9.51738 7.575C10.1924 6.9 11.0215 6.5625 12.0049 6.5625C12.9882 6.5625 13.8174 6.9 14.4924 7.575C15.1674 8.25 15.5049 9.07917 15.5049 10.0625C15.5049 11.0458 15.1674 11.875 14.4924 12.55C13.8174 13.225 12.9882 13.5625 12.0049 13.5625ZM12.0049 22.5625C10.6215 22.5625 9.32155 22.3 8.10488 21.775C6.88822 21.25 5.82988 20.5375 4.92988 19.6375C4.02988 18.7375 3.31738 17.6792 2.79238 16.4625C2.26738 15.2458 2.00488 13.9458 2.00488 12.5625C2.00488 11.1792 2.26738 9.87917 2.79238 8.6625C3.31738 7.44583 4.02988 6.3875 4.92988 5.4875C5.82988 4.5875 6.88822 3.875 8.10488 3.35C9.32155 2.825 10.6215 2.5625 12.0049 2.5625C13.3882 2.5625 14.6882 2.825 15.9049 3.35C17.1215 3.875 18.1799 4.5875 19.0799 5.4875C19.9799 6.3875 20.6924 7.44583 21.2174 8.6625C21.7424 9.87917 22.0049 11.1792 22.0049 12.5625C22.0049 13.9458 21.7424 15.2458 21.2174 16.4625C20.6924 17.6792 19.9799 18.7375 19.0799 19.6375C18.1799 20.5375 17.1215 21.25 15.9049 21.775C14.6882 22.3 13.3882 22.5625 12.0049 22.5625ZM12.0049 20.5625C12.8882 20.5625 13.7215 20.4333 14.5049 20.175C15.2882 19.9167 16.0049 19.5458 16.6549 19.0625C16.0049 18.5792 15.2882 18.2083 14.5049 17.95C13.7215 17.6917 12.8882 17.5625 12.0049 17.5625C11.1215 17.5625 10.2882 17.6917 9.50488 17.95C8.72155 18.2083 8.00488 18.5792 7.35488 19.0625C8.00488 19.5458 8.72155 19.9167 9.50488 20.175C10.2882 20.4333 11.1215 20.5625 12.0049 20.5625ZM12.0049 11.5625C12.4382 11.5625 12.7965 11.4208 13.0799 11.1375C13.3632 10.8542 13.5049 10.4958 13.5049 10.0625C13.5049 9.62917 13.3632 9.27083 13.0799 8.9875C12.7965 8.70417 12.4382 8.5625 12.0049 8.5625C11.5715 8.5625 11.2132 8.70417 10.9299 8.9875C10.6465 9.27083 10.5049 9.62917 10.5049 10.0625C10.5049 10.4958 10.6465 10.8542 10.9299 11.1375C11.2132 11.4208 11.5715 11.5625 12.0049 11.5625Z" fill="white"/>
</g>
</svg>
