<svg width="25" height="26" viewBox="0 0 25 26" fill="none" xmlns="http://www.w3.org/2000/svg">
<path d="M25 3.46777C24.0641 3.97702 23.0716 4.31156 22.0553 4.46032C23.1261 3.67162 23.9272 2.43108 24.3095 0.969802C23.3038 1.70592 22.2012 2.2218 21.0533 2.50087C20.2814 1.48505 19.2582 0.811361 18.1429 0.584525C17.0275 0.357689 15.8825 0.590417 14.8858 1.24653C13.8891 1.90264 13.0965 2.94538 12.6314 4.21263C12.1662 5.47988 12.0545 6.90064 12.3136 8.25404C10.2739 8.12853 8.27851 7.47679 6.45695 6.34114C4.63539 5.20549 3.0284 3.61133 1.74034 1.66217C1.28445 2.62524 1.04488 3.72002 1.04616 4.83442C1.04616 7.02165 1.95251 8.95396 3.32736 10.0853C2.51302 10.0537 1.7166 9.78321 1.00446 9.29637V9.3733C1.00443 10.8303 1.41414 12.2424 2.16411 13.3702C2.91409 14.4979 3.95815 15.272 5.11921 15.5609C4.36328 15.8131 3.57056 15.8503 2.80122 15.6695C3.12858 16.9236 3.7667 18.0204 4.62617 18.8062C5.48565 19.5919 6.52345 20.0274 7.59419 20.0515C6.53007 21.0794 5.31162 21.8393 4.00855 22.2876C2.70547 22.7359 1.34332 22.8638 0 22.6641C2.34463 24.5186 5.07396 25.5031 7.86156 25.5C17.2979 25.5 22.4563 15.8867 22.4563 7.5496C22.4563 7.27808 22.4514 7.00355 22.4416 6.73354C23.4454 5.84108 24.3117 4.7342 25 3.46777Z" fill="white"/>
</svg>
