<svg width="25" height="26" viewBox="0 0 25 26" fill="none" xmlns="http://www.w3.org/2000/svg">
<path d="M10.4163 16.1252L15.8226 13.0002L10.4163 9.87516V16.1252ZM22.458 7.96891C22.5934 8.4585 22.6872 9.11475 22.7497 9.94808C22.8226 10.7814 22.8538 11.5002 22.8538 12.1252L22.9163 13.0002C22.9163 15.2814 22.7497 16.9585 22.458 18.0314C22.1976 18.9689 21.5934 19.5731 20.6559 19.8335C20.1663 19.9689 19.2705 20.0627 17.8955 20.1252C16.5413 20.1981 15.3018 20.2293 14.1559 20.2293L12.4997 20.2918C8.13509 20.2918 5.41634 20.1252 4.34342 19.8335C3.40592 19.5731 2.80176 18.9689 2.54134 18.0314C2.40592 17.5418 2.31217 16.8856 2.24967 16.0522C2.17676 15.2189 2.14551 14.5002 2.14551 13.8752L2.08301 13.0002C2.08301 10.7189 2.24967 9.04183 2.54134 7.96891C2.80176 7.03141 3.40592 6.42725 4.34342 6.16683C4.83301 6.03141 5.72884 5.93766 7.10384 5.87516C8.45801 5.80225 9.69759 5.771 10.8434 5.771L12.4997 5.7085C16.8643 5.7085 19.583 5.87516 20.6559 6.16683C21.5934 6.42725 22.1976 7.03141 22.458 7.96891Z" fill="#F8F8F8"/>
</svg>
