<svg width="36" height="35" viewBox="0 0 36 35" fill="none" xmlns="http://www.w3.org/2000/svg">
<mask id="mask0_303_184" style="mask-type:alpha" maskUnits="userSpaceOnUse" x="0" y="0" width="36" height="35">
<rect x="0.5" width="35" height="35" fill="#D9D9D9"/>
</mask>
<g mask="url(#mask0_303_184)">
<path d="M9.03255 24.9368C10.2721 23.9889 11.6576 23.2415 13.1888 22.6947C14.7201 22.1478 16.3242 21.8743 18.0013 21.8743C19.6784 21.8743 21.2826 22.1478 22.8138 22.6947C24.3451 23.2415 25.7305 23.9889 26.9701 24.9368C27.8207 23.9403 28.4831 22.8101 28.957 21.5462C29.431 20.2823 29.668 18.9334 29.668 17.4993C29.668 14.2667 28.5317 11.5141 26.2591 9.24154C23.9865 6.96897 21.2339 5.83268 18.0013 5.83268C14.7687 5.83268 12.0161 6.96897 9.74349 9.24154C7.47092 11.5141 6.33464 14.2667 6.33464 17.4993C6.33464 18.9334 6.57161 20.2823 7.04557 21.5462C7.51953 22.8101 8.18186 23.9403 9.03255 24.9368ZM18.0013 18.9577C16.5673 18.9577 15.3581 18.4655 14.3737 17.4811C13.3893 16.4967 12.8971 15.2875 12.8971 13.8535C12.8971 12.4195 13.3893 11.2103 14.3737 10.2259C15.3581 9.24154 16.5673 8.74935 18.0013 8.74935C19.4353 8.74935 20.6445 9.24154 21.6289 10.2259C22.6133 11.2103 23.1055 12.4195 23.1055 13.8535C23.1055 15.2875 22.6133 16.4967 21.6289 17.4811C20.6445 18.4655 19.4353 18.9577 18.0013 18.9577ZM18.0013 32.0827C15.9839 32.0827 14.0881 31.6999 12.3138 30.9342C10.5395 30.1686 8.99609 29.1296 7.68359 27.8171C6.37109 26.5046 5.33203 24.9612 4.56641 23.1868C3.80078 21.4125 3.41797 19.5167 3.41797 17.4993C3.41797 15.482 3.80078 13.5862 4.56641 11.8118C5.33203 10.0375 6.37109 8.49414 7.68359 7.18164C8.99609 5.86914 10.5395 4.83008 12.3138 4.06445C14.0881 3.29883 15.9839 2.91602 18.0013 2.91602C20.0187 2.91602 21.9145 3.29883 23.6888 4.06445C25.4631 4.83008 27.0065 5.86914 28.319 7.18164C29.6315 8.49414 30.6706 10.0375 31.4362 11.8118C32.2018 13.5862 32.5846 15.482 32.5846 17.4993C32.5846 19.5167 32.2018 21.4125 31.4362 23.1868C30.6706 24.9612 29.6315 26.5046 28.319 27.8171C27.0065 29.1296 25.4631 30.1686 23.6888 30.9342C21.9145 31.6999 20.0187 32.0827 18.0013 32.0827ZM18.0013 29.166C19.2895 29.166 20.5048 28.9776 21.6471 28.6009C22.7895 28.2242 23.8346 27.6834 24.7826 26.9785C23.8346 26.2737 22.7895 25.7329 21.6471 25.3561C20.5048 24.9794 19.2895 24.791 18.0013 24.791C16.7131 24.791 15.4978 24.9794 14.3555 25.3561C13.2131 25.7329 12.168 26.2737 11.2201 26.9785C12.168 27.6834 13.2131 28.2242 14.3555 28.6009C15.4978 28.9776 16.7131 29.166 18.0013 29.166ZM18.0013 16.041C18.6332 16.041 19.1558 15.8344 19.569 15.4212C19.9822 15.008 20.1888 14.4855 20.1888 13.8535C20.1888 13.2216 19.9822 12.699 19.569 12.2858C19.1558 11.8726 18.6332 11.666 18.0013 11.666C17.3694 11.666 16.8468 11.8726 16.4336 12.2858C16.0204 12.699 15.8138 13.2216 15.8138 13.8535C15.8138 14.4855 16.0204 15.008 16.4336 15.4212C16.8468 15.8344 17.3694 16.041 18.0013 16.041Z" fill="#F5F2FF"/>
</g>
</svg>
