<svg width="42" height="42" viewBox="0 0 42 42" fill="none" xmlns="http://www.w3.org/2000/svg">
<mask id="mask0_122_457" style="mask-type:alpha" maskUnits="userSpaceOnUse" x="0" y="0" width="42" height="42">
<rect width="42" height="42" fill="#562BD6"/>
</mask>
<g mask="url(#mask0_122_457)">
<path d="M19.1613 28.9628L29.0488 19.0753L26.5551 16.5815L19.1613 23.9753L15.4426 20.2565L12.9488 22.7503L19.1613 28.9628ZM20.9988 38.5003C18.8113 38.5003 16.7624 38.0847 14.852 37.2534C12.9415 36.4222 11.279 35.2993 9.86445 33.8847C8.44987 32.4701 7.32695 30.8076 6.4957 28.8972C5.66445 26.9868 5.24883 24.9378 5.24883 22.7503C5.24883 20.5628 5.66445 18.5138 6.4957 16.6034C7.32695 14.693 8.44987 13.0305 9.86445 11.6159C11.279 10.2013 12.9415 9.07842 14.852 8.24717C16.7624 7.41592 18.8113 7.00029 20.9988 7.00029C23.1863 7.00029 25.2353 7.41592 27.1457 8.24717C29.0561 9.07842 30.7186 10.2013 32.1332 11.6159C33.5478 13.0305 34.6707 14.693 35.502 16.6034C36.3332 18.5138 36.7488 20.5628 36.7488 22.7503C36.7488 24.9378 36.3332 26.9868 35.502 28.8972C34.6707 30.8076 33.5478 32.4701 32.1332 33.8847C30.7186 35.2993 29.0561 36.4222 27.1457 37.2534C25.2353 38.0847 23.1863 38.5003 20.9988 38.5003ZM9.79883 4.11279L12.2488 6.56279L4.81133 14.0003L2.36133 11.5503L9.79883 4.11279ZM32.1988 4.11279L39.6363 11.5503L37.1863 14.0003L29.7488 6.56279L32.1988 4.11279ZM20.9988 35.0003C24.4113 35.0003 27.3061 33.8118 29.6832 31.4347C32.0603 29.0576 33.2488 26.1628 33.2488 22.7503C33.2488 19.3378 32.0603 16.443 29.6832 14.0659C27.3061 11.6888 24.4113 10.5003 20.9988 10.5003C17.5863 10.5003 14.6915 11.6888 12.3145 14.0659C9.93737 16.443 8.74883 19.3378 8.74883 22.7503C8.74883 26.1628 9.93737 29.0576 12.3145 31.4347C14.6915 33.8118 17.5863 35.0003 20.9988 35.0003Z" fill="#562BD6"/>
</g>
</svg>
