<svg width="164" height="164" viewBox="0 0 164 164" fill="none" xmlns="http://www.w3.org/2000/svg">
<circle cx="82" cy="82" r="82" fill="#D9D9D9"/>
<mask id="mask0_353_212" style="mask-type:alpha" maskUnits="userSpaceOnUse" x="32" y="32" width="100" height="100">
<rect x="32" y="32" width="100" height="100" fill="#8C52FF"/>
</mask>
<g mask="url(#mask0_353_212)">
<path d="M71.584 123.666C66.3757 123.666 61.9486 121.843 58.3027 118.198C54.6569 114.552 52.834 110.125 52.834 104.916C52.834 102.486 53.4243 100.246 54.6048 98.1976C55.7854 96.149 57.9729 93.5275 61.1673 90.333C61.584 89.9163 61.9833 89.4823 62.3652 89.0309C62.7472 88.5795 63.2507 87.9719 63.8757 87.208C60.334 81.7913 57.6083 76.1143 55.6986 70.1768C53.7888 64.2393 52.834 58.458 52.834 52.833C52.834 48.8052 53.5632 45.715 55.0215 43.5622C56.4798 41.4094 58.5284 40.333 61.1673 40.333C65.1257 40.333 68.6673 42.2427 71.7923 46.0622C74.9173 49.8816 77.2784 53.3886 78.8757 56.583C79.5007 57.9719 80.0736 59.3781 80.5944 60.8018C81.1152 62.2254 81.584 63.7011 82.0007 65.2288C82.4173 63.7011 82.8861 62.2254 83.4069 60.8018C83.9277 59.3781 84.5354 57.9719 85.2298 56.583C86.7576 53.3886 89.084 49.8816 92.209 46.0622C95.334 42.2427 98.8756 40.333 102.834 40.333C105.473 40.333 107.521 41.4094 108.98 43.5622C110.438 45.715 111.167 48.8052 111.167 52.833C111.167 58.458 110.212 64.2393 108.303 70.1768C106.393 76.1143 103.667 81.7913 100.126 87.208C100.751 87.9719 101.254 88.5795 101.636 89.0309C102.018 89.4823 102.417 89.9163 102.834 90.333C106.028 93.5275 108.216 96.149 109.396 98.1976C110.577 100.246 111.167 102.486 111.167 104.916C111.167 110.125 109.344 114.552 105.699 118.198C102.053 121.843 97.6256 123.666 92.4173 123.666C89.2923 123.666 86.775 123.319 84.8652 122.625L82.0007 121.583L79.1361 122.625C77.2263 123.319 74.709 123.666 71.584 123.666ZM71.584 115.333C73.1812 115.333 74.7784 115.142 76.3757 114.76C77.9729 114.378 79.4659 113.805 80.8548 113.041C80.0909 112.694 79.3965 112.104 78.7715 111.271C78.1465 110.437 77.834 109.708 77.834 109.083C77.834 108.527 78.2333 108.041 79.0319 107.625C79.8305 107.208 80.8201 107 82.0007 107C83.1812 107 84.1708 107.208 84.9694 107.625C85.768 108.041 86.1673 108.527 86.1673 109.083C86.1673 109.708 85.8548 110.437 85.2298 111.271C84.6048 112.104 83.9104 112.694 83.1465 113.041C84.5354 113.805 86.0284 114.378 87.6257 114.76C89.2229 115.142 90.8201 115.333 92.4173 115.333C95.334 115.333 97.7993 114.326 99.8132 112.312C101.827 110.298 102.834 107.833 102.834 104.916C102.834 103.666 102.487 102.451 101.792 101.271C101.098 100.09 100.056 98.9094 98.6673 97.7288C97.6951 96.8955 96.8965 96.1663 96.2715 95.5413C95.6465 94.9163 94.6395 93.7358 93.2506 91.9997C91.2368 89.5691 89.5701 87.9893 88.2506 87.2601C86.9312 86.5309 84.8479 86.1663 82.0007 86.1663C79.1534 86.1663 77.0527 86.5309 75.6986 87.2601C74.3444 87.9893 72.6951 89.5691 70.7507 91.9997C69.3618 93.7358 68.3548 94.9163 67.7298 95.5413C67.1048 96.1663 66.3062 96.8955 65.334 97.7288C63.9451 98.9094 62.9034 100.09 62.209 101.271C61.5145 102.451 61.1673 103.666 61.1673 104.916C61.1673 107.833 62.1743 110.298 64.1882 112.312C66.202 114.326 68.6673 115.333 71.584 115.333ZM75.7507 101.791C75.1951 101.791 74.709 101.479 74.2923 100.854C73.8757 100.229 73.6673 99.4997 73.6673 98.6663C73.6673 97.833 73.8757 97.1038 74.2923 96.4788C74.709 95.8538 75.1951 95.5413 75.7507 95.5413C76.3062 95.5413 76.7923 95.8538 77.209 96.4788C77.6257 97.1038 77.834 97.833 77.834 98.6663C77.834 99.4997 77.6257 100.229 77.209 100.854C76.7923 101.479 76.3062 101.791 75.7507 101.791ZM88.2506 101.791C87.6951 101.791 87.209 101.479 86.7923 100.854C86.3757 100.229 86.1673 99.4997 86.1673 98.6663C86.1673 97.833 86.3757 97.1038 86.7923 96.4788C87.209 95.8538 87.6951 95.5413 88.2506 95.5413C88.8062 95.5413 89.2923 95.8538 89.709 96.4788C90.1257 97.1038 90.334 97.833 90.334 98.6663C90.334 99.4997 90.1257 100.229 89.709 100.854C89.2923 101.479 88.8062 101.791 88.2506 101.791ZM69.8132 81.0622C70.577 80.5066 71.4451 80.0205 72.4173 79.6038C73.3895 79.1872 74.4659 78.8052 75.6465 78.458C75.5076 75.1247 75.0041 71.8087 74.1361 68.5101C73.268 65.2115 72.1743 62.208 70.8548 59.4997C69.5354 56.7219 68.077 54.3781 66.4798 52.4684C64.8826 50.5587 63.2854 49.3261 61.6882 48.7705C61.5493 49.1872 61.4277 49.7254 61.3236 50.3851C61.2194 51.0448 61.1673 51.8608 61.1673 52.833C61.1673 57.5552 61.9138 62.3469 63.4069 67.208C64.9 72.0691 67.0354 76.6872 69.8132 81.0622ZM94.1881 81.0622C96.9659 76.6872 99.1013 72.0691 100.594 67.208C102.087 62.3469 102.834 57.5552 102.834 52.833C102.834 51.8608 102.782 51.0448 102.678 50.3851C102.574 49.7254 102.452 49.1872 102.313 48.7705C100.716 49.3261 99.1187 50.5587 97.5215 52.4684C95.9243 54.3781 94.4659 56.7219 93.1465 59.4997C91.8965 62.208 90.8375 65.2115 89.9694 68.5101C89.1013 71.8087 88.5632 75.1247 88.3548 78.458C89.3965 78.7358 90.4034 79.1004 91.3756 79.5518C92.3479 80.0032 93.2854 80.5066 94.1881 81.0622Z" fill="#8C52FF"/>
</g>
</svg>
