<svg width="42" height="42" viewBox="0 0 42 42" fill="none" xmlns="http://www.w3.org/2000/svg">
<mask id="mask0_122_402" style="mask-type:alpha" maskUnits="userSpaceOnUse" x="0" y="0" width="42" height="42">
<rect width="42" height="42" fill="#D9D9D9"/>
</mask>
<g mask="url(#mask0_122_402)">
<path d="M28 22.75C26.6583 21.525 25.3531 20.3219 24.0844 19.1406C22.8156 17.9594 21.6927 16.8 20.7156 15.6625C19.7385 14.525 18.9583 13.424 18.375 12.3594C17.7917 11.2948 17.5 10.2667 17.5 9.275C17.5 7.64167 18.0542 6.27083 19.1625 5.1625C20.2708 4.05417 21.6417 3.5 23.275 3.5C24.2083 3.5 25.0833 3.69687 25.9 4.09063C26.7167 4.48438 27.4167 5.01667 28 5.6875C28.5833 5.01667 29.2833 4.48438 30.1 4.09063C30.9167 3.69687 31.7917 3.5 32.725 3.5C34.3583 3.5 35.7292 4.05417 36.8375 5.1625C37.9458 6.27083 38.5 7.64167 38.5 9.275C38.5 10.2667 38.2083 11.2948 37.625 12.3594C37.0417 13.424 36.2615 14.525 35.2844 15.6625C34.3073 16.8 33.1917 17.9594 31.9375 19.1406C30.6833 20.3219 29.3708 21.525 28 22.75ZM28 18.025C29.7208 16.3917 31.3177 14.7656 32.7906 13.1469C34.2635 11.5281 35 10.2375 35 9.275C35 8.60417 34.7885 8.05729 34.3656 7.63437C33.9427 7.21146 33.3958 7 32.725 7C32.3167 7 31.9302 7.08021 31.5656 7.24063C31.201 7.40104 30.8875 7.64167 30.625 7.9625L28 11.1125L25.375 7.9625C25.1125 7.64167 24.799 7.40104 24.4344 7.24063C24.0698 7.08021 23.6833 7 23.275 7C22.6042 7 22.0573 7.21146 21.6344 7.63437C21.2115 8.05729 21 8.60417 21 9.275C21 10.2375 21.7365 11.5281 23.2094 13.1469C24.6823 14.7656 26.2792 16.3917 28 18.025ZM24.5 39.375L12.25 35.9625V38.5H1.75V19.25H15.6625L26.5125 23.275C27.475 23.625 28.2552 24.2375 28.8531 25.1125C29.451 25.9875 29.75 26.95 29.75 28H33.25C34.7083 28 35.9479 28.4812 36.9688 29.4437C37.9896 30.4062 38.5 31.675 38.5 33.25V35L24.5 39.375ZM5.25 35H8.75V22.75H5.25V35ZM24.4125 35.7L34.825 32.4625C34.7375 32.1417 34.5406 31.901 34.2344 31.7406C33.9281 31.5802 33.6 31.5 33.25 31.5H24.85C23.9458 31.5 23.1292 31.4417 22.4 31.325C21.6708 31.2083 20.8833 31.0042 20.0375 30.7125L17.0188 29.6625L18.025 26.3375L21.525 27.475C22.05 27.65 22.6625 27.7813 23.3625 27.8688C24.0625 27.9563 25.025 28 26.25 28C26.25 27.6792 26.1552 27.3729 25.9656 27.0813C25.776 26.7896 25.55 26.6 25.2875 26.5125L15.05 22.75H12.25V32.375L24.4125 35.7Z" fill="#562BD6"/>
</g>
</svg>
