<svg width="25" height="25" viewBox="0 0 25 25" fill="none" xmlns="http://www.w3.org/2000/svg">
<mask id="mask0_414_179" style="mask-type:alpha" maskUnits="userSpaceOnUse" x="0" y="0" width="25" height="25">
<rect x="24.0898" y="24.2344" width="24" height="24" transform="rotate(-180 24.0898 24.2344)" fill="#D9D9D9"/>
</mask>
<g mask="url(#mask0_414_179)">
<path d="M12.6898 8.23437L10.0898 10.8344L7.48984 8.23437L6.08984 9.63437L8.68984 12.2344L6.08984 14.8344L7.48984 16.2344L10.0898 13.6344L12.6898 16.2344L14.0898 14.8344L11.4898 12.2344L14.0898 9.63437L12.6898 8.23437ZM21.0898 12.2344L16.7398 18.3844C16.5565 18.651 16.319 18.8594 16.0273 19.0094C15.7357 19.1594 15.4232 19.2344 15.0898 19.2344L5.08984 19.2344C4.53984 19.2344 4.06901 19.0385 3.67734 18.6469C3.28568 18.2552 3.08984 17.7844 3.08984 17.2344V7.23437C3.08984 6.68437 3.28568 6.21354 3.67734 5.82187C4.06901 5.43021 4.53984 5.23437 5.08984 5.23437L15.0898 5.23438C15.4232 5.23438 15.7357 5.30937 16.0273 5.45937C16.319 5.60937 16.5565 5.81771 16.7398 6.08437L21.0898 12.2344ZM18.6398 12.2344L15.0898 7.23438L5.08984 7.23437L5.08984 17.2344H15.0898L18.6398 12.2344Z" fill="white"/>
</g>
</svg>
