<svg width="75" height="75" viewBox="0 0 75 75" fill="none" xmlns="http://www.w3.org/2000/svg">
<path d="M17.3438 68.75C15.0651 68.75 13.1283 67.9525 11.5332 66.3574C9.93815 64.7624 9.14062 62.8255 9.14062 60.5469V50.7812H19.0625V6.25L23.7344 10.9375L28.4063 6.25L33.0781 10.9375L37.75 6.25L42.4219 10.9375L47.1094 6.25L51.7969 10.9375L56.4844 6.25L61.1719 10.9375L65.8594 6.25V60.5469C65.8594 62.8255 65.0618 64.7624 63.4668 66.3574C61.8717 67.9525 59.9349 68.75 57.6562 68.75H17.3438ZM57.6562 64.0625C58.6979 64.0625 59.5443 63.737 60.1953 63.0859C60.8464 62.4349 61.1719 61.5885 61.1719 60.5469V14.0625H23.75V50.7812H54.1406V60.5469C54.1406 61.5885 54.4661 62.4349 55.1172 63.0859C55.7682 63.737 56.6146 64.0625 57.6562 64.0625ZM27.8906 26.4062V21.7188H46.6406V26.4062H27.8906ZM27.8906 36.875V32.1875H46.6406V36.875H27.8906ZM53.9062 26.4062C53.2812 26.4062 52.7344 26.1719 52.2656 25.7031C51.7969 25.2344 51.5625 24.6875 51.5625 24.0625C51.5625 23.4375 51.7969 22.8906 52.2656 22.4219C52.7344 21.9531 53.2812 21.7188 53.9062 21.7188C54.5312 21.7188 55.0781 21.9531 55.5469 22.4219C56.0156 22.8906 56.25 23.4375 56.25 24.0625C56.25 24.6875 56.0156 25.2344 55.5469 25.7031C55.0781 26.1719 54.5312 26.4062 53.9062 26.4062ZM53.9062 36.4844C53.2812 36.4844 52.7344 36.25 52.2656 35.7812C51.7969 35.3125 51.5625 34.7656 51.5625 34.1406C51.5625 33.5156 51.7969 32.9688 52.2656 32.5C52.7344 32.0312 53.2812 31.7969 53.9062 31.7969C54.5312 31.7969 55.0781 32.0312 55.5469 32.5C56.0156 32.9688 56.25 33.5156 56.25 34.1406C56.25 34.7656 56.0156 35.3125 55.5469 35.7812C55.0781 36.25 54.5312 36.4844 53.9062 36.4844ZM17.2656 64.0625H49.4531V55.4688H13.8281V60.5469C13.8281 61.5885 14.1576 62.4349 14.8164 63.0859C15.4753 63.737 16.2917 64.0625 17.2656 64.0625Z" fill="black"/>
</svg>
