<svg width="42" height="42" viewBox="0 0 42 42" fill="none" xmlns="http://www.w3.org/2000/svg">
<mask id="mask0_122_435" style="mask-type:alpha" maskUnits="userSpaceOnUse" x="0" y="0" width="42" height="42">
<rect width="42" height="42" fill="#562BD6"/>
</mask>
<g mask="url(#mask0_122_435)">
<path d="M18.375 27.125H23.625V22.75H28V17.5H23.625V13.125H18.375V17.5H14V22.75H18.375V27.125ZM21 38.5C16.9458 37.4792 13.599 35.1531 10.9594 31.5219C8.31979 27.8906 7 23.8583 7 19.425V8.75L21 3.5L35 8.75V19.425C35 23.8583 33.6802 27.8906 31.0406 31.5219C28.401 35.1531 25.0542 37.4792 21 38.5ZM21 34.825C24.0333 33.8625 26.5417 31.9375 28.525 29.05C30.5083 26.1625 31.5 22.9542 31.5 19.425V11.1562L21 7.21875L10.5 11.1562V19.425C10.5 22.9542 11.4917 26.1625 13.475 29.05C15.4583 31.9375 17.9667 33.8625 21 34.825Z" fill="#562BD6"/>
</g>
</svg>
