<svg width="63" height="51" viewBox="0 0 63 51" fill="none" xmlns="http://www.w3.org/2000/svg">
<path d="M62.7578 6.75V44.25C62.7578 45.9688 62.1458 47.4401 60.9219 48.6641C59.6979 49.888 58.2266 50.5 56.5078 50.5H6.50781C4.78906 50.5 3.31771 49.888 2.09375 48.6641C0.869792 47.4401 0.257812 45.9688 0.257812 44.25V6.75C0.257812 5.03125 0.869792 3.5599 2.09375 2.33594C3.31771 1.11198 4.78906 0.5 6.50781 0.5H56.5078C58.2266 0.5 59.6979 1.11198 60.9219 2.33594C62.1458 3.5599 62.7578 5.03125 62.7578 6.75ZM6.50781 13H56.5078V6.75H6.50781V13ZM6.50781 25.5V44.25H56.5078V25.5H6.50781Z" fill="black"/>
</svg>
