<svg width="64" height="51" viewBox="0 0 64 51" fill="none" xmlns="http://www.w3.org/2000/svg">
<path d="M28.833 41.125H35.1663V38H38.333C40.0747 38 41.4997 36.5938 41.4997 34.875V25.5C41.4997 23.7812 40.0747 22.375 38.333 22.375H28.833V19.25H41.4997V13H35.1663V9.875H28.833V13H25.6663C23.9247 13 22.4997 14.4062 22.4997 16.125V25.5C22.4997 27.2188 23.9247 28.625 25.6663 28.625H35.1663V31.75H22.4997V38H28.833V41.125ZM57.333 0.5H6.66634C3.15134 0.5 0.364674 3.28125 0.364674 6.75L0.333008 44.25C0.333008 47.7188 3.15134 50.5 6.66634 50.5H57.333C60.848 50.5 63.6663 47.7188 63.6663 44.25V6.75C63.6663 3.28125 60.848 0.5 57.333 0.5ZM57.333 44.25H6.66634V6.75H57.333V44.25Z" fill="black"/>
</svg>
