<svg width="91" height="90" viewBox="0 0 91 90" fill="none" xmlns="http://www.w3.org/2000/svg">
<mask id="mask0_114_641" style="mask-type:alpha" maskUnits="userSpaceOnUse" x="0" y="0" width="91" height="90">
<rect x="0.5" width="90" height="90" fill="#D9D9D9"/>
</mask>
<g mask="url(#mask0_114_641)">
<path d="M15.126 41.9062C14.4385 41.1563 14.0947 40.2656 14.0947 39.2344C14.0947 38.2031 14.4385 37.3125 15.126 36.5625L25.626 26.0625L21.5947 22.0312L20.4697 23.1563C19.7197 23.9063 18.8291 24.2812 17.7979 24.2812C16.7666 24.2812 15.876 23.9063 15.126 23.1563C14.4385 22.4688 14.0947 21.5938 14.0947 20.5312C14.0947 19.4688 14.4385 18.5938 15.126 17.9062L22.626 10.4063C23.376 9.65625 24.2666 9.28125 25.2979 9.28125C26.3291 9.28125 27.2197 9.65625 27.9697 10.4063C28.6572 11.0938 29.001 11.9688 29.001 13.0312C29.001 14.0938 28.6572 14.9688 27.9697 15.6562L26.8447 16.7813L30.876 20.8125L41.376 10.3125C42.126 9.5625 43.0166 9.1875 44.0479 9.1875C45.0791 9.1875 45.9697 9.5625 46.7197 10.3125C47.4697 11.0625 47.8447 11.9531 47.8447 12.9844C47.8447 14.0156 47.4697 14.9062 46.7197 15.6562L44.1885 18.0938L71.8447 45.75C73.2822 47.1875 74.001 48.9531 74.001 51.0469C74.001 53.1406 73.2822 54.9062 71.8447 56.3438L69.2197 59.0625L86.9385 76.6875H76.251L63.876 64.3125L61.251 67.0312C59.8135 68.4688 58.0479 69.1875 55.9541 69.1875C53.8604 69.1875 52.0947 68.4688 50.6572 67.0312L23.001 39.375L20.4697 41.9062C19.7197 42.5938 18.8291 42.9375 17.7979 42.9375C16.7666 42.9375 15.876 42.5938 15.126 41.9062ZM28.251 34.125L55.9072 61.7813L66.501 51.0938L60.876 45.375L55.626 50.625C54.876 51.3125 53.9854 51.6719 52.9541 51.7031C51.9229 51.7344 51.0635 51.4062 50.376 50.7188C49.626 49.9688 49.251 49.0781 49.251 48.0469C49.251 47.0156 49.626 46.125 50.376 45.375L55.626 40.125L50.001 34.5L44.751 39.75C44.001 40.4375 43.1104 40.7812 42.0791 40.7812C41.0479 40.7812 40.1572 40.4375 39.4072 39.75C38.7197 39 38.376 38.1094 38.376 37.0781C38.376 36.0469 38.7197 35.1562 39.4072 34.4062L44.6572 29.1563L38.9385 23.4375L28.251 34.125Z" fill="#1C1B1F"/>
</g>
</svg>
