<svg width="25" height="24" viewBox="0 0 25 24" fill="none" xmlns="http://www.w3.org/2000/svg">
<mask id="mask0_138_561" style="mask-type:alpha" maskUnits="userSpaceOnUse" x="0" y="0" width="25" height="24">
<rect x="0.5" width="24" height="24" fill="#D9D9D9"/>
</mask>
<g mask="url(#mask0_138_561)">
<path d="M16.45 22L12.2 17.75L13.6 16.35L16.45 19.2L22.1 13.55L23.5 14.95L16.45 22ZM12.5 11L20.5 6H4.5L12.5 11ZM12.5 13L4.5 8V18H9.65L11.65 20H4.5C3.95 20 3.47917 19.8042 3.0875 19.4125C2.69583 19.0208 2.5 18.55 2.5 18V6C2.5 5.45 2.69583 4.97917 3.0875 4.5875C3.47917 4.19583 3.95 4 4.5 4H20.5C21.05 4 21.5208 4.19583 21.9125 4.5875C22.3042 4.97917 22.5 5.45 22.5 6V10.35L20.5 12.35V8L12.5 13Z" fill="#1C1B1F"/>
</g>
</svg>
