<svg width="266" height="14" viewBox="0 0 266 14" fill="none" xmlns="http://www.w3.org/2000/svg">
<path d="M22.9814 3.22461L20.1572 11H19.0029L22.2549 2.46875H22.999L22.9814 3.22461ZM25.3486 11L22.5186 3.22461L22.501 2.46875H23.2451L26.5088 11H25.3486ZM25.2021 7.8418V8.76758H20.4092V7.8418H25.2021ZM29.1221 10.0215L30.8564 4.66016H31.9639L29.6846 11H28.958L29.1221 10.0215ZM27.6748 4.66016L29.4619 10.0508L29.585 11H28.8584L26.5615 4.66016H27.6748ZM35.5557 11.1172C35.1143 11.1172 34.7139 11.043 34.3545 10.8945C33.999 10.7422 33.6924 10.5293 33.4346 10.2559C33.1807 9.98242 32.9854 9.6582 32.8486 9.2832C32.7119 8.9082 32.6436 8.49805 32.6436 8.05273V7.80664C32.6436 7.29102 32.7197 6.83203 32.8721 6.42969C33.0244 6.02344 33.2314 5.67969 33.4932 5.39844C33.7549 5.11719 34.0518 4.9043 34.3838 4.75977C34.7158 4.61523 35.0596 4.54297 35.415 4.54297C35.8682 4.54297 36.2588 4.62109 36.5869 4.77734C36.9189 4.93359 37.1904 5.15234 37.4014 5.43359C37.6123 5.71094 37.7686 6.03906 37.8701 6.41797C37.9717 6.79297 38.0225 7.20312 38.0225 7.64844V8.13477H33.2881V7.25H36.9385V7.16797C36.9229 6.88672 36.8643 6.61328 36.7627 6.34766C36.665 6.08203 36.5088 5.86328 36.2939 5.69141C36.0791 5.51953 35.7861 5.43359 35.415 5.43359C35.1689 5.43359 34.9424 5.48633 34.7354 5.5918C34.5283 5.69336 34.3506 5.8457 34.2021 6.04883C34.0537 6.25195 33.9385 6.5 33.8564 6.79297C33.7744 7.08594 33.7334 7.42383 33.7334 7.80664V8.05273C33.7334 8.35352 33.7744 8.63672 33.8564 8.90234C33.9424 9.16406 34.0654 9.39453 34.2256 9.59375C34.3896 9.79297 34.5869 9.94922 34.8174 10.0625C35.0518 10.1758 35.3174 10.2324 35.6143 10.2324C35.9971 10.2324 36.3213 10.1543 36.5869 9.99805C36.8525 9.8418 37.085 9.63281 37.2842 9.37109L37.9404 9.89258C37.8037 10.0996 37.6299 10.2969 37.4189 10.4844C37.208 10.6719 36.9482 10.8242 36.6396 10.9414C36.335 11.0586 35.9736 11.1172 35.5557 11.1172ZM40.3721 6.01367V11H39.2881V4.66016H40.3135L40.3721 6.01367ZM40.1143 7.58984L39.6631 7.57227C39.667 7.13867 39.7314 6.73828 39.8564 6.37109C39.9814 6 40.1572 5.67773 40.3838 5.4043C40.6104 5.13086 40.8799 4.91992 41.1924 4.77148C41.5088 4.61914 41.8584 4.54297 42.2412 4.54297C42.5537 4.54297 42.835 4.58594 43.085 4.67188C43.335 4.75391 43.5479 4.88672 43.7236 5.07031C43.9033 5.25391 44.04 5.49219 44.1338 5.78516C44.2275 6.07422 44.2744 6.42773 44.2744 6.8457V11H43.1846V6.83398C43.1846 6.50195 43.1357 6.23633 43.0381 6.03711C42.9404 5.83398 42.7979 5.6875 42.6104 5.59766C42.4229 5.50391 42.1924 5.45703 41.9189 5.45703C41.6494 5.45703 41.4033 5.51367 41.1807 5.62695C40.9619 5.74023 40.7725 5.89648 40.6123 6.0957C40.4561 6.29492 40.333 6.52344 40.2432 6.78125C40.1572 7.03516 40.1143 7.30469 40.1143 7.58984ZM47.0986 4.66016V11H46.0088V4.66016H47.0986ZM45.9268 2.97852C45.9268 2.80273 45.9795 2.6543 46.085 2.5332C46.1943 2.41211 46.3545 2.35156 46.5654 2.35156C46.7725 2.35156 46.9307 2.41211 47.04 2.5332C47.1533 2.6543 47.21 2.80273 47.21 2.97852C47.21 3.14648 47.1533 3.29102 47.04 3.41211C46.9307 3.5293 46.7725 3.58789 46.5654 3.58789C46.3545 3.58789 46.1943 3.5293 46.085 3.41211C45.9795 3.29102 45.9268 3.14648 45.9268 2.97852ZM52.835 9.76953V2H53.9248V11H52.9287L52.835 9.76953ZM48.5693 7.90039V7.77734C48.5693 7.29297 48.6279 6.85352 48.7451 6.45898C48.8662 6.06055 49.0361 5.71875 49.2549 5.43359C49.4775 5.14844 49.7412 4.92969 50.0459 4.77734C50.3545 4.62109 50.6982 4.54297 51.0771 4.54297C51.4756 4.54297 51.8232 4.61328 52.1201 4.75391C52.4209 4.89062 52.6748 5.0918 52.8818 5.35742C53.0928 5.61914 53.2588 5.93555 53.3799 6.30664C53.501 6.67773 53.585 7.09766 53.6318 7.56641V8.10547C53.5889 8.57031 53.5049 8.98828 53.3799 9.35938C53.2588 9.73047 53.0928 10.0469 52.8818 10.3086C52.6748 10.5703 52.4209 10.7715 52.1201 10.9121C51.8193 11.0488 51.4678 11.1172 51.0654 11.1172C50.6943 11.1172 50.3545 11.0371 50.0459 10.877C49.7412 10.7168 49.4775 10.4922 49.2549 10.2031C49.0361 9.91406 48.8662 9.57422 48.7451 9.18359C48.6279 8.78906 48.5693 8.36133 48.5693 7.90039ZM49.6592 7.77734V7.90039C49.6592 8.2168 49.6904 8.51367 49.7529 8.79102C49.8193 9.06836 49.9209 9.3125 50.0576 9.52344C50.1943 9.73438 50.3682 9.90039 50.5791 10.0215C50.79 10.1387 51.042 10.1973 51.335 10.1973C51.6943 10.1973 51.9893 10.1211 52.2197 9.96875C52.4541 9.81641 52.6416 9.61523 52.7822 9.36523C52.9229 9.11523 53.0322 8.84375 53.1104 8.55078V7.13867C53.0635 6.92383 52.9951 6.7168 52.9053 6.51758C52.8193 6.31445 52.7061 6.13477 52.5654 5.97852C52.4287 5.81836 52.2588 5.69141 52.0557 5.59766C51.8564 5.50391 51.6201 5.45703 51.3467 5.45703C51.0498 5.45703 50.7939 5.51953 50.5791 5.64453C50.3682 5.76562 50.1943 5.93359 50.0576 6.14844C49.9209 6.35938 49.8193 6.60547 49.7529 6.88672C49.6904 7.16406 49.6592 7.46094 49.6592 7.77734ZM59.3506 9.91602V6.65234C59.3506 6.40234 59.2998 6.18555 59.1982 6.00195C59.1006 5.81445 58.9521 5.66992 58.7529 5.56836C58.5537 5.4668 58.3076 5.41602 58.0146 5.41602C57.7412 5.41602 57.501 5.46289 57.2939 5.55664C57.0908 5.65039 56.9307 5.77344 56.8135 5.92578C56.7002 6.07812 56.6436 6.24219 56.6436 6.41797H55.5596C55.5596 6.19141 55.6182 5.9668 55.7354 5.74414C55.8525 5.52148 56.0205 5.32031 56.2393 5.14062C56.4619 4.95703 56.7275 4.8125 57.0361 4.70703C57.3486 4.59766 57.6963 4.54297 58.0791 4.54297C58.54 4.54297 58.9463 4.62109 59.2979 4.77734C59.6533 4.93359 59.9307 5.16992 60.1299 5.48633C60.333 5.79883 60.4346 6.19141 60.4346 6.66406V9.61719C60.4346 9.82812 60.4521 10.0527 60.4873 10.291C60.5264 10.5293 60.583 10.7344 60.6572 10.9062V11H59.5264C59.4717 10.875 59.4287 10.709 59.3975 10.502C59.3662 10.291 59.3506 10.0957 59.3506 9.91602ZM59.5381 7.15625L59.5498 7.91797H58.4541C58.1455 7.91797 57.8701 7.94336 57.6279 7.99414C57.3857 8.04102 57.1826 8.11328 57.0186 8.21094C56.8545 8.30859 56.7295 8.43164 56.6436 8.58008C56.5576 8.72461 56.5146 8.89453 56.5146 9.08984C56.5146 9.28906 56.5596 9.4707 56.6494 9.63477C56.7393 9.79883 56.874 9.92969 57.0537 10.0273C57.2373 10.1211 57.4619 10.168 57.7275 10.168C58.0596 10.168 58.3525 10.0977 58.6064 9.95703C58.8604 9.81641 59.0615 9.64453 59.21 9.44141C59.3623 9.23828 59.4443 9.04102 59.4561 8.84961L59.9189 9.37109C59.8916 9.53516 59.8174 9.7168 59.6963 9.91602C59.5752 10.1152 59.4131 10.3066 59.21 10.4902C59.0107 10.6699 58.7725 10.8203 58.4951 10.9414C58.2217 11.0586 57.9131 11.1172 57.5693 11.1172C57.1396 11.1172 56.7627 11.0332 56.4385 10.8652C56.1182 10.6973 55.8682 10.4727 55.6885 10.1914C55.5127 9.90625 55.4248 9.58789 55.4248 9.23633C55.4248 8.89648 55.4912 8.59766 55.624 8.33984C55.7568 8.07812 55.9482 7.86133 56.1982 7.68945C56.4482 7.51367 56.749 7.38086 57.1006 7.29102C57.4521 7.20117 57.8447 7.15625 58.2783 7.15625H59.5381ZM66.4932 2.46875V11H65.3623V2.46875H66.4932ZM69.4697 6.01367V11H68.3857V4.66016H69.4111L69.4697 6.01367ZM69.2119 7.58984L68.7607 7.57227C68.7646 7.13867 68.8291 6.73828 68.9541 6.37109C69.0791 6 69.2549 5.67773 69.4814 5.4043C69.708 5.13086 69.9775 4.91992 70.29 4.77148C70.6064 4.61914 70.9561 4.54297 71.3389 4.54297C71.6514 4.54297 71.9326 4.58594 72.1826 4.67188C72.4326 4.75391 72.6455 4.88672 72.8213 5.07031C73.001 5.25391 73.1377 5.49219 73.2314 5.78516C73.3252 6.07422 73.3721 6.42773 73.3721 6.8457V11H72.2822V6.83398C72.2822 6.50195 72.2334 6.23633 72.1357 6.03711C72.0381 5.83398 71.8955 5.6875 71.708 5.59766C71.5205 5.50391 71.29 5.45703 71.0166 5.45703C70.7471 5.45703 70.501 5.51367 70.2783 5.62695C70.0596 5.74023 69.8701 5.89648 69.71 6.0957C69.5537 6.29492 69.4307 6.52344 69.3408 6.78125C69.2549 7.03516 69.2119 7.30469 69.2119 7.58984ZM77.6729 4.66016V5.49219H74.2451V4.66016H77.6729ZM75.4053 3.11914H76.4893V9.42969C76.4893 9.64453 76.5225 9.80664 76.5889 9.91602C76.6553 10.0254 76.7412 10.0977 76.8467 10.1328C76.9521 10.168 77.0654 10.1855 77.1865 10.1855C77.2764 10.1855 77.3701 10.1777 77.4678 10.1621C77.5693 10.1426 77.6455 10.127 77.6963 10.1152L77.7021 11C77.6162 11.0273 77.5029 11.0527 77.3623 11.0762C77.2256 11.1035 77.0596 11.1172 76.8643 11.1172C76.5986 11.1172 76.3545 11.0645 76.1318 10.959C75.9092 10.8535 75.7314 10.6777 75.5986 10.4316C75.4697 10.1816 75.4053 9.8457 75.4053 9.42383V3.11914ZM81.5752 11.1172C81.1338 11.1172 80.7334 11.043 80.374 10.8945C80.0186 10.7422 79.7119 10.5293 79.4541 10.2559C79.2002 9.98242 79.0049 9.6582 78.8682 9.2832C78.7314 8.9082 78.6631 8.49805 78.6631 8.05273V7.80664C78.6631 7.29102 78.7393 6.83203 78.8916 6.42969C79.0439 6.02344 79.251 5.67969 79.5127 5.39844C79.7744 5.11719 80.0713 4.9043 80.4033 4.75977C80.7354 4.61523 81.0791 4.54297 81.4346 4.54297C81.8877 4.54297 82.2783 4.62109 82.6064 4.77734C82.9385 4.93359 83.21 5.15234 83.4209 5.43359C83.6318 5.71094 83.7881 6.03906 83.8896 6.41797C83.9912 6.79297 84.042 7.20312 84.042 7.64844V8.13477H79.3076V7.25H82.958V7.16797C82.9424 6.88672 82.8838 6.61328 82.7822 6.34766C82.6846 6.08203 82.5283 5.86328 82.3135 5.69141C82.0986 5.51953 81.8057 5.43359 81.4346 5.43359C81.1885 5.43359 80.9619 5.48633 80.7549 5.5918C80.5479 5.69336 80.3701 5.8457 80.2217 6.04883C80.0732 6.25195 79.958 6.5 79.876 6.79297C79.7939 7.08594 79.7529 7.42383 79.7529 7.80664V8.05273C79.7529 8.35352 79.7939 8.63672 79.876 8.90234C79.9619 9.16406 80.085 9.39453 80.2451 9.59375C80.4092 9.79297 80.6064 9.94922 80.8369 10.0625C81.0713 10.1758 81.3369 10.2324 81.6338 10.2324C82.0166 10.2324 82.3408 10.1543 82.6064 9.99805C82.8721 9.8418 83.1045 9.63281 83.3037 9.37109L83.96 9.89258C83.8232 10.0996 83.6494 10.2969 83.4385 10.4844C83.2275 10.6719 82.9678 10.8242 82.6592 10.9414C82.3545 11.0586 81.9932 11.1172 81.5752 11.1172ZM86.3916 5.65625V11H85.3076V4.66016H86.3623L86.3916 5.65625ZM88.3721 4.625L88.3662 5.63281C88.2764 5.61328 88.1904 5.60156 88.1084 5.59766C88.0303 5.58984 87.9404 5.58594 87.8389 5.58594C87.5889 5.58594 87.3682 5.625 87.1768 5.70312C86.9854 5.78125 86.8232 5.89062 86.6904 6.03125C86.5576 6.17188 86.4521 6.33984 86.374 6.53516C86.2998 6.72656 86.251 6.9375 86.2275 7.16797L85.9229 7.34375C85.9229 6.96094 85.96 6.60156 86.0342 6.26562C86.1123 5.92969 86.2314 5.63281 86.3916 5.375C86.5518 5.11328 86.7549 4.91016 87.001 4.76562C87.251 4.61719 87.5479 4.54297 87.8916 4.54297C87.9697 4.54297 88.0596 4.55273 88.1611 4.57227C88.2627 4.58789 88.333 4.60547 88.3721 4.625ZM90.5518 2V11H89.4619V2H90.5518ZM96.0303 9.91602V6.65234C96.0303 6.40234 95.9795 6.18555 95.8779 6.00195C95.7803 5.81445 95.6318 5.66992 95.4326 5.56836C95.2334 5.4668 94.9873 5.41602 94.6943 5.41602C94.4209 5.41602 94.1807 5.46289 93.9736 5.55664C93.7705 5.65039 93.6104 5.77344 93.4932 5.92578C93.3799 6.07812 93.3232 6.24219 93.3232 6.41797H92.2393C92.2393 6.19141 92.2979 5.9668 92.415 5.74414C92.5322 5.52148 92.7002 5.32031 92.9189 5.14062C93.1416 4.95703 93.4072 4.8125 93.7158 4.70703C94.0283 4.59766 94.376 4.54297 94.7588 4.54297C95.2197 4.54297 95.626 4.62109 95.9775 4.77734C96.333 4.93359 96.6104 5.16992 96.8096 5.48633C97.0127 5.79883 97.1143 6.19141 97.1143 6.66406V9.61719C97.1143 9.82812 97.1318 10.0527 97.167 10.291C97.2061 10.5293 97.2627 10.7344 97.3369 10.9062V11H96.2061C96.1514 10.875 96.1084 10.709 96.0771 10.502C96.0459 10.291 96.0303 10.0957 96.0303 9.91602ZM96.2178 7.15625L96.2295 7.91797H95.1338C94.8252 7.91797 94.5498 7.94336 94.3076 7.99414C94.0654 8.04102 93.8623 8.11328 93.6982 8.21094C93.5342 8.30859 93.4092 8.43164 93.3232 8.58008C93.2373 8.72461 93.1943 8.89453 93.1943 9.08984C93.1943 9.28906 93.2393 9.4707 93.3291 9.63477C93.4189 9.79883 93.5537 9.92969 93.7334 10.0273C93.917 10.1211 94.1416 10.168 94.4072 10.168C94.7393 10.168 95.0322 10.0977 95.2861 9.95703C95.54 9.81641 95.7412 9.64453 95.8896 9.44141C96.042 9.23828 96.124 9.04102 96.1357 8.84961L96.5986 9.37109C96.5713 9.53516 96.4971 9.7168 96.376 9.91602C96.2549 10.1152 96.0928 10.3066 95.8896 10.4902C95.6904 10.6699 95.4521 10.8203 95.1748 10.9414C94.9014 11.0586 94.5928 11.1172 94.249 11.1172C93.8193 11.1172 93.4424 11.0332 93.1182 10.8652C92.7979 10.6973 92.5479 10.4727 92.3682 10.1914C92.1924 9.90625 92.1045 9.58789 92.1045 9.23633C92.1045 8.89648 92.1709 8.59766 92.3037 8.33984C92.4365 8.07812 92.6279 7.86133 92.8779 7.68945C93.1279 7.51367 93.4287 7.38086 93.7803 7.29102C94.1318 7.20117 94.5244 7.15625 94.958 7.15625H96.2178ZM102.927 4.66016H103.911V10.8652C103.911 11.4238 103.798 11.9004 103.571 12.2949C103.345 12.6895 103.028 12.9883 102.622 13.1914C102.22 13.3984 101.755 13.502 101.228 13.502C101.009 13.502 100.751 13.4668 100.454 13.3965C100.161 13.3301 99.8721 13.2148 99.5869 13.0508C99.3057 12.8906 99.0693 12.6738 98.8779 12.4004L99.4463 11.7559C99.7119 12.0762 99.9893 12.2988 100.278 12.4238C100.571 12.5488 100.86 12.6113 101.146 12.6113C101.489 12.6113 101.786 12.5469 102.036 12.418C102.286 12.2891 102.479 12.0977 102.616 11.8438C102.757 11.5938 102.827 11.2852 102.827 10.918V6.05469L102.927 4.66016ZM98.5615 7.90039V7.77734C98.5615 7.29297 98.6182 6.85352 98.7314 6.45898C98.8486 6.06055 99.0146 5.71875 99.2295 5.43359C99.4482 5.14844 99.7119 4.92969 100.021 4.77734C100.329 4.62109 100.677 4.54297 101.063 4.54297C101.462 4.54297 101.81 4.61328 102.106 4.75391C102.407 4.89062 102.661 5.0918 102.868 5.35742C103.079 5.61914 103.245 5.93555 103.366 6.30664C103.487 6.67773 103.571 7.09766 103.618 7.56641V8.10547C103.575 8.57031 103.491 8.98828 103.366 9.35938C103.245 9.73047 103.079 10.0469 102.868 10.3086C102.661 10.5703 102.407 10.7715 102.106 10.9121C101.806 11.0488 101.454 11.1172 101.052 11.1172C100.673 11.1172 100.329 11.0371 100.021 10.877C99.7158 10.7168 99.4541 10.4922 99.2354 10.2031C99.0166 9.91406 98.8486 9.57422 98.7314 9.18359C98.6182 8.78906 98.5615 8.36133 98.5615 7.90039ZM99.6455 7.77734V7.90039C99.6455 8.2168 99.6768 8.51367 99.7393 8.79102C99.8057 9.06836 99.9053 9.3125 100.038 9.52344C100.175 9.73438 100.349 9.90039 100.56 10.0215C100.771 10.1387 101.022 10.1973 101.315 10.1973C101.675 10.1973 101.972 10.1211 102.206 9.96875C102.44 9.81641 102.626 9.61523 102.763 9.36523C102.903 9.11523 103.013 8.84375 103.091 8.55078V7.13867C103.048 6.92383 102.981 6.7168 102.892 6.51758C102.806 6.31445 102.692 6.13477 102.552 5.97852C102.415 5.81836 102.245 5.69141 102.042 5.59766C101.839 5.50391 101.601 5.45703 101.327 5.45703C101.03 5.45703 100.774 5.51953 100.56 5.64453C100.349 5.76562 100.175 5.93359 100.038 6.14844C99.9053 6.35938 99.8057 6.60547 99.7393 6.88672C99.6768 7.16406 99.6455 7.46094 99.6455 7.77734ZM105.271 7.90039V7.76562C105.271 7.30859 105.337 6.88477 105.47 6.49414C105.603 6.09961 105.794 5.75781 106.044 5.46875C106.294 5.17578 106.597 4.94922 106.952 4.78906C107.308 4.625 107.706 4.54297 108.147 4.54297C108.593 4.54297 108.993 4.625 109.349 4.78906C109.708 4.94922 110.013 5.17578 110.263 5.46875C110.517 5.75781 110.71 6.09961 110.843 6.49414C110.976 6.88477 111.042 7.30859 111.042 7.76562V7.90039C111.042 8.35742 110.976 8.78125 110.843 9.17188C110.71 9.5625 110.517 9.9043 110.263 10.1973C110.013 10.4863 109.71 10.7129 109.354 10.877C109.003 11.0371 108.604 11.1172 108.159 11.1172C107.714 11.1172 107.313 11.0371 106.958 10.877C106.603 10.7129 106.298 10.4863 106.044 10.1973C105.794 9.9043 105.603 9.5625 105.47 9.17188C105.337 8.78125 105.271 8.35742 105.271 7.90039ZM106.354 7.76562V7.90039C106.354 8.2168 106.392 8.51562 106.466 8.79688C106.54 9.07422 106.651 9.32031 106.8 9.53516C106.952 9.75 107.142 9.91992 107.368 10.0449C107.595 10.166 107.858 10.2266 108.159 10.2266C108.456 10.2266 108.716 10.166 108.938 10.0449C109.165 9.91992 109.353 9.75 109.501 9.53516C109.649 9.32031 109.761 9.07422 109.835 8.79688C109.913 8.51562 109.952 8.2168 109.952 7.90039V7.76562C109.952 7.45312 109.913 7.1582 109.835 6.88086C109.761 6.59961 109.647 6.35156 109.495 6.13672C109.347 5.91797 109.159 5.74609 108.933 5.62109C108.71 5.49609 108.448 5.43359 108.147 5.43359C107.851 5.43359 107.589 5.49609 107.362 5.62109C107.14 5.74609 106.952 5.91797 106.8 6.13672C106.651 6.35156 106.54 6.59961 106.466 6.88086C106.392 7.1582 106.354 7.45312 106.354 7.76562ZM116.093 9.31836C116.093 9.16211 116.058 9.01758 115.987 8.88477C115.921 8.74805 115.782 8.625 115.571 8.51562C115.364 8.40234 115.052 8.30469 114.634 8.22266C114.282 8.14844 113.964 8.06055 113.679 7.95898C113.397 7.85742 113.157 7.73438 112.958 7.58984C112.763 7.44531 112.612 7.27539 112.507 7.08008C112.401 6.88477 112.349 6.65625 112.349 6.39453C112.349 6.14453 112.403 5.9082 112.513 5.68555C112.626 5.46289 112.784 5.26562 112.987 5.09375C113.194 4.92188 113.442 4.78711 113.731 4.68945C114.021 4.5918 114.343 4.54297 114.698 4.54297C115.206 4.54297 115.64 4.63281 115.999 4.8125C116.358 4.99219 116.634 5.23242 116.825 5.5332C117.017 5.83008 117.112 6.16016 117.112 6.52344H116.028C116.028 6.34766 115.976 6.17773 115.87 6.01367C115.769 5.8457 115.618 5.70703 115.419 5.59766C115.224 5.48828 114.983 5.43359 114.698 5.43359C114.397 5.43359 114.153 5.48047 113.966 5.57422C113.782 5.66406 113.647 5.7793 113.562 5.91992C113.479 6.06055 113.438 6.20898 113.438 6.36523C113.438 6.48242 113.458 6.58789 113.497 6.68164C113.54 6.77148 113.614 6.85547 113.72 6.93359C113.825 7.00781 113.974 7.07812 114.165 7.14453C114.356 7.21094 114.601 7.27734 114.897 7.34375C115.417 7.46094 115.845 7.60156 116.181 7.76562C116.517 7.92969 116.767 8.13086 116.931 8.36914C117.095 8.60742 117.177 8.89648 117.177 9.23633C117.177 9.51367 117.118 9.76758 117.001 9.99805C116.888 10.2285 116.722 10.4277 116.503 10.5957C116.288 10.7598 116.03 10.8887 115.729 10.9824C115.433 11.0723 115.099 11.1172 114.728 11.1172C114.169 11.1172 113.696 11.0176 113.31 10.8184C112.923 10.6191 112.63 10.3613 112.431 10.0449C112.231 9.72852 112.132 9.39453 112.132 9.04297H113.222C113.237 9.33984 113.323 9.57617 113.479 9.75195C113.636 9.92383 113.827 10.0469 114.054 10.1211C114.28 10.1914 114.505 10.2266 114.728 10.2266C115.024 10.2266 115.272 10.1875 115.472 10.1094C115.675 10.0312 115.829 9.92383 115.935 9.78711C116.04 9.65039 116.093 9.49414 116.093 9.31836ZM119.585 9.71094V10.584C119.585 10.9395 119.495 11.3145 119.315 11.709C119.136 12.1074 118.884 12.4395 118.56 12.7051L117.944 12.2773C118.069 12.1055 118.175 11.9297 118.261 11.75C118.347 11.5742 118.411 11.3906 118.454 11.1992C118.501 11.0117 118.524 10.8125 118.524 10.6016V9.71094H119.585ZM129.417 10.1094V11H123.833V10.2207L126.628 7.10938C126.972 6.72656 127.237 6.40234 127.425 6.13672C127.616 5.86719 127.749 5.62695 127.823 5.41602C127.901 5.20117 127.94 4.98242 127.94 4.75977C127.94 4.47852 127.882 4.22461 127.765 3.99805C127.651 3.76758 127.483 3.58398 127.261 3.44727C127.038 3.31055 126.769 3.24219 126.452 3.24219C126.073 3.24219 125.757 3.31641 125.503 3.46484C125.253 3.60938 125.065 3.8125 124.94 4.07422C124.815 4.33594 124.753 4.63672 124.753 4.97656H123.669C123.669 4.49609 123.774 4.05664 123.985 3.6582C124.196 3.25977 124.509 2.94336 124.923 2.70898C125.337 2.4707 125.847 2.35156 126.452 2.35156C126.991 2.35156 127.452 2.44727 127.835 2.63867C128.218 2.82617 128.511 3.0918 128.714 3.43555C128.921 3.77539 129.024 4.17383 129.024 4.63086C129.024 4.88086 128.981 5.13477 128.896 5.39258C128.813 5.64648 128.698 5.90039 128.55 6.1543C128.405 6.4082 128.235 6.6582 128.04 6.9043C127.849 7.15039 127.644 7.39258 127.425 7.63086L125.14 10.1094H129.417ZM135.933 6.05469V7.35547C135.933 8.05469 135.87 8.64453 135.745 9.125C135.62 9.60547 135.44 9.99219 135.206 10.2852C134.972 10.5781 134.688 10.791 134.356 10.9238C134.028 11.0527 133.657 11.1172 133.243 11.1172C132.915 11.1172 132.612 11.0762 132.335 10.9941C132.058 10.9121 131.808 10.7812 131.585 10.6016C131.366 10.418 131.179 10.1797 131.022 9.88672C130.866 9.59375 130.747 9.23828 130.665 8.82031C130.583 8.40234 130.542 7.91406 130.542 7.35547V6.05469C130.542 5.35547 130.604 4.76953 130.729 4.29688C130.858 3.82422 131.04 3.44531 131.274 3.16016C131.509 2.87109 131.79 2.66406 132.118 2.53906C132.45 2.41406 132.821 2.35156 133.231 2.35156C133.563 2.35156 133.868 2.39258 134.146 2.47461C134.427 2.55273 134.677 2.67969 134.896 2.85547C135.114 3.02734 135.3 3.25781 135.452 3.54688C135.608 3.83203 135.728 4.18164 135.81 4.5957C135.892 5.00977 135.933 5.49609 135.933 6.05469ZM134.843 7.53125V5.87305C134.843 5.49023 134.819 5.1543 134.772 4.86523C134.729 4.57227 134.665 4.32227 134.579 4.11523C134.493 3.9082 134.384 3.74023 134.251 3.61133C134.122 3.48242 133.972 3.38867 133.8 3.33008C133.632 3.26758 133.442 3.23633 133.231 3.23633C132.974 3.23633 132.745 3.28516 132.546 3.38281C132.347 3.47656 132.179 3.62695 132.042 3.83398C131.909 4.04102 131.808 4.3125 131.737 4.64844C131.667 4.98438 131.632 5.39258 131.632 5.87305V7.53125C131.632 7.91406 131.653 8.25195 131.696 8.54492C131.743 8.83789 131.812 9.0918 131.901 9.30664C131.991 9.51758 132.101 9.69141 132.229 9.82812C132.358 9.96484 132.507 10.0664 132.675 10.1328C132.847 10.1953 133.036 10.2266 133.243 10.2266C133.509 10.2266 133.741 10.1758 133.94 10.0742C134.14 9.97266 134.306 9.81445 134.438 9.59961C134.575 9.38086 134.677 9.10156 134.743 8.76172C134.81 8.41797 134.843 8.00781 134.843 7.53125ZM138.909 6.20117H139.683C140.062 6.20117 140.374 6.13867 140.62 6.01367C140.87 5.88477 141.056 5.71094 141.177 5.49219C141.302 5.26953 141.364 5.01953 141.364 4.74219C141.364 4.41406 141.31 4.13867 141.2 3.91602C141.091 3.69336 140.927 3.52539 140.708 3.41211C140.489 3.29883 140.212 3.24219 139.876 3.24219C139.571 3.24219 139.302 3.30273 139.067 3.42383C138.837 3.54102 138.655 3.70898 138.522 3.92773C138.394 4.14648 138.329 4.4043 138.329 4.70117H137.245C137.245 4.26758 137.354 3.87305 137.573 3.51758C137.792 3.16211 138.099 2.87891 138.493 2.66797C138.892 2.45703 139.353 2.35156 139.876 2.35156C140.392 2.35156 140.843 2.44336 141.229 2.62695C141.616 2.80664 141.917 3.07617 142.132 3.43555C142.347 3.79102 142.454 4.23438 142.454 4.76562C142.454 4.98047 142.403 5.21094 142.302 5.45703C142.204 5.69922 142.05 5.92578 141.839 6.13672C141.632 6.34766 141.362 6.52148 141.03 6.6582C140.698 6.79102 140.3 6.85742 139.835 6.85742H138.909V6.20117ZM138.909 7.0918V6.44141H139.835C140.378 6.44141 140.827 6.50586 141.183 6.63477C141.538 6.76367 141.817 6.93555 142.021 7.15039C142.228 7.36523 142.372 7.60156 142.454 7.85938C142.54 8.11328 142.583 8.36719 142.583 8.62109C142.583 9.01953 142.515 9.37305 142.378 9.68164C142.245 9.99023 142.056 10.252 141.81 10.4668C141.567 10.6816 141.282 10.8438 140.954 10.9531C140.626 11.0625 140.269 11.1172 139.882 11.1172C139.511 11.1172 139.161 11.0645 138.833 10.959C138.509 10.8535 138.222 10.7012 137.972 10.502C137.722 10.2988 137.526 10.0508 137.386 9.75781C137.245 9.46094 137.175 9.12305 137.175 8.74414H138.259C138.259 9.04102 138.323 9.30078 138.452 9.52344C138.585 9.74609 138.772 9.91992 139.015 10.0449C139.261 10.166 139.55 10.2266 139.882 10.2266C140.214 10.2266 140.499 10.1699 140.737 10.0566C140.979 9.93945 141.165 9.76367 141.294 9.5293C141.427 9.29492 141.493 9 141.493 8.64453C141.493 8.28906 141.419 7.99805 141.271 7.77148C141.122 7.54102 140.911 7.37109 140.638 7.26172C140.368 7.14844 140.05 7.0918 139.683 7.0918H138.909ZM149.843 8.12891V9.01953H143.679V8.38086L147.499 2.46875H148.384L147.435 4.17969L144.909 8.12891H149.843ZM148.653 2.46875V11H147.569V2.46875H148.653ZM156.177 6.92773V7.81836H153.317V6.92773H156.177ZM163.958 8.50977V2.46875H165.083V8.50977C165.083 9.07227 164.968 9.54688 164.737 9.93359C164.507 10.3203 164.188 10.6152 163.782 10.8184C163.38 11.0176 162.917 11.1172 162.394 11.1172C161.87 11.1172 161.405 11.0273 160.999 10.8477C160.593 10.668 160.274 10.3945 160.044 10.0273C159.813 9.66016 159.698 9.19727 159.698 8.63867H160.829C160.829 8.99805 160.896 9.29297 161.028 9.52344C161.161 9.75391 161.345 9.92383 161.579 10.0332C161.817 10.1426 162.089 10.1973 162.394 10.1973C162.69 10.1973 162.956 10.1348 163.19 10.0098C163.429 9.88086 163.616 9.69141 163.753 9.44141C163.89 9.1875 163.958 8.87695 163.958 8.50977ZM170.573 9.91602V6.65234C170.573 6.40234 170.522 6.18555 170.421 6.00195C170.323 5.81445 170.175 5.66992 169.976 5.56836C169.776 5.4668 169.53 5.41602 169.237 5.41602C168.964 5.41602 168.724 5.46289 168.517 5.55664C168.313 5.65039 168.153 5.77344 168.036 5.92578C167.923 6.07812 167.866 6.24219 167.866 6.41797H166.782C166.782 6.19141 166.841 5.9668 166.958 5.74414C167.075 5.52148 167.243 5.32031 167.462 5.14062C167.685 4.95703 167.95 4.8125 168.259 4.70703C168.571 4.59766 168.919 4.54297 169.302 4.54297C169.763 4.54297 170.169 4.62109 170.521 4.77734C170.876 4.93359 171.153 5.16992 171.353 5.48633C171.556 5.79883 171.657 6.19141 171.657 6.66406V9.61719C171.657 9.82812 171.675 10.0527 171.71 10.291C171.749 10.5293 171.806 10.7344 171.88 10.9062V11H170.749C170.694 10.875 170.651 10.709 170.62 10.502C170.589 10.291 170.573 10.0957 170.573 9.91602ZM170.761 7.15625L170.772 7.91797H169.677C169.368 7.91797 169.093 7.94336 168.851 7.99414C168.608 8.04102 168.405 8.11328 168.241 8.21094C168.077 8.30859 167.952 8.43164 167.866 8.58008C167.78 8.72461 167.737 8.89453 167.737 9.08984C167.737 9.28906 167.782 9.4707 167.872 9.63477C167.962 9.79883 168.097 9.92969 168.276 10.0273C168.46 10.1211 168.685 10.168 168.95 10.168C169.282 10.168 169.575 10.0977 169.829 9.95703C170.083 9.81641 170.284 9.64453 170.433 9.44141C170.585 9.23828 170.667 9.04102 170.679 8.84961L171.142 9.37109C171.114 9.53516 171.04 9.7168 170.919 9.91602C170.798 10.1152 170.636 10.3066 170.433 10.4902C170.233 10.6699 169.995 10.8203 169.718 10.9414C169.444 11.0586 169.136 11.1172 168.792 11.1172C168.362 11.1172 167.985 11.0332 167.661 10.8652C167.341 10.6973 167.091 10.4727 166.911 10.1914C166.735 9.90625 166.647 9.58789 166.647 9.23633C166.647 8.89648 166.714 8.59766 166.847 8.33984C166.979 8.07812 167.171 7.86133 167.421 7.68945C167.671 7.51367 167.972 7.38086 168.323 7.29102C168.675 7.20117 169.067 7.15625 169.501 7.15625H170.761ZM174.446 5.65625V11H173.362V4.66016H174.417L174.446 5.65625ZM176.427 4.625L176.421 5.63281C176.331 5.61328 176.245 5.60156 176.163 5.59766C176.085 5.58984 175.995 5.58594 175.894 5.58594C175.644 5.58594 175.423 5.625 175.231 5.70312C175.04 5.78125 174.878 5.89062 174.745 6.03125C174.612 6.17188 174.507 6.33984 174.429 6.53516C174.354 6.72656 174.306 6.9375 174.282 7.16797L173.978 7.34375C173.978 6.96094 174.015 6.60156 174.089 6.26562C174.167 5.92969 174.286 5.63281 174.446 5.375C174.606 5.11328 174.81 4.91016 175.056 4.76562C175.306 4.61719 175.603 4.54297 175.946 4.54297C176.024 4.54297 176.114 4.55273 176.216 4.57227C176.317 4.58789 176.388 4.60547 176.427 4.625ZM181.308 9.76953V2H182.397V11H181.401L181.308 9.76953ZM177.042 7.90039V7.77734C177.042 7.29297 177.101 6.85352 177.218 6.45898C177.339 6.06055 177.509 5.71875 177.728 5.43359C177.95 5.14844 178.214 4.92969 178.519 4.77734C178.827 4.62109 179.171 4.54297 179.55 4.54297C179.948 4.54297 180.296 4.61328 180.593 4.75391C180.894 4.89062 181.147 5.0918 181.354 5.35742C181.565 5.61914 181.731 5.93555 181.853 6.30664C181.974 6.67773 182.058 7.09766 182.104 7.56641V8.10547C182.062 8.57031 181.978 8.98828 181.853 9.35938C181.731 9.73047 181.565 10.0469 181.354 10.3086C181.147 10.5703 180.894 10.7715 180.593 10.9121C180.292 11.0488 179.94 11.1172 179.538 11.1172C179.167 11.1172 178.827 11.0371 178.519 10.877C178.214 10.7168 177.95 10.4922 177.728 10.2031C177.509 9.91406 177.339 9.57422 177.218 9.18359C177.101 8.78906 177.042 8.36133 177.042 7.90039ZM178.132 7.77734V7.90039C178.132 8.2168 178.163 8.51367 178.226 8.79102C178.292 9.06836 178.394 9.3125 178.53 9.52344C178.667 9.73438 178.841 9.90039 179.052 10.0215C179.263 10.1387 179.515 10.1973 179.808 10.1973C180.167 10.1973 180.462 10.1211 180.692 9.96875C180.927 9.81641 181.114 9.61523 181.255 9.36523C181.396 9.11523 181.505 8.84375 181.583 8.55078V7.13867C181.536 6.92383 181.468 6.7168 181.378 6.51758C181.292 6.31445 181.179 6.13477 181.038 5.97852C180.901 5.81836 180.731 5.69141 180.528 5.59766C180.329 5.50391 180.093 5.45703 179.819 5.45703C179.522 5.45703 179.267 5.51953 179.052 5.64453C178.841 5.76562 178.667 5.93359 178.53 6.14844C178.394 6.35938 178.292 6.60547 178.226 6.88672C178.163 7.16406 178.132 7.46094 178.132 7.77734ZM185.263 4.66016V11H184.173V4.66016H185.263ZM184.091 2.97852C184.091 2.80273 184.144 2.6543 184.249 2.5332C184.358 2.41211 184.519 2.35156 184.729 2.35156C184.937 2.35156 185.095 2.41211 185.204 2.5332C185.317 2.6543 185.374 2.80273 185.374 2.97852C185.374 3.14648 185.317 3.29102 185.204 3.41211C185.095 3.5293 184.937 3.58789 184.729 3.58789C184.519 3.58789 184.358 3.5293 184.249 3.41211C184.144 3.29102 184.091 3.14648 184.091 2.97852ZM188.081 5.91992V11H186.991V4.66016H188.022L188.081 5.91992ZM187.858 7.58984L187.354 7.57227C187.358 7.13867 187.415 6.73828 187.524 6.37109C187.634 6 187.796 5.67773 188.011 5.4043C188.226 5.13086 188.493 4.91992 188.813 4.77148C189.134 4.61914 189.505 4.54297 189.927 4.54297C190.224 4.54297 190.497 4.58594 190.747 4.67188C190.997 4.75391 191.214 4.88477 191.397 5.06445C191.581 5.24414 191.724 5.47461 191.825 5.75586C191.927 6.03711 191.978 6.37695 191.978 6.77539V11H190.894V6.82812C190.894 6.49609 190.837 6.23047 190.724 6.03125C190.614 5.83203 190.458 5.6875 190.255 5.59766C190.052 5.50391 189.813 5.45703 189.54 5.45703C189.22 5.45703 188.952 5.51367 188.737 5.62695C188.522 5.74023 188.351 5.89648 188.222 6.0957C188.093 6.29492 187.999 6.52344 187.94 6.78125C187.886 7.03516 187.858 7.30469 187.858 7.58984ZM191.966 6.99219L191.239 7.21484C191.243 6.86719 191.3 6.5332 191.409 6.21289C191.522 5.89258 191.685 5.60742 191.896 5.35742C192.11 5.10742 192.374 4.91016 192.687 4.76562C192.999 4.61719 193.356 4.54297 193.759 4.54297C194.099 4.54297 194.399 4.58789 194.661 4.67773C194.927 4.76758 195.149 4.90625 195.329 5.09375C195.513 5.27734 195.651 5.51367 195.745 5.80273C195.839 6.0918 195.886 6.43555 195.886 6.83398V11H194.796V6.82227C194.796 6.4668 194.739 6.19141 194.626 5.99609C194.517 5.79688 194.36 5.6582 194.157 5.58008C193.958 5.49805 193.72 5.45703 193.442 5.45703C193.204 5.45703 192.993 5.49805 192.81 5.58008C192.626 5.66211 192.472 5.77539 192.347 5.91992C192.222 6.06055 192.126 6.22266 192.06 6.40625C191.997 6.58984 191.966 6.78516 191.966 6.99219ZM201.024 2.46875H202.12L204.915 9.42383L207.704 2.46875H208.806L205.337 11H204.481L201.024 2.46875ZM200.667 2.46875H201.634L201.792 7.67188V11H200.667V2.46875ZM208.19 2.46875H209.157V11H208.032V7.67188L208.19 2.46875ZM214.718 9.91602V6.65234C214.718 6.40234 214.667 6.18555 214.565 6.00195C214.468 5.81445 214.319 5.66992 214.12 5.56836C213.921 5.4668 213.675 5.41602 213.382 5.41602C213.108 5.41602 212.868 5.46289 212.661 5.55664C212.458 5.65039 212.298 5.77344 212.181 5.92578C212.067 6.07812 212.011 6.24219 212.011 6.41797H210.927C210.927 6.19141 210.985 5.9668 211.103 5.74414C211.22 5.52148 211.388 5.32031 211.606 5.14062C211.829 4.95703 212.095 4.8125 212.403 4.70703C212.716 4.59766 213.063 4.54297 213.446 4.54297C213.907 4.54297 214.313 4.62109 214.665 4.77734C215.021 4.93359 215.298 5.16992 215.497 5.48633C215.7 5.79883 215.802 6.19141 215.802 6.66406V9.61719C215.802 9.82812 215.819 10.0527 215.854 10.291C215.894 10.5293 215.95 10.7344 216.024 10.9062V11H214.894C214.839 10.875 214.796 10.709 214.765 10.502C214.733 10.291 214.718 10.0957 214.718 9.91602ZM214.905 7.15625L214.917 7.91797H213.821C213.513 7.91797 213.237 7.94336 212.995 7.99414C212.753 8.04102 212.55 8.11328 212.386 8.21094C212.222 8.30859 212.097 8.43164 212.011 8.58008C211.925 8.72461 211.882 8.89453 211.882 9.08984C211.882 9.28906 211.927 9.4707 212.017 9.63477C212.106 9.79883 212.241 9.92969 212.421 10.0273C212.604 10.1211 212.829 10.168 213.095 10.168C213.427 10.168 213.72 10.0977 213.974 9.95703C214.228 9.81641 214.429 9.64453 214.577 9.44141C214.729 9.23828 214.812 9.04102 214.823 8.84961L215.286 9.37109C215.259 9.53516 215.185 9.7168 215.063 9.91602C214.942 10.1152 214.78 10.3066 214.577 10.4902C214.378 10.6699 214.14 10.8203 213.862 10.9414C213.589 11.0586 213.28 11.1172 212.937 11.1172C212.507 11.1172 212.13 11.0332 211.806 10.8652C211.485 10.6973 211.235 10.4727 211.056 10.1914C210.88 9.90625 210.792 9.58789 210.792 9.23633C210.792 8.89648 210.858 8.59766 210.991 8.33984C211.124 8.07812 211.315 7.86133 211.565 7.68945C211.815 7.51367 212.116 7.38086 212.468 7.29102C212.819 7.20117 213.212 7.15625 213.646 7.15625H214.905ZM218.591 5.65625V11H217.507V4.66016H218.562L218.591 5.65625ZM220.571 4.625L220.565 5.63281C220.476 5.61328 220.39 5.60156 220.308 5.59766C220.229 5.58984 220.14 5.58594 220.038 5.58594C219.788 5.58594 219.567 5.625 219.376 5.70312C219.185 5.78125 219.022 5.89062 218.89 6.03125C218.757 6.17188 218.651 6.33984 218.573 6.53516C218.499 6.72656 218.45 6.9375 218.427 7.16797L218.122 7.34375C218.122 6.96094 218.159 6.60156 218.233 6.26562C218.312 5.92969 218.431 5.63281 218.591 5.375C218.751 5.11328 218.954 4.91016 219.2 4.76562C219.45 4.61719 219.747 4.54297 220.091 4.54297C220.169 4.54297 220.259 4.55273 220.36 4.57227C220.462 4.58789 220.532 4.60547 220.571 4.625ZM225.077 9.91602V6.65234C225.077 6.40234 225.026 6.18555 224.925 6.00195C224.827 5.81445 224.679 5.66992 224.479 5.56836C224.28 5.4668 224.034 5.41602 223.741 5.41602C223.468 5.41602 223.228 5.46289 223.021 5.55664C222.817 5.65039 222.657 5.77344 222.54 5.92578C222.427 6.07812 222.37 6.24219 222.37 6.41797H221.286C221.286 6.19141 221.345 5.9668 221.462 5.74414C221.579 5.52148 221.747 5.32031 221.966 5.14062C222.188 4.95703 222.454 4.8125 222.763 4.70703C223.075 4.59766 223.423 4.54297 223.806 4.54297C224.267 4.54297 224.673 4.62109 225.024 4.77734C225.38 4.93359 225.657 5.16992 225.856 5.48633C226.06 5.79883 226.161 6.19141 226.161 6.66406V9.61719C226.161 9.82812 226.179 10.0527 226.214 10.291C226.253 10.5293 226.31 10.7344 226.384 10.9062V11H225.253C225.198 10.875 225.155 10.709 225.124 10.502C225.093 10.291 225.077 10.0957 225.077 9.91602ZM225.265 7.15625L225.276 7.91797H224.181C223.872 7.91797 223.597 7.94336 223.354 7.99414C223.112 8.04102 222.909 8.11328 222.745 8.21094C222.581 8.30859 222.456 8.43164 222.37 8.58008C222.284 8.72461 222.241 8.89453 222.241 9.08984C222.241 9.28906 222.286 9.4707 222.376 9.63477C222.466 9.79883 222.601 9.92969 222.78 10.0273C222.964 10.1211 223.188 10.168 223.454 10.168C223.786 10.168 224.079 10.0977 224.333 9.95703C224.587 9.81641 224.788 9.64453 224.937 9.44141C225.089 9.23828 225.171 9.04102 225.183 8.84961L225.646 9.37109C225.618 9.53516 225.544 9.7168 225.423 9.91602C225.302 10.1152 225.14 10.3066 224.937 10.4902C224.737 10.6699 224.499 10.8203 224.222 10.9414C223.948 11.0586 223.64 11.1172 223.296 11.1172C222.866 11.1172 222.489 11.0332 222.165 10.8652C221.845 10.6973 221.595 10.4727 221.415 10.1914C221.239 9.90625 221.151 9.58789 221.151 9.23633C221.151 8.89648 221.218 8.59766 221.351 8.33984C221.483 8.07812 221.675 7.86133 221.925 7.68945C222.175 7.51367 222.476 7.38086 222.827 7.29102C223.179 7.20117 223.571 7.15625 224.005 7.15625H225.265ZM227.896 4.66016H228.985V11.7559C228.985 12.1426 228.923 12.4707 228.798 12.7402C228.677 13.0098 228.493 13.2129 228.247 13.3496C228.005 13.4902 227.698 13.5605 227.327 13.5605C227.229 13.5605 227.116 13.5508 226.987 13.5312C226.854 13.5117 226.743 13.4883 226.653 13.4609L226.659 12.5879C226.733 12.6035 226.817 12.6152 226.911 12.623C227.005 12.6348 227.087 12.6406 227.157 12.6406C227.317 12.6406 227.452 12.6113 227.562 12.5527C227.671 12.4941 227.753 12.4004 227.808 12.2715C227.866 12.1426 227.896 11.9707 227.896 11.7559V4.66016ZM227.784 2.97852C227.784 2.80273 227.839 2.6543 227.948 2.5332C228.058 2.41211 228.216 2.35156 228.423 2.35156C228.634 2.35156 228.794 2.41211 228.903 2.5332C229.013 2.6543 229.067 2.80273 229.067 2.97852C229.067 3.14648 229.013 3.29102 228.903 3.41211C228.794 3.5293 228.634 3.58789 228.423 3.58789C228.216 3.58789 228.058 3.5293 227.948 3.41211C227.839 3.29102 227.784 3.14648 227.784 2.97852ZM230.45 7.90039V7.76562C230.45 7.30859 230.517 6.88477 230.649 6.49414C230.782 6.09961 230.974 5.75781 231.224 5.46875C231.474 5.17578 231.776 4.94922 232.132 4.78906C232.487 4.625 232.886 4.54297 233.327 4.54297C233.772 4.54297 234.173 4.625 234.528 4.78906C234.888 4.94922 235.192 5.17578 235.442 5.46875C235.696 5.75781 235.89 6.09961 236.022 6.49414C236.155 6.88477 236.222 7.30859 236.222 7.76562V7.90039C236.222 8.35742 236.155 8.78125 236.022 9.17188C235.89 9.5625 235.696 9.9043 235.442 10.1973C235.192 10.4863 234.89 10.7129 234.534 10.877C234.183 11.0371 233.784 11.1172 233.339 11.1172C232.894 11.1172 232.493 11.0371 232.138 10.877C231.782 10.7129 231.478 10.4863 231.224 10.1973C230.974 9.9043 230.782 9.5625 230.649 9.17188C230.517 8.78125 230.45 8.35742 230.45 7.90039ZM231.534 7.76562V7.90039C231.534 8.2168 231.571 8.51562 231.646 8.79688C231.72 9.07422 231.831 9.32031 231.979 9.53516C232.132 9.75 232.321 9.91992 232.548 10.0449C232.774 10.166 233.038 10.2266 233.339 10.2266C233.636 10.2266 233.896 10.166 234.118 10.0449C234.345 9.91992 234.532 9.75 234.681 9.53516C234.829 9.32031 234.94 9.07422 235.015 8.79688C235.093 8.51562 235.132 8.2168 235.132 7.90039V7.76562C235.132 7.45312 235.093 7.1582 235.015 6.88086C234.94 6.59961 234.827 6.35156 234.675 6.13672C234.526 5.91797 234.339 5.74609 234.112 5.62109C233.89 5.49609 233.628 5.43359 233.327 5.43359C233.03 5.43359 232.769 5.49609 232.542 5.62109C232.319 5.74609 232.132 5.91797 231.979 6.13672C231.831 6.35156 231.72 6.59961 231.646 6.88086C231.571 7.1582 231.534 7.45312 231.534 7.76562ZM241.319 9.91602V6.65234C241.319 6.40234 241.269 6.18555 241.167 6.00195C241.069 5.81445 240.921 5.66992 240.722 5.56836C240.522 5.4668 240.276 5.41602 239.983 5.41602C239.71 5.41602 239.47 5.46289 239.263 5.55664C239.06 5.65039 238.899 5.77344 238.782 5.92578C238.669 6.07812 238.612 6.24219 238.612 6.41797H237.528C237.528 6.19141 237.587 5.9668 237.704 5.74414C237.821 5.52148 237.989 5.32031 238.208 5.14062C238.431 4.95703 238.696 4.8125 239.005 4.70703C239.317 4.59766 239.665 4.54297 240.048 4.54297C240.509 4.54297 240.915 4.62109 241.267 4.77734C241.622 4.93359 241.899 5.16992 242.099 5.48633C242.302 5.79883 242.403 6.19141 242.403 6.66406V9.61719C242.403 9.82812 242.421 10.0527 242.456 10.291C242.495 10.5293 242.552 10.7344 242.626 10.9062V11H241.495C241.44 10.875 241.397 10.709 241.366 10.502C241.335 10.291 241.319 10.0957 241.319 9.91602ZM241.507 7.15625L241.519 7.91797H240.423C240.114 7.91797 239.839 7.94336 239.597 7.99414C239.354 8.04102 239.151 8.11328 238.987 8.21094C238.823 8.30859 238.698 8.43164 238.612 8.58008C238.526 8.72461 238.483 8.89453 238.483 9.08984C238.483 9.28906 238.528 9.4707 238.618 9.63477C238.708 9.79883 238.843 9.92969 239.022 10.0273C239.206 10.1211 239.431 10.168 239.696 10.168C240.028 10.168 240.321 10.0977 240.575 9.95703C240.829 9.81641 241.03 9.64453 241.179 9.44141C241.331 9.23828 241.413 9.04102 241.425 8.84961L241.888 9.37109C241.86 9.53516 241.786 9.7168 241.665 9.91602C241.544 10.1152 241.382 10.3066 241.179 10.4902C240.979 10.6699 240.741 10.8203 240.464 10.9414C240.19 11.0586 239.882 11.1172 239.538 11.1172C239.108 11.1172 238.731 11.0332 238.407 10.8652C238.087 10.6973 237.837 10.4727 237.657 10.1914C237.481 9.90625 237.394 9.58789 237.394 9.23633C237.394 8.89648 237.46 8.59766 237.593 8.33984C237.726 8.07812 237.917 7.86133 238.167 7.68945C238.417 7.51367 238.718 7.38086 239.069 7.29102C239.421 7.20117 239.813 7.15625 240.247 7.15625H241.507ZM245.192 5.65625V11H244.108V4.66016H245.163L245.192 5.65625ZM247.173 4.625L247.167 5.63281C247.077 5.61328 246.991 5.60156 246.909 5.59766C246.831 5.58984 246.741 5.58594 246.64 5.58594C246.39 5.58594 246.169 5.625 245.978 5.70312C245.786 5.78125 245.624 5.89062 245.491 6.03125C245.358 6.17188 245.253 6.33984 245.175 6.53516C245.101 6.72656 245.052 6.9375 245.028 7.16797L244.724 7.34375C244.724 6.96094 244.761 6.60156 244.835 6.26562C244.913 5.92969 245.032 5.63281 245.192 5.375C245.353 5.11328 245.556 4.91016 245.802 4.76562C246.052 4.61719 246.349 4.54297 246.692 4.54297C246.771 4.54297 246.86 4.55273 246.962 4.57227C247.063 4.58789 247.134 4.60547 247.173 4.625ZM251.679 9.91602V6.65234C251.679 6.40234 251.628 6.18555 251.526 6.00195C251.429 5.81445 251.28 5.66992 251.081 5.56836C250.882 5.4668 250.636 5.41602 250.343 5.41602C250.069 5.41602 249.829 5.46289 249.622 5.55664C249.419 5.65039 249.259 5.77344 249.142 5.92578C249.028 6.07812 248.972 6.24219 248.972 6.41797H247.888C247.888 6.19141 247.946 5.9668 248.063 5.74414C248.181 5.52148 248.349 5.32031 248.567 5.14062C248.79 4.95703 249.056 4.8125 249.364 4.70703C249.677 4.59766 250.024 4.54297 250.407 4.54297C250.868 4.54297 251.274 4.62109 251.626 4.77734C251.981 4.93359 252.259 5.16992 252.458 5.48633C252.661 5.79883 252.763 6.19141 252.763 6.66406V9.61719C252.763 9.82812 252.78 10.0527 252.815 10.291C252.854 10.5293 252.911 10.7344 252.985 10.9062V11H251.854C251.8 10.875 251.757 10.709 251.726 10.502C251.694 10.291 251.679 10.0957 251.679 9.91602ZM251.866 7.15625L251.878 7.91797H250.782C250.474 7.91797 250.198 7.94336 249.956 7.99414C249.714 8.04102 249.511 8.11328 249.347 8.21094C249.183 8.30859 249.058 8.43164 248.972 8.58008C248.886 8.72461 248.843 8.89453 248.843 9.08984C248.843 9.28906 248.888 9.4707 248.978 9.63477C249.067 9.79883 249.202 9.92969 249.382 10.0273C249.565 10.1211 249.79 10.168 250.056 10.168C250.388 10.168 250.681 10.0977 250.935 9.95703C251.188 9.81641 251.39 9.64453 251.538 9.44141C251.69 9.23828 251.772 9.04102 251.784 8.84961L252.247 9.37109C252.22 9.53516 252.146 9.7168 252.024 9.91602C251.903 10.1152 251.741 10.3066 251.538 10.4902C251.339 10.6699 251.101 10.8203 250.823 10.9414C250.55 11.0586 250.241 11.1172 249.897 11.1172C249.468 11.1172 249.091 11.0332 248.767 10.8652C248.446 10.6973 248.196 10.4727 248.017 10.1914C247.841 9.90625 247.753 9.58789 247.753 9.23633C247.753 8.89648 247.819 8.59766 247.952 8.33984C248.085 8.07812 248.276 7.86133 248.526 7.68945C248.776 7.51367 249.077 7.38086 249.429 7.29102C249.78 7.20117 250.173 7.15625 250.606 7.15625H251.866Z" fill="#424242"/>
<mask id="mask0_34_89" style="mask-type:alpha" maskUnits="userSpaceOnUse" x="0" y="1" width="14" height="12">
<rect x="0.642578" y="1" width="12.8399" height="12" fill="#424242"/>
</mask>
<g mask="url(#mask0_34_89)">
<path d="M7.0625 12C6.11735 12 5.34606 11.8604 4.74865 11.5813C4.15124 11.3021 3.85254 10.9417 3.85254 10.5C3.85254 10.2083 3.98183 9.95417 4.24041 9.7375C4.49899 9.52083 4.85565 9.35 5.3104 9.225L5.61802 10.175C5.46644 10.2167 5.32823 10.2688 5.2034 10.3313C5.07857 10.3938 4.99386 10.45 4.94928 10.5C5.06519 10.6333 5.33269 10.75 5.75177 10.85C6.17085 10.95 6.60776 11 7.0625 11C7.51725 11 7.95639 10.95 8.37993 10.85C8.80346 10.75 9.07319 10.6333 9.18911 10.5C9.14452 10.45 9.05982 10.3938 8.93498 10.3313C8.81015 10.2688 8.67195 10.2167 8.52036 10.175L8.82799 9.225C9.28273 9.35 9.63716 9.52083 9.89129 9.7375C10.1454 9.95417 10.2725 10.2083 10.2725 10.5C10.2725 10.9417 9.97376 11.3021 9.37635 11.5813C8.77894 11.8604 8.00766 12 7.0625 12ZM7.0625 8.6625C7.223 8.3875 7.39242 8.13542 7.57075 7.90625C7.74908 7.67708 7.92295 7.45833 8.09237 7.25C8.42228 6.85 8.68532 6.48958 8.88148 6.16875C9.07765 5.84792 9.17573 5.45 9.17573 4.975C9.17573 4.425 8.97065 3.95833 8.56049 3.575C8.15033 3.19167 7.651 3 7.0625 3C6.47401 3 5.97468 3.19167 5.56452 3.575C5.15436 3.95833 4.94928 4.425 4.94928 4.975C4.94928 5.45 5.04736 5.84792 5.24352 6.16875C5.43969 6.48958 5.70273 6.85 6.03264 7.25C6.20206 7.45833 6.37593 7.67708 6.55426 7.90625C6.73259 8.13542 6.90201 8.3875 7.0625 8.6625ZM7.0625 10.5C6.96442 10.5 6.87526 10.4729 6.79501 10.4187C6.71476 10.3646 6.6568 10.2917 6.62113 10.2C6.41605 9.60833 6.15747 9.1125 5.84539 8.7125C5.53331 8.3125 5.23015 7.92917 4.9359 7.5625C4.65057 7.19583 4.40314 6.81667 4.1936 6.425C3.98406 6.03333 3.87929 5.55 3.87929 4.975C3.87929 4.14167 4.18691 3.4375 4.80215 2.8625C5.4174 2.2875 6.17085 2 7.0625 2C7.95416 2 8.70761 2.2875 9.32285 2.8625C9.9381 3.4375 10.2457 4.14167 10.2457 4.975C10.2457 5.55 10.1432 6.03333 9.9381 6.425C9.73302 6.81667 9.48335 7.19583 9.18911 7.5625C8.90378 7.92917 8.60284 8.3125 8.2863 8.7125C7.96977 9.1125 7.70896 9.60833 7.50387 10.2C7.46821 10.2917 7.41025 10.3646 7.33 10.4187C7.24975 10.4729 7.16059 10.5 7.0625 10.5ZM7.0625 6.0375C7.37458 6.0375 7.64208 5.93333 7.865 5.725C8.08791 5.51667 8.19937 5.26667 8.19937 4.975C8.19937 4.68333 8.08791 4.43333 7.865 4.225C7.64208 4.01667 7.37458 3.9125 7.0625 3.9125C6.75042 3.9125 6.48293 4.01667 6.26001 4.225C6.0371 4.43333 5.92564 4.68333 5.92564 4.975C5.92564 5.26667 6.0371 5.51667 6.26001 5.725C6.48293 5.93333 6.75042 6.0375 7.0625 6.0375Z" fill="#424242"/>
</g>
</svg>
