<svg width="42" height="42" viewBox="0 0 42 42" fill="none" xmlns="http://www.w3.org/2000/svg">
<mask id="mask0_122_472" style="mask-type:alpha" maskUnits="userSpaceOnUse" x="0" y="0" width="42" height="42">
<rect width="42" height="42" fill="#562BD6"/>
</mask>
<g mask="url(#mask0_122_472)">
<path d="M8.75 36.75C7.7875 36.75 6.96354 36.4073 6.27813 35.7219C5.59271 35.0365 5.25 34.2125 5.25 33.25V8.75C5.25 7.7875 5.59271 6.96354 6.27813 6.27813C6.96354 5.59271 7.7875 5.25 8.75 5.25H16.1C16.5083 4.2 17.15 3.35417 18.025 2.7125C18.9 2.07083 19.8917 1.75 21 1.75C22.1083 1.75 23.1 2.07083 23.975 2.7125C24.85 3.35417 25.4917 4.2 25.9 5.25H33.25C34.2125 5.25 35.0365 5.59271 35.7219 6.27813C36.4073 6.96354 36.75 7.7875 36.75 8.75V33.25C36.75 34.2125 36.4073 35.0365 35.7219 35.7219C35.0365 36.4073 34.2125 36.75 33.25 36.75H8.75ZM21 7.4375C21.3792 7.4375 21.6927 7.31354 21.9406 7.06563C22.1885 6.81771 22.3125 6.50417 22.3125 6.125C22.3125 5.74583 22.1885 5.43229 21.9406 5.18438C21.6927 4.93646 21.3792 4.8125 21 4.8125C20.6208 4.8125 20.3073 4.93646 20.0594 5.18438C19.8115 5.43229 19.6875 5.74583 19.6875 6.125C19.6875 6.50417 19.8115 6.81771 20.0594 7.06563C20.3073 7.31354 20.6208 7.4375 21 7.4375ZM8.75 31.2375C10.325 29.6917 12.1552 28.474 14.2406 27.5844C16.326 26.6948 18.5792 26.25 21 26.25C23.4208 26.25 25.674 26.6948 27.7594 27.5844C29.8448 28.474 31.675 29.6917 33.25 31.2375V8.75H8.75V31.2375ZM21 22.75C22.6917 22.75 24.1354 22.1521 25.3313 20.9563C26.5271 19.7604 27.125 18.3167 27.125 16.625C27.125 14.9333 26.5271 13.4896 25.3313 12.2937C24.1354 11.0979 22.6917 10.5 21 10.5C19.3083 10.5 17.8646 11.0979 16.6687 12.2937C15.4729 13.4896 14.875 14.9333 14.875 16.625C14.875 18.3167 15.4729 19.7604 16.6687 20.9563C17.8646 22.1521 19.3083 22.75 21 22.75ZM12.25 33.25H29.75V32.8125C28.525 31.7917 27.1688 31.026 25.6812 30.5156C24.1938 30.0052 22.6333 29.75 21 29.75C19.3667 29.75 17.8063 30.0052 16.3188 30.5156C14.8313 31.026 13.475 31.7917 12.25 32.8125V33.25ZM21 19.25C20.2708 19.25 19.651 18.9948 19.1406 18.4844C18.6302 17.974 18.375 17.3542 18.375 16.625C18.375 15.8958 18.6302 15.276 19.1406 14.7656C19.651 14.2552 20.2708 14 21 14C21.7292 14 22.349 14.2552 22.8594 14.7656C23.3698 15.276 23.625 15.8958 23.625 16.625C23.625 17.3542 23.3698 17.974 22.8594 18.4844C22.349 18.9948 21.7292 19.25 21 19.25Z" fill="#562BD6"/>
</g>
</svg>
