<svg width="1921" height="1257" viewBox="0 0 1921 1257" fill="none" xmlns="http://www.w3.org/2000/svg">
<rect width="1921" height="1257" fill="#AB8AEF"/>
<path d="M55.6824 379.412C40.2151 372.426 29.7127 361.465 24.1751 346.531C18.6375 331.596 19.6469 316.955 27.2033 302.607C30.7296 295.911 35.7318 290.533 42.2099 286.473C48.688 282.413 58.9876 278.125 73.1087 273.61C74.9506 273.021 76.7661 272.361 78.5553 271.63C80.3444 270.899 82.7212 269.9 85.6855 268.634C83.0264 248.961 83.1683 229.665 86.1113 210.747C89.0542 191.828 94.6062 174.62 102.767 159.124C108.611 148.028 115.26 140.493 122.714 136.519C130.168 132.544 137.813 132.327 145.65 135.867C157.405 141.177 165.152 151.189 168.891 165.903C172.63 180.617 174.554 193.445 174.663 204.388C174.504 209.052 174.165 213.695 173.646 218.315C173.127 222.936 172.379 227.63 171.399 232.398C174.853 228.748 178.386 225.311 181.998 222.088C185.611 218.865 189.455 215.806 193.533 212.911C202.704 206.16 214.701 199.62 229.523 193.29C244.344 186.96 257.633 186.449 269.388 191.759C277.224 195.299 281.747 201.012 282.954 208.899C284.162 216.786 281.844 226.278 276 237.373C267.839 252.87 256.616 267.515 242.33 281.311C228.045 295.106 211.714 307.089 193.337 317.261C194.085 320.203 194.699 322.553 195.178 324.309C195.658 326.064 196.214 327.796 196.847 329.503C201.699 342.588 204.391 352.744 204.925 359.971C205.459 367.199 203.963 374.16 200.436 380.856C192.88 395.204 181.043 404.955 164.927 410.108C148.81 415.262 133.019 414.345 117.551 407.358C108.271 403.166 101.299 398.833 96.6351 394.358L89.6394 387.646L79.6211 386.673C72.9423 386.024 64.9627 383.604 55.6824 379.412ZM67.7726 356.455C72.5158 358.598 77.5362 360.214 82.8336 361.304C88.131 362.395 93.3962 362.819 98.629 362.578C96.8643 360.597 95.6584 358.039 95.0113 354.905C94.3643 351.771 94.4941 349.343 95.4009 347.621C96.2069 346.09 98.098 345.287 101.074 345.21C104.05 345.134 107.291 345.887 110.797 347.471C114.303 349.054 116.94 350.956 118.707 353.175C120.474 355.394 120.954 357.269 120.148 358.799C119.242 360.521 117.256 362.111 114.191 363.568C111.126 365.025 108.207 365.72 105.435 365.652C108.451 369.619 112.054 373.2 116.243 376.395C120.432 379.59 124.898 382.259 129.641 384.401C138.303 388.314 147.085 388.847 155.988 386C164.89 383.153 171.457 377.713 175.689 369.678C177.502 366.234 178.234 362.42 177.885 358.237C177.535 354.053 176.155 349.403 173.743 344.288C172.065 340.688 170.751 337.608 169.801 335.048C168.852 332.488 167.575 327.885 165.969 321.239C163.514 311.841 160.857 305.253 157.997 301.475C155.136 297.696 149.478 293.897 141.023 290.078C132.567 286.258 125.8 284.445 120.721 284.637C115.641 284.829 108.451 286.969 99.1504 291.057C92.507 293.977 87.8039 295.878 85.041 296.762C82.2782 297.645 78.8487 298.582 74.7524 299.574C68.9151 300.963 64.1088 302.818 60.3338 305.139C56.5587 307.46 53.7644 310.342 51.9509 313.785C47.7193 321.82 47.1329 329.963 50.1918 338.212C53.2507 346.462 59.1109 352.543 67.7726 356.455ZM99.7929 324.739C98.1431 323.993 97.1529 322.481 96.8222 320.2C96.4916 317.919 96.9308 315.631 98.1399 313.335C99.3489 311.039 101.025 309.31 103.17 308.147C105.314 306.984 107.211 306.776 108.861 307.521C110.51 308.266 111.501 309.779 111.831 312.06C112.162 314.34 111.723 316.629 110.514 318.924C109.305 321.22 107.628 322.949 105.484 324.112C103.34 325.275 101.443 325.484 99.7929 324.739ZM136.914 341.506C135.264 340.761 134.274 339.248 133.944 336.967C133.613 334.687 134.052 332.399 135.261 330.103C136.47 327.807 138.147 326.078 140.291 324.915C142.435 323.752 144.332 323.543 145.982 324.288C147.632 325.034 148.622 326.547 148.953 328.827C149.283 331.108 148.844 333.396 147.635 335.692C146.426 337.988 144.749 339.717 142.605 340.88C140.461 342.043 138.564 342.252 136.914 341.506ZM112.235 259.668C115.309 259.162 118.592 258.987 122.084 259.144C125.576 259.3 129.326 259.692 133.336 260.319C137.76 250.95 141.075 241.139 143.283 230.888C145.491 220.636 146.601 210.895 146.611 201.663C146.723 192.241 145.793 183.828 143.82 176.425C141.848 169.021 138.893 163.483 134.955 159.81C133.938 160.771 132.797 162.091 131.53 163.769C130.264 165.446 128.925 167.624 127.515 170.303C120.663 183.312 115.929 197.514 113.31 212.908C110.691 228.303 110.333 243.889 112.235 259.668ZM184.621 292.365C199.218 284.039 212.259 274.181 223.746 262.792C235.232 251.403 244.401 239.204 251.252 226.195C252.663 223.517 253.692 221.199 254.34 219.242C254.988 217.285 255.408 215.639 255.6 214.305C250.05 213.693 243.519 214.946 236.005 218.064C228.491 221.183 220.76 225.683 212.811 231.566C205.17 237.35 197.667 244.204 190.304 252.127C182.94 260.049 176.531 268.462 171.076 277.366C173.767 279.528 176.228 281.884 178.46 284.431C180.693 286.979 182.746 289.623 184.621 292.365Z" fill="#A87CFF"/>
<mask id="mask0_468_299" style="mask-type:alpha" maskUnits="userSpaceOnUse" x="1286" y="818" width="282" height="261">
<rect x="2.39892" y="6.43047" width="199.298" height="189.031" transform="matrix(0.921304 0.388843 -0.44152 0.897251 1377.57 818.456)" fill="#D9D9D9" stroke="#A87CFF" stroke-width="10"/>
</mask>
<g mask="url(#mask0_468_299)">
<path d="M1407.31 940.757L1407.39 940.725L1407.47 940.689C1411.48 938.94 1415.64 937.86 1419.99 937.445C1424.02 937.06 1427.89 937.646 1431.68 939.244C1435.52 940.863 1438.59 943.161 1440.98 946.144C1443.52 949.304 1445.38 952.827 1446.57 956.741L1446.58 956.78L1446.59 956.818C1448.29 962.069 1449.44 967.436 1450.02 972.924C1450.68 979.078 1452.03 985.121 1454.07 991.048L1454.08 991.066L1454.09 991.085C1456.45 997.766 1458.82 1004.52 1461.19 1011.36C1463.17 1017.07 1462.82 1022.41 1460.24 1027.65C1457.93 1032.35 1454.38 1035.63 1449.39 1037.69C1444.53 1039.7 1439.9 1039.71 1435.14 1037.7C1428.16 1034.76 1421.5 1031.3 1415.18 1027.33C1408.41 1023.07 1401.28 1019.37 1393.81 1016.21C1386.33 1013.06 1378.64 1010.51 1370.73 1008.56C1363.35 1006.75 1356.16 1004.37 1349.17 1001.42C1344.42 999.414 1341.39 996.172 1339.84 991.458C1338.24 986.617 1338.59 981.979 1340.9 977.286C1343.48 972.041 1347.6 968.292 1353.56 965.93C1360.67 963.106 1367.73 960.33 1374.72 957.601C1380.85 955.257 1386.61 952.305 1391.98 948.744C1396.7 945.617 1401.81 942.954 1407.31 940.757ZM1368.52 919.721C1364.01 917.819 1361.1 914.902 1359.48 910.882C1357.86 906.877 1358.03 903.049 1359.98 899.072C1361.94 895.095 1364.95 892.467 1369.27 890.969C1373.61 889.466 1377.9 889.587 1382.41 891.489C1386.92 893.391 1389.83 896.308 1391.45 900.328C1393.07 904.333 1392.9 908.161 1390.94 912.138C1388.98 916.115 1385.97 918.743 1381.65 920.241C1377.31 921.743 1373.02 921.623 1368.52 919.721ZM1419.32 905.217C1414.81 903.315 1411.9 900.398 1410.28 896.378C1408.66 892.373 1408.83 888.545 1410.78 884.568C1412.74 880.591 1415.75 877.963 1420.08 876.465C1424.42 874.962 1428.7 875.083 1433.21 876.985C1437.72 878.887 1440.63 881.804 1442.25 885.824C1443.87 889.829 1443.7 893.657 1441.74 897.634C1439.79 901.611 1436.78 904.239 1432.45 905.737C1428.11 907.24 1423.82 907.119 1419.32 905.217ZM1467.52 925.563C1463.02 923.661 1460.11 920.744 1458.48 916.724C1456.87 912.719 1457.03 908.891 1458.99 904.914C1460.95 900.937 1463.96 898.309 1468.28 896.811C1472.62 895.308 1476.91 895.429 1481.42 897.331C1485.92 899.233 1488.83 902.15 1490.46 906.17C1492.07 910.175 1491.91 914.003 1489.95 917.98C1487.99 921.957 1484.98 924.585 1480.66 926.083C1476.32 927.586 1472.03 927.465 1467.52 925.563ZM1489.03 970.586C1484.53 968.684 1481.62 965.767 1479.99 961.747C1478.38 957.742 1478.54 953.914 1480.5 949.937C1482.46 945.96 1485.47 943.332 1489.79 941.834C1494.13 940.331 1498.42 940.452 1502.93 942.354C1507.43 944.256 1510.34 947.173 1511.97 951.193C1513.58 955.198 1513.42 959.026 1511.46 963.003C1509.5 966.98 1506.49 969.608 1502.17 971.106C1497.83 972.609 1493.54 972.488 1489.03 970.586Z" stroke="#A87CFF" stroke-width="10"/>
</g>
<mask id="mask1_468_299" style="mask-type:alpha" maskUnits="userSpaceOnUse" x="628" y="997" width="282" height="260">
<rect x="2.39892" y="6.43047" width="199.298" height="189.031" transform="matrix(0.921304 0.388843 -0.44152 0.897251 719.817 996.763)" fill="#D9D9D9" stroke="#A87CFF" stroke-width="10"/>
</mask>
<g mask="url(#mask1_468_299)">
<path d="M749.553 1119.06L749.635 1119.03L749.715 1119C753.719 1117.25 757.884 1116.17 762.236 1115.75C766.266 1115.37 770.137 1115.95 773.924 1117.55C777.761 1119.17 780.833 1121.47 783.227 1124.45C785.762 1127.61 787.621 1131.13 788.812 1135.05L788.824 1135.09L788.836 1135.13C790.536 1140.38 791.678 1145.74 792.266 1151.23C792.924 1157.38 794.277 1163.43 796.317 1169.35L796.324 1169.37L796.33 1169.39C798.695 1176.07 801.062 1182.83 803.433 1189.66C805.414 1195.38 805.062 1200.72 802.481 1205.96C800.172 1210.65 796.622 1213.94 791.631 1216C786.769 1218.01 782.138 1218.02 777.386 1216.01C770.399 1213.06 763.746 1209.6 757.424 1205.63C750.65 1201.38 743.525 1197.68 736.049 1194.52C728.574 1191.37 720.88 1188.81 712.97 1186.87C705.587 1185.06 698.404 1182.68 691.417 1179.73C686.665 1177.72 683.634 1174.48 682.079 1169.76C680.483 1164.92 680.834 1160.29 683.143 1155.59C685.724 1150.35 689.844 1146.6 695.798 1144.24C702.917 1141.41 709.971 1138.64 716.961 1135.91C723.096 1133.56 728.854 1130.61 734.227 1127.05C738.945 1123.92 744.051 1121.26 749.553 1119.06ZM710.758 1098.03C706.251 1096.13 703.341 1093.21 701.718 1089.19C700.101 1085.18 700.268 1081.36 702.225 1077.38C704.182 1073.4 707.192 1070.77 711.517 1069.28C715.857 1067.77 720.143 1067.89 724.65 1069.8C729.158 1071.7 732.068 1074.61 733.69 1078.63C735.307 1082.64 735.141 1086.47 733.184 1090.44C731.227 1094.42 728.216 1097.05 723.892 1098.55C719.552 1100.05 715.265 1099.93 710.758 1098.03ZM761.559 1083.52C757.052 1081.62 754.142 1078.7 752.519 1074.68C750.902 1070.68 751.069 1066.85 753.026 1062.87C754.983 1058.9 757.993 1056.27 762.318 1054.77C766.658 1053.27 770.944 1053.39 775.452 1055.29C779.959 1057.19 782.869 1060.11 784.492 1064.13C786.109 1068.14 785.942 1071.96 783.985 1075.94C782.028 1079.92 779.018 1082.55 774.693 1084.04C770.353 1085.55 766.066 1085.43 761.559 1083.52ZM809.766 1103.87C805.259 1101.97 802.349 1099.05 800.726 1095.03C799.109 1091.03 799.276 1087.2 801.232 1083.22C803.189 1079.24 806.2 1076.62 810.525 1075.12C814.865 1073.61 819.151 1073.74 823.658 1075.64C828.165 1077.54 831.076 1080.46 832.698 1084.48C834.315 1088.48 834.149 1092.31 832.192 1096.29C830.235 1100.26 827.224 1102.89 822.899 1104.39C818.559 1105.89 814.273 1105.77 809.766 1103.87ZM831.275 1148.89C826.768 1146.99 823.858 1144.07 822.235 1140.05C820.618 1136.05 820.785 1132.22 822.741 1128.24C824.698 1124.27 827.709 1121.64 832.034 1120.14C836.374 1118.64 840.66 1118.76 845.167 1120.66C849.674 1122.56 852.585 1125.48 854.207 1129.5C855.824 1133.5 855.658 1137.33 853.701 1141.31C851.744 1145.29 848.733 1147.91 844.408 1149.41C840.068 1150.92 835.782 1150.79 831.275 1148.89Z" stroke="#A87CFF" stroke-width="10"/>
</g>
<mask id="mask2_468_299" style="mask-type:alpha" maskUnits="userSpaceOnUse" x="910" y="0" width="350" height="324">
<rect width="267.991" height="253.146" transform="matrix(0.94223 0.334967 -0.382898 0.923791 1006.97 0)" fill="#A87CFF"/>
</mask>
<g mask="url(#mask2_468_299)">
<path d="M969.145 232.505L1009.03 136.284L1030.07 143.764L998.265 220.498L1071.91 246.68L1091.4 199.666L1129.62 183.906C1136.66 181.005 1142.79 177.129 1148.02 172.28C1153.25 167.431 1157.24 161.678 1160 155.019C1162.7 148.523 1163.81 141.838 1163.34 134.963C1162.87 128.088 1161.15 121.423 1158.19 114.968L1154.24 106.297L1108.02 125.358L1065.93 110.397L1050.28 116.851L1040.94 97.8792L1065.33 87.8232L1107.41 102.785L1165.65 78.7703L1178.94 106.413C1183.26 115.403 1185.65 124.684 1186.11 134.256C1186.57 143.829 1184.88 153.243 1181.05 162.5C1177.21 171.757 1171.66 179.8 1164.4 186.63C1157.15 193.459 1148.67 198.875 1138.96 202.878L1109.11 215.185L1084.88 273.649L969.145 232.505ZM1039.84 205.373L1006.13 135.255C1004.95 132.783 1004.33 130.142 1004.29 127.332C1004.25 124.522 1004.76 121.818 1005.84 119.219C1006.92 116.621 1008.47 114.331 1010.5 112.351C1012.53 110.37 1014.87 108.829 1017.54 107.729L1048.22 94.8774L1068.42 136.435C1071.44 142.728 1073.09 149.321 1073.35 156.215C1073.61 163.109 1072.39 169.803 1069.7 176.299C1067.01 182.795 1063.12 188.539 1058.03 193.532C1052.94 198.524 1046.88 202.471 1039.84 205.373Z" fill="#A87CFF"/>
</g>
<mask id="mask3_468_299" style="mask-type:alpha" maskUnits="userSpaceOnUse" x="1581" y="420" width="340" height="316">
<rect width="268.728" height="252.363" transform="matrix(0.959913 -0.280299 0.322286 0.946643 1581.71 496.193)" fill="#A87CFF"/>
</mask>
<g mask="url(#mask3_468_299)">
<path d="M1708.39 699.959L1674.93 601.662L1696.43 595.385L1723.11 673.774L1798.35 651.804L1782 603.776L1801.32 569.408C1804.87 563.079 1807.07 556.511 1807.9 549.701C1808.73 542.892 1807.99 536.086 1805.68 529.284C1803.42 522.648 1799.79 516.776 1794.8 511.666C1789.82 506.557 1783.99 502.329 1777.34 498.982L1768.42 494.474L1745.05 536.043L1702.06 548.597L1694.15 562.671L1674.09 553.208L1686.42 531.278L1729.41 518.724L1758.85 466.354L1787.83 480.325C1797.25 484.869 1805.36 490.755 1812.15 497.982C1818.95 505.209 1823.95 513.551 1827.17 523.007C1830.39 532.464 1831.46 541.956 1830.37 551.485C1829.28 561.014 1826.28 570.143 1821.38 578.871L1806.29 605.711L1826.62 665.435L1708.39 699.959ZM1745.49 637.966L1671.97 602.525C1669.38 601.276 1667.12 599.564 1665.2 597.389C1663.28 595.214 1661.87 592.8 1660.96 590.145C1660.06 587.491 1659.74 584.804 1659.99 582.085C1660.25 579.365 1661.05 576.805 1662.4 574.405L1677.77 546.662L1721.51 567.541C1728.11 570.722 1733.82 574.934 1738.66 580.179C1743.5 585.424 1747.05 591.364 1749.31 598C1751.57 604.636 1752.38 611.374 1751.76 618.214C1751.13 625.054 1749.04 631.638 1745.49 637.966Z" fill="#A87CFF"/>
</g>
<mask id="mask4_468_299" style="mask-type:alpha" maskUnits="userSpaceOnUse" x="19" y="709" width="401" height="371">
<rect width="274.441" height="271.531" transform="matrix(0.778941 -0.627098 0.68438 0.729125 19.8203 881.169)" fill="#A87CFF"/>
</mask>
<g mask="url(#mask4_468_299)">
<path d="M297.069 976.583C285.935 985.547 273.667 991.984 260.266 995.894C246.864 999.804 233.434 1001.32 219.975 1000.45C206.516 999.579 193.445 996.344 180.761 990.745C168.077 985.146 156.896 977.19 147.218 966.879C137.539 956.568 130.589 945.206 126.367 932.795C122.145 920.383 120.505 907.945 121.446 895.481C122.387 883.016 125.881 870.91 131.927 859.164C137.972 847.417 146.562 837.062 157.696 828.099C168.83 819.135 181.098 812.698 194.5 808.788C207.901 804.879 221.332 803.359 234.79 804.231C248.249 805.103 261.321 808.338 274.004 813.937C286.688 819.536 297.869 827.492 307.548 837.803C317.226 848.115 324.176 859.476 328.398 871.887C332.62 884.299 334.26 896.737 333.319 909.202C332.378 921.666 328.885 933.772 322.839 945.518C316.793 957.265 308.203 967.62 297.069 976.583ZM284.843 916.909L286.473 895.321L233.193 891.87L197.575 853.924L179.761 868.266L221.573 912.812L284.843 916.909ZM87.9143 860.381L111.224 861.891L106.276 927.426L82.966 925.916L87.9143 860.381ZM201.927 768.594L272.69 773.177L271.06 794.765L200.297 790.182L201.927 768.594ZM281.583 960.085C298.952 946.102 308.427 928.638 310.009 907.692C311.59 886.746 304.832 868.231 289.733 852.145C274.634 836.059 255.777 827.284 233.16 825.819C210.544 824.354 190.551 830.614 173.182 844.597C155.813 858.58 146.338 876.045 144.756 896.99C143.175 917.936 149.933 936.451 165.032 952.537C180.131 968.623 198.988 977.398 221.605 978.863C244.221 980.328 264.214 974.068 281.583 960.085Z" fill="#A87CFF"/>
</g>
<mask id="mask5_468_299" style="mask-type:alpha" maskUnits="userSpaceOnUse" x="1637" y="61" width="284" height="263">
<rect x="1637.36" y="61.1436" width="283.252" height="262.326" fill="#A87CFF"/>
</mask>
<g mask="url(#mask5_468_299)">
<path d="M1779.01 301.604C1764.26 301.604 1750.44 299.008 1737.55 293.817C1724.67 288.625 1713.46 281.611 1703.92 272.776C1694.38 263.941 1686.81 253.557 1681.2 241.625C1675.59 229.693 1672.79 216.895 1672.79 203.232C1672.79 189.569 1675.59 176.772 1681.2 164.84C1686.81 152.908 1694.38 142.524 1703.92 133.689C1713.46 124.853 1724.67 117.84 1737.55 112.648C1750.44 107.456 1764.26 104.86 1779.01 104.86C1793.76 104.86 1807.58 107.456 1820.46 112.648C1833.35 117.84 1844.56 124.853 1854.1 133.689C1863.64 142.524 1871.21 152.908 1876.82 164.84C1882.43 176.772 1885.23 189.569 1885.23 203.232C1885.23 216.895 1882.43 229.693 1876.82 241.625C1871.21 253.557 1863.64 263.941 1854.1 272.776C1844.56 281.611 1833.35 288.625 1820.46 293.817C1807.58 299.008 1793.76 301.604 1779.01 301.604ZM1812.06 249.139L1828.58 233.837L1790.81 198.86V148.581H1767.21L1767.21 207.604L1812.06 249.139ZM1703.48 86.8252L1720 102.128L1669.84 148.581L1653.32 133.279L1703.48 86.8252ZM1854.54 86.8252L1904.7 133.279L1888.18 148.581L1838.02 102.128L1854.54 86.8252ZM1779.01 279.744C1802.02 279.744 1821.55 272.32 1837.58 257.474C1853.61 242.627 1861.62 224.546 1861.62 203.232C1861.62 181.918 1853.61 163.838 1837.58 148.991C1821.55 134.144 1802.02 126.721 1779.01 126.721C1756 126.721 1736.47 134.144 1720.44 148.991C1704.41 163.838 1696.39 181.918 1696.39 203.232C1696.39 224.546 1704.41 242.627 1720.44 257.474C1736.47 272.32 1756 279.744 1779.01 279.744Z" fill="#A87CFF"/>
</g>
</svg>
