<svg width="25" height="25" viewBox="0 0 25 25" fill="none" xmlns="http://www.w3.org/2000/svg">
<path d="M12.5004 3.20265e-09C9.53218 -6.80007e-05 6.66078 1.08284 4.40005 3.05495C2.13933 5.02705 0.636819 7.75963 0.161405 10.7637C-0.314009 13.7678 0.268697 16.8473 1.80525 19.4511C3.3418 22.055 5.73192 24.0132 8.54788 24.9755C9.17289 25.0883 9.40664 24.7038 9.40664 24.3667C9.40664 24.063 9.39164 23.053 9.39164 21.9803C6.25036 22.5724 5.43785 21.1946 5.18785 20.4743C4.91053 19.773 4.47077 19.1514 3.90659 18.6634C3.46909 18.4237 2.84408 17.8303 3.89034 17.8149C4.29019 17.8593 4.67372 18.0019 5.00839 18.2305C5.34307 18.4592 5.61902 18.7673 5.81286 19.1286C5.98377 19.4435 6.21361 19.7207 6.48919 19.9443C6.76478 20.1679 7.0807 20.3336 7.41885 20.4319C7.757 20.5301 8.11073 20.5589 8.45977 20.5167C8.80881 20.4745 9.14629 20.3621 9.45289 20.186C9.50703 19.5341 9.79047 18.9246 10.2504 18.4711C7.46912 18.1507 4.56285 17.0459 4.56285 12.1436C4.54514 10.8696 5.00357 9.63699 5.84411 8.69855C5.46199 7.59148 5.5067 6.37657 5.96911 5.30218C5.96911 5.30218 7.01537 4.96639 9.40664 6.61587C11.452 6.03907 13.6113 6.03907 15.6567 6.61587C18.0467 4.94973 19.0942 5.30218 19.0942 5.30218C19.5568 6.37654 19.6015 7.5915 19.2192 8.69855C20.0623 9.63537 20.5211 10.8691 20.5005 12.1436C20.5005 17.0613 17.578 18.1507 14.7967 18.4711C15.095 18.7811 15.3248 19.1533 15.4704 19.5625C15.6159 19.9716 15.674 20.408 15.6404 20.8422C15.6404 22.557 15.6254 23.9348 15.6254 24.3667C15.6254 24.7038 15.8592 25.1037 16.4842 24.9755C19.295 24.0052 21.678 22.0423 23.2078 19.4372C24.7376 16.8321 25.3147 13.7543 24.836 10.7533C24.3573 7.75226 22.854 5.02333 20.5945 3.05363C18.335 1.08393 15.4662 0.00165341 12.5004 3.20265e-09Z" fill="white"/>
</svg>
