<svg width="36" height="35" viewBox="0 0 36 35" fill="none" xmlns="http://www.w3.org/2000/svg">
<path d="M18.0006 4.48372e-09C13.845 -9.5201e-05 9.82509 1.51598 6.66007 4.27692C3.49506 7.03787 1.39155 10.8635 0.725967 15.0692C0.0603875 19.2749 0.876176 23.5862 3.02735 27.2316C5.17852 30.877 8.52468 33.6185 12.467 34.9657C13.342 35.1236 13.6693 34.5853 13.6693 34.1134C13.6693 33.6881 13.6483 32.2742 13.6483 30.7724C9.2505 31.6014 8.113 29.6725 7.76299 28.6641C7.37474 27.6821 6.75907 26.812 5.96923 26.1287C5.35672 25.7932 4.48171 24.9624 5.94648 24.9409C6.50627 25.003 7.04321 25.2026 7.51175 25.5228C7.98029 25.8429 8.36663 26.2742 8.638 26.7801C8.87728 27.2209 9.19905 27.6089 9.58487 27.922C9.97069 28.2351 10.413 28.4671 10.8864 28.6046C11.3598 28.7421 11.855 28.7825 12.3437 28.7234C12.8323 28.6643 13.3048 28.507 13.734 28.2604C13.8098 27.3477 14.2067 26.4945 14.8506 25.8596C10.9568 25.411 6.88798 23.8643 6.88798 17.0011C6.86319 15.2175 7.505 13.4918 8.68175 12.178C8.14679 10.6281 8.20939 8.9272 8.85675 7.42305C8.85675 7.42305 10.3215 6.95294 13.6693 9.26222C16.5328 8.45469 19.5558 8.45469 22.4194 9.26222C25.7654 6.92962 27.2319 7.42305 27.2319 7.42305C27.8794 8.92716 27.9421 10.6281 27.4069 12.178C28.5872 13.4895 29.2296 15.2167 29.2007 17.0011C29.2007 23.8858 25.1091 25.411 21.2154 25.8596C21.633 26.2936 21.9547 26.8147 22.1585 27.3874C22.3623 27.9602 22.4435 28.5712 22.3966 29.179C22.3966 31.5798 22.3756 33.5087 22.3756 34.1134C22.3756 34.5853 22.7029 35.1451 23.5779 34.9657C27.513 33.6073 30.8492 30.8592 32.9909 27.212C35.1327 23.5649 35.9406 19.256 35.2704 15.0546C34.6002 10.8532 32.4956 7.03267 29.3323 4.27508C26.1689 1.5175 22.1527 0.00231477 18.0006 4.48372e-09Z" fill="black"/>
</svg>
