<svg width="164" height="164" viewBox="0 0 164 164" fill="none" xmlns="http://www.w3.org/2000/svg">
<circle cx="82" cy="82" r="82" fill="#D9D9D9"/>
<mask id="mask0_301_109" style="mask-type:alpha" maskUnits="userSpaceOnUse" x="27" y="27" width="110" height="110">
<rect x="27.8809" y="27.0596" width="109.06" height="109.06" fill="#8C52FF"/>
</mask>
<g mask="url(#mask0_301_109)">
<path d="M49.9192 127.031V82.1572H59.0075V117.942H90.8167V96.0169L102.745 84.0884C104.941 81.8921 106.646 79.4307 107.857 76.7042C109.069 73.9777 109.675 71.0618 109.675 67.9566C109.675 64.9272 109.05 62.0492 107.801 59.3227C106.551 56.5962 104.866 54.1348 102.745 51.9384L99.905 48.9847L85.4773 63.4125H67.3006L62.4156 68.2974L55.9402 61.9356L63.5517 54.3241H81.7283L99.905 36.1475L109.221 45.463C112.25 48.4924 114.598 51.9195 116.264 55.7442C117.93 59.5689 118.763 63.6397 118.763 67.9566C118.763 72.2736 117.93 76.3444 116.264 80.1691C114.598 83.9938 112.25 87.4208 109.221 90.4503L99.905 99.7658V127.031H49.9192ZM72.2992 105.787L48.6695 82.1572C47.8364 81.3241 47.1927 80.3395 46.7383 79.2034C46.2838 78.0674 46.0566 76.8935 46.0566 75.6817C46.0566 74.4699 46.2838 73.315 46.7383 72.2168C47.1927 71.1186 47.8364 70.153 48.6695 69.3199L58.2123 59.6635L72.2992 73.6368C74.4198 75.7575 76.0671 78.1999 77.241 80.9643C78.4149 83.7287 79.0018 86.6256 79.0018 89.655C79.0018 92.6845 78.4338 95.5814 77.2978 98.3457C76.1617 101.11 74.4956 103.59 72.2992 105.787Z" fill="#8C52FF"/>
</g>
</svg>
