<svg width="164" height="164" viewBox="0 0 164 164" fill="none" xmlns="http://www.w3.org/2000/svg">
<circle cx="82" cy="82" r="82" fill="#D9D9D9"/>
<mask id="mask0_309_167" style="mask-type:alpha" maskUnits="userSpaceOnUse" x="32" y="32" width="100" height="100">
<rect x="32" y="32" width="100" height="100" fill="#D9D9D9"/>
</mask>
<g mask="url(#mask0_309_167)">
<path d="M77.625 108.458L62.8333 93.6663L68.875 87.6247L77.625 96.3747L95.125 78.8747L101.167 84.9163L77.625 108.458ZM52.8333 123.666C50.5417 123.666 48.5799 122.85 46.9479 121.218C45.316 119.586 44.5 117.625 44.5 115.333V56.9997C44.5 54.708 45.316 52.7462 46.9479 51.1143C48.5799 49.4823 50.5417 48.6663 52.8333 48.6663H57V40.333H65.3333V48.6663H98.6667V40.333H107V48.6663H111.167C113.458 48.6663 115.42 49.4823 117.052 51.1143C118.684 52.7462 119.5 54.708 119.5 56.9997V115.333C119.5 117.625 118.684 119.586 117.052 121.218C115.42 122.85 113.458 123.666 111.167 123.666H52.8333ZM52.8333 115.333H111.167V73.6663H52.8333V115.333ZM52.8333 65.333H111.167V56.9997H52.8333V65.333Z" fill="#8C52FF"/>
</g>
</svg>
