<svg width="36" height="35" viewBox="0 0 36 35" fill="none" xmlns="http://www.w3.org/2000/svg">
<path d="M30.3216 29.8221H25.1358V21.7006C25.1358 19.764 25.1012 17.2709 22.4386 17.2709C19.7376 17.2709 19.3243 19.3811 19.3243 21.5597V29.8216H14.1385V13.1206H19.1169V15.403H19.1866C19.6848 14.5511 20.4047 13.8503 21.2697 13.3752C22.1347 12.9001 23.1124 12.6685 24.0986 12.7051C29.3548 12.7051 30.3238 16.1624 30.3238 20.6602L30.3216 29.8221ZM8.28695 10.8378C6.62486 10.8381 5.27723 9.49083 5.27695 7.82874C5.27668 6.16665 6.62377 4.81901 8.28586 4.81874C9.94795 4.81833 11.2956 6.16556 11.2959 7.82764C11.296 8.62581 10.9791 9.39135 10.4148 9.95586C9.85053 10.5204 9.08512 10.8376 8.28695 10.8378ZM10.88 29.8223H5.68861V13.1206H10.8798V29.8221L10.88 29.8223ZM32.907 0.00254733H3.08275C1.67318 -0.013312 0.517227 1.11585 0.5 2.52542V32.4741C0.51668 33.8843 1.6725 35.0146 3.08262 34.9998H32.907C34.3201 35.0173 35.4804 33.8871 35.5 32.4741V2.52309C35.4799 1.11079 34.3194 -0.0182339 32.907 0.00022311" fill="#0A66C2"/>
</svg>
