<svg width="68" height="44" viewBox="0 0 68 44" fill="none" xmlns="http://www.w3.org/2000/svg">
<rect width="68" height="44" rx="5" fill="#8C52FF"/>
<mask id="mask0_309_200" style="mask-type:alpha" maskUnits="userSpaceOnUse" x="22" y="10" width="24" height="24">
<rect x="22" y="10" width="24" height="24" fill="#D9D9D9"/>
</mask>
<g mask="url(#mask0_309_200)">
<path d="M29 31C28.45 31 27.9792 30.8042 27.5875 30.4125C27.1958 30.0208 27 29.55 27 29V16H26V14H31V13H37V14H42V16H41V29C41 29.55 40.8042 30.0208 40.4125 30.4125C40.0208 30.8042 39.55 31 39 31H29ZM39 16H29V29H39V16ZM31 27H33V18H31V27ZM35 27H37V18H35V27Z" fill="#FCFBFF"/>
</g>
</svg>
