<svg width="68" height="44" viewBox="0 0 68 44" fill="none" xmlns="http://www.w3.org/2000/svg">
<rect width="68" height="44" rx="5" fill="#8C52FF"/>
<mask id="mask0_309_200" style="mask-type:alpha" maskUnits="userSpaceOnUse" x="22" y="10" width="24" height="24">
<rect x="22" y="10" width="24" height="24" fill="#D9D9D9"/>
</mask>
<g mask="url(#mask0_309_200)">
<path d="M33.402 26L36.002 23.4L38.602 26L40.002 24.6L37.402 22L40.002 19.4L38.602 18L36.002 20.6L33.402 18L32.002 19.4L34.602 22L32.002 24.6L33.402 26ZM25.002 22L29.352 15.85C29.5353 15.5833 29.7728 15.375 30.0645 15.225C30.3561 15.075 30.6686 15 31.002 15H41.002C41.552 15 42.0228 15.1958 42.4145 15.5875C42.8061 15.9792 43.002 16.45 43.002 17V27C43.002 27.55 42.8061 28.0208 42.4145 28.4125C42.0228 28.8042 41.552 29 41.002 29H31.002C30.6686 29 30.3561 28.925 30.0645 28.775C29.7728 28.625 29.5353 28.4167 29.352 28.15L25.002 22ZM27.452 22L31.002 27H41.002V17H31.002L27.452 22Z" fill="white"/>
</g>
</svg>
