<svg width="50" height="50" viewBox="0 0 50 50" fill="none" xmlns="http://www.w3.org/2000/svg">
<mask id="mask0_126_585" style="mask-type:alpha" maskUnits="userSpaceOnUse" x="0" y="0" width="50" height="50">
<rect width="50" height="50" fill="#8E98A5"/>
</mask>
<g mask="url(#mask0_126_585)">
<path d="M8.33333 37.5C7.18274 37.5 6.25 36.5673 6.25 35.4167V35.4167C6.25 34.2661 7.18274 33.3333 8.33333 33.3333H41.6667C42.8173 33.3333 43.75 34.2661 43.75 35.4167V35.4167C43.75 36.5673 42.8173 37.5 41.6667 37.5H8.33333ZM8.33333 27.0833C7.18274 27.0833 6.25 26.1506 6.25 25V25C6.25 23.8494 7.18274 22.9167 8.33333 22.9167H41.6667C42.8173 22.9167 43.75 23.8494 43.75 25V25C43.75 26.1506 42.8173 27.0833 41.6667 27.0833H8.33333ZM8.33333 16.6667C7.18274 16.6667 6.25 15.7339 6.25 14.5833V14.5833C6.25 13.4327 7.18274 12.5 8.33333 12.5H41.6667C42.8173 12.5 43.75 13.4327 43.75 14.5833V14.5833C43.75 15.7339 42.8173 16.6667 41.6667 16.6667H8.33333Z" fill="#8E98A5"/>
</g>
</svg>
