<svg width="21" height="20" viewBox="0 0 21 20" fill="none" xmlns="http://www.w3.org/2000/svg">
<path d="M2.52832 9.125C1.82832 9.125 1.23665 8.88333 0.75332 8.4C0.269987 7.91667 0.0283203 7.325 0.0283203 6.625C0.0283203 5.925 0.269987 5.33333 0.75332 4.85C1.23665 4.36667 1.82832 4.125 2.52832 4.125C3.22832 4.125 3.81999 4.36667 4.30332 4.85C4.78665 5.33333 5.02832 5.925 5.02832 6.625C5.02832 7.325 4.78665 7.91667 4.30332 8.4C3.81999 8.88333 3.22832 9.125 2.52832 9.125ZM7.02832 5.125C6.32832 5.125 5.73665 4.88333 5.25332 4.4C4.76999 3.91667 4.52832 3.325 4.52832 2.625C4.52832 1.925 4.76999 1.33333 5.25332 0.85C5.73665 0.366667 6.32832 0.125 7.02832 0.125C7.72832 0.125 8.31999 0.366667 8.80332 0.85C9.28665 1.33333 9.52832 1.925 9.52832 2.625C9.52832 3.325 9.28665 3.91667 8.80332 4.4C8.31999 4.88333 7.72832 5.125 7.02832 5.125ZM13.0283 5.125C12.3283 5.125 11.7367 4.88333 11.2533 4.4C10.77 3.91667 10.5283 3.325 10.5283 2.625C10.5283 1.925 10.77 1.33333 11.2533 0.85C11.7367 0.366667 12.3283 0.125 13.0283 0.125C13.7283 0.125 14.32 0.366667 14.8033 0.85C15.2867 1.33333 15.5283 1.925 15.5283 2.625C15.5283 3.325 15.2867 3.91667 14.8033 4.4C14.32 4.88333 13.7283 5.125 13.0283 5.125ZM17.5283 9.125C16.8283 9.125 16.2367 8.88333 15.7533 8.4C15.27 7.91667 15.0283 7.325 15.0283 6.625C15.0283 5.925 15.27 5.33333 15.7533 4.85C16.2367 4.36667 16.8283 4.125 17.5283 4.125C18.2283 4.125 18.82 4.36667 19.3033 4.85C19.7867 5.33333 20.0283 5.925 20.0283 6.625C20.0283 7.325 19.7867 7.91667 19.3033 8.4C18.82 8.88333 18.2283 9.125 17.5283 9.125ZM4.67832 19.125C3.92832 19.125 3.29915 18.8375 2.79082 18.2625C2.28249 17.6875 2.02832 17.0083 2.02832 16.225C2.02832 15.3583 2.32415 14.6 2.91582 13.95C3.50749 13.3 4.09499 12.6583 4.67832 12.025C5.16165 11.5083 5.57832 10.9458 5.92832 10.3375C6.27832 9.72917 6.69499 9.15833 7.17832 8.625C7.54499 8.19167 7.96999 7.83333 8.45332 7.55C8.93665 7.26667 9.46165 7.125 10.0283 7.125C10.595 7.125 11.12 7.25833 11.6033 7.525C12.0867 7.79167 12.5117 8.14167 12.8783 8.575C13.345 9.10833 13.7575 9.68333 14.1158 10.3C14.4742 10.9167 14.895 11.4917 15.3783 12.025C15.9617 12.6583 16.5492 13.3 17.1408 13.95C17.7325 14.6 18.0283 15.3583 18.0283 16.225C18.0283 17.0083 17.7742 17.6875 17.2658 18.2625C16.7575 18.8375 16.1283 19.125 15.3783 19.125C14.4783 19.125 13.5867 19.05 12.7033 18.9C11.82 18.75 10.9283 18.675 10.0283 18.675C9.12832 18.675 8.23665 18.75 7.35332 18.9C6.46999 19.05 5.57832 19.125 4.67832 19.125Z" fill="black"/>
</svg>
