<svg width="63" height="63" viewBox="0 0 63 63" fill="none" xmlns="http://www.w3.org/2000/svg">
<path d="M42.0234 45.625L32.6172 36.2188C32.2734 35.875 31.8672 35.8125 31.6484 35.8125C31.4297 35.8125 31.0234 35.875 30.6797 36.2188L21.2422 45.6563C20.1797 46.7188 18.5234 48.4375 12.9922 48.4375L24.5859 60C28.2422 63.6563 34.1797 63.6563 37.8359 60L49.4609 48.4062C46.6172 48.4062 44.2422 47.8438 42.0234 45.625Z" fill="black"/>
<path d="M21.2422 17.3438L30.6797 26.7812C30.9297 27.0312 31.3047 27.1875 31.6484 27.1875C31.9922 27.1875 32.3672 27.0312 32.6172 26.7812L41.9609 17.4375C44.1797 15.125 46.7109 14.5938 49.5547 14.5938L37.9297 3C34.2734 -0.65625 28.3359 -0.65625 24.6797 3L13.0859 14.5625C18.5859 14.5625 20.2734 16.375 21.2422 17.3438Z" fill="black"/>
<path d="M59.7109 24.7813L52.6797 17.7187H48.7422C47.0547 17.7187 45.3672 18.4062 44.2109 19.625L34.8359 29C33.9609 29.875 32.8047 30.3125 31.6484 30.3125C30.5234 30.3125 29.3359 29.8437 28.4609 29L19.0234 19.5312C17.8359 18.3437 16.2109 17.6562 14.4922 17.6562H9.89844L2.74219 24.8437C-0.914063 28.5 -0.914063 34.4375 2.74219 38.0937L9.89844 45.2812H14.5234C16.2109 45.2812 17.8359 44.5938 19.0547 43.4062L28.4922 33.9688C29.3672 33.0937 30.5234 32.6562 31.6797 32.6562C32.8359 32.6562 33.9922 33.0937 34.8672 33.9688L44.2734 43.375C45.4609 44.5625 47.0859 45.25 48.8047 45.25H52.7422L59.7734 38.1875C63.4297 34.5 63.4297 28.5 59.7109 24.7813Z" fill="black"/>
</svg>
