<svg width="42" height="42" viewBox="0 0 42 42" fill="none" xmlns="http://www.w3.org/2000/svg">
<mask id="mask0_126_494" style="mask-type:alpha" maskUnits="userSpaceOnUse" x="0" y="0" width="42" height="42">
<rect width="42" height="42" fill="#562BD6"/>
</mask>
<g mask="url(#mask0_126_494)">
<path d="M21 38.5C18.5792 38.5 16.3042 38.0406 14.175 37.1219C12.0458 36.2031 10.1937 34.9563 8.61875 33.3813C7.04375 31.8063 5.79688 29.9542 4.87813 27.825C3.95937 25.6958 3.5 23.4208 3.5 21C3.5 18.5792 3.95937 16.3042 4.87813 14.175C5.79688 12.0458 7.04375 10.1938 8.61875 8.61875C10.1937 7.04375 12.0458 5.79688 14.175 4.87812C16.3042 3.95937 18.5792 3.5 21 3.5C22.2542 3.5 23.4646 3.62396 24.6313 3.87188C25.7979 4.11979 26.9208 4.47708 28 4.94375V8.88125C26.9792 8.29792 25.8781 7.83854 24.6969 7.50313C23.5156 7.16771 22.2833 7 21 7C17.1208 7 13.8177 8.36354 11.0906 11.0906C8.36354 13.8177 7 17.1208 7 21C7 24.8792 8.36354 28.1823 11.0906 30.9094C13.8177 33.6365 17.1208 35 21 35C24.8792 35 28.1823 33.6365 30.9094 30.9094C33.6365 28.1823 35 24.8792 35 21C35 20.0667 34.9052 19.1625 34.7156 18.2875C34.526 17.4125 34.2708 16.5667 33.95 15.75H37.7125C37.975 16.5958 38.1719 17.449 38.3031 18.3094C38.4344 19.1698 38.5 20.0667 38.5 21C38.5 23.4208 38.0406 25.6958 37.1219 27.825C36.2031 29.9542 34.9563 31.8063 33.3813 33.3813C31.8063 34.9563 29.9542 36.2031 27.825 37.1219C25.6958 38.0406 23.4208 38.5 21 38.5ZM35 12.25V8.75H31.5V5.25H35V1.75H38.5V5.25H42V8.75H38.5V12.25H35ZM27.125 19.25C27.8542 19.25 28.474 18.9948 28.9844 18.4844C29.4948 17.974 29.75 17.3542 29.75 16.625C29.75 15.8958 29.4948 15.276 28.9844 14.7656C28.474 14.2552 27.8542 14 27.125 14C26.3958 14 25.776 14.2552 25.2656 14.7656C24.7552 15.276 24.5 15.8958 24.5 16.625C24.5 17.3542 24.7552 17.974 25.2656 18.4844C25.776 18.9948 26.3958 19.25 27.125 19.25ZM14.875 19.25C15.6042 19.25 16.224 18.9948 16.7344 18.4844C17.2448 17.974 17.5 17.3542 17.5 16.625C17.5 15.8958 17.2448 15.276 16.7344 14.7656C16.224 14.2552 15.6042 14 14.875 14C14.1458 14 13.526 14.2552 13.0156 14.7656C12.5052 15.276 12.25 15.8958 12.25 16.625C12.25 17.3542 12.5052 17.974 13.0156 18.4844C13.526 18.9948 14.1458 19.25 14.875 19.25ZM21 30.625C22.9833 30.625 24.7844 30.0635 26.4031 28.9406C28.0219 27.8177 29.1958 26.3375 29.925 24.5H12.075C12.8042 26.3375 13.9781 27.8177 15.5969 28.9406C17.2156 30.0635 19.0167 30.625 21 30.625Z" fill="#562BD6"/>
</g>
</svg>
