<svg width="24" height="25" viewBox="0 0 24 25" fill="none" xmlns="http://www.w3.org/2000/svg">
<mask id="mask0_146_99" style="mask-type:alpha" maskUnits="userSpaceOnUse" x="0" y="0" width="24" height="25">
<rect y="0.5" width="24" height="24" fill="#D9D9D9"/>
</mask>
<g mask="url(#mask0_146_99)">
<path d="M6 22.5C5.45 22.5 4.97917 22.3042 4.5875 21.9125C4.19583 21.5208 4 21.05 4 20.5V10.5C4 9.95 4.19583 9.47917 4.5875 9.0875C4.97917 8.69583 5.45 8.5 6 8.5H7V6.5C7 5.11667 7.4875 3.9375 8.4625 2.9625C9.4375 1.9875 10.6167 1.5 12 1.5C13.3833 1.5 14.5625 1.9875 15.5375 2.9625C16.5125 3.9375 17 5.11667 17 6.5V8.5H18C18.55 8.5 19.0208 8.69583 19.4125 9.0875C19.8042 9.47917 20 9.95 20 10.5V20.5C20 21.05 19.8042 21.5208 19.4125 21.9125C19.0208 22.3042 18.55 22.5 18 22.5H6ZM6 20.5H18V10.5H6V20.5ZM12 17.5C12.55 17.5 13.0208 17.3042 13.4125 16.9125C13.8042 16.5208 14 16.05 14 15.5C14 14.95 13.8042 14.4792 13.4125 14.0875C13.0208 13.6958 12.55 13.5 12 13.5C11.45 13.5 10.9792 13.6958 10.5875 14.0875C10.1958 14.4792 10 14.95 10 15.5C10 16.05 10.1958 16.5208 10.5875 16.9125C10.9792 17.3042 11.45 17.5 12 17.5ZM9 8.5H15V6.5C15 5.66667 14.7083 4.95833 14.125 4.375C13.5417 3.79167 12.8333 3.5 12 3.5C11.1667 3.5 10.4583 3.79167 9.875 4.375C9.29167 4.95833 9 5.66667 9 6.5V8.5Z" fill="#010101"/>
</g>
</svg>
