<svg width="1921" height="1125" viewBox="0 0 1921 1125" fill="none" xmlns="http://www.w3.org/2000/svg">
<g clip-path="url(#clip0_146_117)">
<path d="M1921 0H-3V1125H1921V0Z" fill="white"/>
<path d="M-699.149 -58.9371C-699.149 -58.9371 -226.26 35.9865 -18.9129 338.81C188.435 641.634 229.256 257.598 661.324 736.558C1093.39 1215.52 922.995 857.982 1341.56 1134.31C1760.13 1410.63 1688.74 1260.99 2021.8 1532.05L2269.34 1676.79L536.564 2689.98L-2431.92 954.248L-699.149 -58.9371Z" fill="#AE89C6"/>
<path d="M-160.056 -374.156C-160.056 -374.156 170.251 -411.289 520.181 23.5911C870.11 458.471 1121.34 43.5126 1200.42 421.339C1279.49 799.165 1891.59 388.627 1880.65 819.086C1869.72 1249.55 2578.58 782.427 2560.89 1216.83L2808.43 1361.57L4597.46 315.494L1628.97 -1420.24L-160.056 -374.156Z" fill="#EFCFFF"/>
</g>
<defs>
<clipPath id="clip0_146_117">
<rect width="1924" height="1125" fill="white" transform="translate(-3)"/>
</clipPath>
</defs>
</svg>
