<svg width="1921" height="1674" viewBox="0 0 1921 1674" fill="none" xmlns="http://www.w3.org/2000/svg">
<g clip-path="url(#clip0_146_348)">
<path d="M1921 0H0V1674H1921V0Z" fill="white"/>
<path d="M2638.43 -1054.47C2638.43 -1054.47 2377.3 -752.133 1734.47 -377.641C1091.64 -3.14964 1395.77 -32.1265 830.508 299.19C265.245 630.507 871.381 400.254 -73.436 976.009C-1018.25 1551.77 -508.604 1301.84 -977.397 1652.84L-1162.43 1791.38L-1618.9 220.273L2181.96 -2625.58L2638.43 -1054.47Z" fill="#FFCFDD"/>
<path d="M2886.54 -68.5619C2886.54 -68.5619 2503.03 437.972 1981.89 611.51C1460.75 785.048 2023.42 842.165 1077.24 1291.58C131.063 1741 693.754 1798.1 172.612 1971.64C-348.529 2145.18 -210.894 2478.17 -732.036 2651.71L-917.211 2790.92L-444.828 4418.59L3358.92 1559.11L2886.54 -68.5619Z" fill="#AE89C6"/>
</g>
<defs>
<clipPath id="clip0_146_348">
<rect width="1921" height="1674" fill="white"/>
</clipPath>
</defs>
</svg>
