<svg width="1929" height="934" viewBox="0 0 1929 934" fill="none" xmlns="http://www.w3.org/2000/svg">
<g clip-path="url(#clip0_385_366)" filter="url(#filter0_d_385_366)">
<rect width="1921" height="926" transform="translate(4)" fill="white"/>
<mask id="mask0_385_366" style="mask-type:alpha" maskUnits="userSpaceOnUse" x="89" y="80" width="344" height="345">
<rect x="89" y="294.056" width="250" height="250" transform="rotate(-58.5 89 294.056)" fill="#D9D9D9"/>
</mask>
<g mask="url(#mask0_385_366)">
<path d="M219.705 264.18L189.266 271.488C185.207 272.462 181.142 272.618 177.068 271.954C172.995 271.291 169.257 269.916 165.852 267.83C158.451 263.294 153.739 256.945 151.716 248.783C149.693 240.62 150.949 232.838 155.485 225.437L188.685 171.259C193.13 164.005 199.463 159.487 207.682 157.703C215.902 155.919 223.639 157.249 230.892 161.694C234.445 163.871 237.456 166.683 239.924 170.13C242.393 173.578 244.115 177.331 245.089 181.389L252.139 210.754L301.433 240.961L331.514 233.739C335.572 232.765 339.638 232.609 343.711 233.273C347.784 233.936 351.597 235.356 355.15 237.534C362.699 242.16 367.499 248.614 369.551 256.896C371.602 265.178 370.315 273.093 365.689 280.643C363.511 284.195 360.759 287.192 357.431 289.632C354.103 292.072 350.41 293.779 346.351 294.754C344.68 295.155 343.2 295.826 341.911 296.767C340.622 297.708 339.524 298.918 338.616 300.398C337.709 301.879 337.129 303.407 336.876 304.982C336.623 306.558 336.698 308.182 337.099 309.853C338.073 313.911 338.229 317.977 337.565 322.05C336.902 326.123 335.482 329.936 333.305 333.489C328.678 341.038 322.164 345.853 313.763 347.933C305.362 350.013 297.387 348.74 289.837 344.114C286.285 341.936 283.311 339.147 280.916 335.745C278.521 332.343 276.837 328.613 275.862 324.554L268.998 294.387L219.705 264.18ZM226.816 244.104L283.658 278.937C284.843 279.663 285.831 280.625 286.624 281.823C287.417 283.022 287.956 284.218 288.243 285.411L296.274 319.654C296.47 320.995 296.987 322.229 297.825 323.353C298.663 324.477 299.675 325.402 300.859 326.128C303.375 327.67 306.103 328.12 309.042 327.478C311.981 326.835 314.221 325.256 315.763 322.739C316.489 321.555 316.97 320.272 317.206 318.889C317.442 317.507 317.389 316.1 317.045 314.667C316.013 310.37 315.8 306.065 316.406 301.754C317.012 297.442 318.495 293.362 320.853 289.513C323.212 285.664 326.197 282.454 329.809 279.883C333.421 277.311 337.33 275.583 341.537 274.7C342.821 274.265 344.063 273.651 345.261 272.859C346.46 272.066 347.422 271.078 348.147 269.893C349.689 267.377 350.102 264.627 349.386 261.642C348.669 258.658 347.053 256.395 344.536 254.853C343.352 254.127 342.069 253.646 340.686 253.41C339.304 253.174 337.925 253.347 336.55 253.929L302.394 262.319C301.052 262.515 299.704 262.554 298.351 262.437C296.997 262.321 295.728 261.899 294.544 261.174L237.701 226.34C236.517 225.615 235.506 224.69 234.668 223.565C233.83 222.441 233.267 221.282 232.981 220.088L224.591 185.932C224.247 184.499 223.679 183.184 222.886 181.985C222.094 180.787 221.105 179.825 219.921 179.099C217.552 177.648 215.055 177.237 212.429 177.868C209.803 178.498 207.764 179.998 206.313 182.366L173.248 236.322C171.797 238.691 171.423 241.211 172.128 243.882C172.832 246.554 174.369 248.615 176.737 250.066C177.922 250.792 179.168 251.25 180.476 251.441C181.785 251.632 183.11 251.63 184.451 251.434L218.966 242.958C220.25 242.524 221.584 242.425 222.966 242.661C224.348 242.897 225.632 243.378 226.816 244.104Z" fill="#F4F2F2"/>
</g>
<mask id="mask1_385_366" style="mask-type:alpha" maskUnits="userSpaceOnUse" x="935" y="-25" width="344" height="344">
<rect x="935" y="188.16" width="250" height="250" transform="rotate(-58.5 935 188.16)" fill="#D9D9D9"/>
</mask>
<g mask="url(#mask1_385_366)">
<path d="M1065.71 158.284L1035.27 165.592C1031.21 166.566 1027.14 166.722 1023.07 166.058C1019 165.395 1015.26 164.02 1011.85 161.934C1004.45 157.398 999.739 151.049 997.716 142.887C995.693 134.724 996.949 126.942 1001.48 119.541L1034.69 65.3627C1039.13 58.1094 1045.46 53.5907 1053.68 51.8066C1061.9 50.0226 1069.64 51.353 1076.89 55.7979C1080.44 57.975 1083.46 60.7872 1085.92 64.2344C1088.39 67.6817 1090.11 71.4346 1091.09 75.4932L1098.14 104.858L1147.43 135.065L1177.51 127.843C1181.57 126.869 1185.64 126.713 1189.71 127.377C1193.78 128.04 1197.6 129.46 1201.15 131.638C1208.7 136.264 1213.5 142.718 1215.55 151C1217.6 159.282 1216.31 167.197 1211.69 174.747C1209.51 178.299 1206.76 181.296 1203.43 183.736C1200.1 186.176 1196.41 187.883 1192.35 188.858C1190.68 189.259 1189.2 189.93 1187.91 190.871C1186.62 191.812 1185.52 193.022 1184.62 194.502C1183.71 195.983 1183.13 197.511 1182.88 199.086C1182.62 200.662 1182.7 202.286 1183.1 203.957C1184.07 208.015 1184.23 212.081 1183.57 216.154C1182.9 220.227 1181.48 224.04 1179.3 227.593C1174.68 235.142 1168.16 239.957 1159.76 242.037C1151.36 244.117 1143.39 242.844 1135.84 238.218C1132.28 236.04 1129.31 233.251 1126.92 229.849C1124.52 226.447 1122.84 222.717 1121.86 218.658L1115 188.491L1065.71 158.284ZM1072.82 138.208L1129.66 173.041C1130.84 173.767 1131.83 174.729 1132.62 175.927C1133.42 177.126 1133.96 178.322 1134.24 179.515L1142.27 213.758C1142.47 215.099 1142.99 216.333 1143.83 217.457C1144.66 218.581 1145.67 219.506 1146.86 220.232C1149.38 221.774 1152.1 222.224 1155.04 221.582C1157.98 220.939 1160.22 219.36 1161.76 216.843C1162.49 215.659 1162.97 214.376 1163.21 212.993C1163.44 211.611 1163.39 210.204 1163.04 208.771C1162.01 204.474 1161.8 200.169 1162.41 195.858C1163.01 191.546 1164.49 187.466 1166.85 183.617C1169.21 179.768 1172.2 176.558 1175.81 173.987C1179.42 171.415 1183.33 169.687 1187.54 168.804C1188.82 168.369 1190.06 167.755 1191.26 166.963C1192.46 166.17 1193.42 165.182 1194.15 163.997C1195.69 161.481 1196.1 158.731 1195.39 155.746C1194.67 152.762 1193.05 150.499 1190.54 148.957C1189.35 148.231 1188.07 147.75 1186.69 147.514C1185.3 147.278 1183.93 147.451 1182.55 148.033L1148.39 156.423C1147.05 156.619 1145.7 156.658 1144.35 156.542C1143 156.425 1141.73 156.003 1140.54 155.278L1083.7 120.444C1082.52 119.719 1081.51 118.794 1080.67 117.669C1079.83 116.545 1079.27 115.386 1078.98 114.192L1070.59 80.0356C1070.25 78.6032 1069.68 77.2877 1068.89 76.0893C1068.09 74.8909 1067.11 73.9288 1065.92 73.2031C1063.55 71.7517 1061.06 71.3413 1058.43 71.9718C1055.8 72.6022 1053.76 74.1017 1052.31 76.4702L1019.25 130.426C1017.8 132.795 1017.42 135.315 1018.13 137.986C1018.83 140.658 1020.37 142.719 1022.74 144.171C1023.92 144.896 1025.17 145.354 1026.48 145.545C1027.78 145.736 1029.11 145.734 1030.45 145.538L1064.97 137.062C1066.25 136.628 1067.58 136.529 1068.97 136.765C1070.35 137.001 1071.63 137.482 1072.82 138.208Z" fill="#F4F2F2"/>
</g>
<mask id="mask2_385_366" style="mask-type:alpha" maskUnits="userSpaceOnUse" x="662" y="181" width="336" height="336">
<rect x="662.852" y="291.447" width="250" height="250" transform="rotate(-26 662.852 291.447)" fill="#E8E8E8"/>
</mask>
<g mask="url(#mask2_385_366)">
<path d="M760.351 384.419C753.797 387.615 747.154 388.054 740.422 385.736C733.69 383.418 728.725 378.982 725.529 372.429C722.333 365.875 721.893 359.232 724.212 352.5C726.53 345.767 730.966 340.803 737.519 337.607C744.073 334.41 750.716 333.971 757.448 336.289C764.18 338.607 769.145 343.043 772.341 349.597C775.538 356.15 775.977 362.793 773.659 369.526C771.341 376.258 766.905 381.222 760.351 384.419ZM784.217 326.42C777.663 329.617 771.02 330.056 764.288 327.738C757.555 325.42 752.591 320.984 749.395 314.43C746.198 307.876 745.759 301.234 748.077 294.501C750.395 287.769 754.831 282.805 761.385 279.608C767.938 276.412 774.581 275.973 781.314 278.291C788.046 280.609 793.01 285.045 796.207 291.598C799.403 298.152 799.842 304.795 797.524 311.527C795.206 318.26 790.77 323.224 784.217 326.42ZM840.391 299.022C833.837 302.219 827.195 302.658 820.462 300.34C813.73 298.022 808.766 293.586 805.569 287.032C802.373 280.478 801.934 273.835 804.252 267.103C806.57 260.371 811.006 255.406 817.559 252.21C824.113 249.014 830.756 248.574 837.488 250.892C844.221 253.211 849.185 257.646 852.381 264.2C855.578 270.754 856.017 277.397 853.699 284.129C851.381 290.861 846.945 295.826 840.391 299.022ZM900.788 315.923C894.234 319.12 887.591 319.559 880.859 317.241C874.126 314.923 869.162 310.487 865.966 303.933C862.769 297.379 862.33 290.736 864.648 284.004C866.966 277.272 871.402 272.308 877.956 269.111C884.51 265.915 891.152 265.475 897.885 267.794C904.617 270.112 909.581 274.548 912.778 281.101C915.974 287.655 916.413 294.298 914.095 301.03C911.777 307.762 907.341 312.727 900.788 315.923ZM826.144 468.225C819.122 471.65 811.919 471.832 804.534 468.769C797.149 465.707 791.668 460.509 788.091 453.175C784.134 445.061 783.44 436.61 786.012 427.823C788.583 419.036 791.153 410.345 793.723 401.752C795.889 394.708 797.221 387.539 797.72 380.245C798.219 372.951 799.513 365.704 801.603 358.504C803.057 352.773 805.4 347.477 808.631 342.617C811.863 337.757 816.131 334.034 821.437 331.446C826.742 328.859 832.266 327.71 838.009 327.999C843.752 328.289 849.329 329.625 854.741 332.008C861.545 334.87 868.033 338.37 874.204 342.507C880.375 346.644 886.94 350.106 893.901 352.892C902.254 356.158 910.685 359.483 919.192 362.867C927.7 366.25 933.933 371.999 937.89 380.113C941.467 387.447 942.189 394.967 940.055 402.671C937.922 410.376 933.344 415.941 926.322 419.365C917.896 423.475 909.205 426.845 900.25 429.474C891.295 432.103 882.604 435.473 874.178 439.582C865.752 443.692 857.746 448.466 850.161 453.904C842.576 459.342 834.57 464.116 826.144 468.225Z" fill="#F4F2F2"/>
</g>
<mask id="mask3_385_366" style="mask-type:alpha" maskUnits="userSpaceOnUse" x="305" y="532" width="350" height="350">
<rect x="305.637" y="677.822" width="250" height="250" transform="rotate(-35.5 305.637 677.822)" fill="#E8E8E8"/>
</mask>
<g mask="url(#mask3_385_366)">
<path d="M479.844 835.052L420.111 751.308L437.071 739.21L484.707 805.993L544.07 763.65L514.883 722.732L521.266 684.593C522.441 677.57 522.345 670.708 520.977 664.007C519.609 657.306 516.858 651.058 512.724 645.263C508.692 639.609 503.695 635.07 497.733 631.645C491.772 628.22 485.35 625.87 478.469 624.594L469.237 622.862L461.517 668.993L427.596 693.189L424.982 708.808L404.429 705.556L408.502 681.219L442.423 657.023L452.149 598.905L481.934 603.89C491.62 605.511 500.564 608.781 508.764 613.701C516.965 618.62 523.939 625.108 529.685 633.165C535.432 641.221 539.296 649.927 541.278 659.283C543.259 668.638 543.44 678.159 541.819 687.845L536.835 717.631L573.128 768.513L479.844 835.052ZM493.331 765.615L417.779 752.972C415.115 752.526 412.603 751.545 410.243 750.03C407.882 748.515 405.896 746.627 404.282 744.365C402.669 742.104 401.556 739.646 400.942 736.992C400.328 734.337 400.244 731.678 400.69 729.014L405.645 698.291L450.535 705.616C457.315 706.751 463.64 709.116 469.511 712.712C475.382 716.309 480.333 720.934 484.366 726.587C488.398 732.241 491.195 738.403 492.754 745.074C494.314 751.745 494.506 758.592 493.331 765.615Z" fill="#F4F2F2"/>
</g>
<mask id="mask4_385_366" style="mask-type:alpha" maskUnits="userSpaceOnUse" x="1464" y="22" width="250" height="250">
<rect x="1464" y="22" width="250" height="250" fill="#E8E8E8"/>
</mask>
<g mask="url(#mask4_385_366)">
<path d="M1589.02 251.167C1576 251.167 1563.8 248.693 1552.43 243.745C1541.06 238.797 1531.16 232.113 1522.74 223.693C1514.32 215.273 1507.64 205.377 1502.69 194.006C1497.74 182.634 1495.27 170.438 1495.27 157.417C1495.27 144.396 1497.74 132.2 1502.69 120.828C1507.64 109.457 1514.32 99.5611 1522.74 91.141C1531.16 82.7208 1541.06 76.0368 1552.43 71.0889C1563.8 66.141 1576 63.667 1589.02 63.667C1602.04 63.667 1614.24 66.141 1625.61 71.0889C1636.98 76.0368 1646.88 82.7208 1655.3 91.141C1663.72 99.5611 1670.4 109.457 1675.35 120.828C1680.3 132.2 1682.77 144.396 1682.77 157.417C1682.77 170.438 1680.3 182.634 1675.35 194.006C1670.4 205.377 1663.72 215.273 1655.3 223.693C1646.88 232.113 1636.98 238.797 1625.61 243.745C1614.24 248.693 1602.04 251.167 1589.02 251.167ZM1618.19 201.167L1632.77 186.584L1599.44 153.25V105.334H1578.6V161.584L1618.19 201.167ZM1522.35 46.4795L1536.94 61.0628L1492.67 105.334L1478.08 90.7503L1522.35 46.4795ZM1655.69 46.4795L1699.96 90.7503L1685.37 105.334L1641.1 61.0628L1655.69 46.4795ZM1589.02 230.334C1609.33 230.334 1626.56 223.259 1640.71 209.11C1654.86 194.96 1661.94 177.73 1661.94 157.417C1661.94 137.105 1654.86 119.874 1640.71 105.724C1626.56 91.575 1609.33 84.5003 1589.02 84.5003C1568.71 84.5003 1551.48 91.575 1537.33 105.724C1523.18 119.874 1516.1 137.105 1516.1 157.417C1516.1 177.73 1523.18 194.96 1537.33 209.11C1551.48 223.259 1568.71 230.334 1589.02 230.334Z" fill="#F4F2F2"/>
</g>
<mask id="mask5_385_366" style="mask-type:alpha" maskUnits="userSpaceOnUse" x="1271" y="441" width="485" height="485">
<rect x="1485.88" y="441.118" width="345" height="345" transform="rotate(38.5 1485.88 441.118)" fill="#E8E8E8"/>
</mask>
<g mask="url(#mask5_385_366)">
<path d="M1395.89 773.632C1381.83 762.446 1373.79 748.016 1371.78 730.343C1369.76 712.669 1374.35 696.801 1385.53 682.738C1390.75 676.176 1397.16 671.397 1404.75 668.401C1412.33 665.405 1423.87 663.025 1439.35 661.261C1441.37 661.03 1443.38 660.716 1445.39 660.318C1447.39 659.919 1450.05 659.36 1453.38 658.64C1455.45 636.408 1460.28 615.226 1467.88 595.094C1475.47 574.961 1485.31 557.301 1497.39 542.113C1506.04 531.238 1514.65 524.461 1523.21 521.78C1531.77 519.1 1539.61 520.593 1546.74 526.261C1557.43 534.762 1562.89 547.524 1563.12 564.548C1563.36 581.572 1562.2 596.112 1559.65 608.167C1558.36 613.26 1556.88 618.287 1555.23 623.249C1553.58 628.212 1551.68 633.203 1549.52 638.223C1553.93 634.992 1558.36 632.015 1562.82 629.29C1567.29 626.564 1571.95 624.073 1576.81 621.814C1587.79 616.47 1601.61 611.998 1618.25 608.397C1634.89 604.796 1648.55 607.246 1659.24 615.747C1666.36 621.415 1669.58 628.721 1668.9 637.665C1668.21 646.61 1663.54 656.519 1654.89 667.394C1642.81 682.582 1627.82 696.14 1609.91 708.07C1592 720 1572.45 729.474 1551.25 736.493C1551.3 739.898 1551.35 742.62 1551.42 744.659C1551.48 746.698 1551.62 748.727 1551.85 750.747C1553.62 766.233 1553.89 778.009 1552.68 786.075C1551.47 794.142 1548.25 801.457 1543.03 808.019C1531.85 822.082 1517.42 830.12 1499.74 832.134C1482.07 834.147 1466.2 829.561 1452.14 818.375C1443.7 811.664 1437.65 805.32 1433.99 799.343L1428.49 790.379L1418.52 787.039C1411.87 784.813 1404.33 780.344 1395.89 773.632ZM1413.79 751.132C1418.1 754.562 1422.82 757.477 1427.96 759.876C1433.09 762.275 1438.35 763.935 1443.74 764.855C1442.42 762.277 1441.82 759.192 1441.92 755.6C1442.02 752.007 1442.74 749.368 1444.09 747.68C1445.28 746.18 1447.4 745.725 1450.45 746.315C1453.5 746.905 1456.62 748.468 1459.81 751.004C1463 753.539 1465.22 756.227 1466.48 759.067C1467.74 761.907 1467.78 764.077 1466.59 765.577C1465.24 767.265 1462.83 768.562 1459.36 769.47C1455.88 770.378 1452.74 770.48 1449.93 769.777C1452.04 774.822 1454.84 779.576 1458.33 784.038C1461.82 788.499 1465.73 792.445 1470.04 795.875C1477.91 802.139 1486.73 804.715 1496.49 803.603C1506.26 802.491 1514.27 797.997 1520.53 790.122C1523.22 786.747 1524.89 782.72 1525.55 778.041C1526.21 773.362 1525.94 767.937 1524.72 761.767C1523.89 757.429 1523.3 753.745 1522.95 750.715C1522.6 747.686 1522.42 742.335 1522.4 734.665C1522.18 723.777 1521.08 715.932 1519.08 711.13C1517.08 706.327 1512.24 700.869 1504.55 694.754C1496.87 688.639 1490.41 685.112 1485.19 684.172C1479.97 683.232 1472.12 683.956 1461.65 686.342C1454.17 688.047 1448.92 689.072 1445.89 689.417C1442.86 689.762 1439.14 690.016 1434.72 690.178C1428.44 690.383 1423.09 691.333 1418.68 693.029C1414.27 694.725 1410.72 697.26 1408.03 700.635C1401.77 708.51 1399.19 717.329 1400.31 727.092C1401.42 736.855 1405.91 744.868 1413.79 751.132ZM1454.12 723.518C1452.62 722.325 1451.98 720.437 1452.2 717.855C1452.41 715.273 1453.42 712.856 1455.21 710.606C1457 708.356 1459.13 706.835 1461.59 706.043C1464.06 705.25 1466.04 705.45 1467.54 706.643C1469.04 707.836 1469.68 709.724 1469.47 712.307C1469.25 714.889 1468.25 717.305 1466.46 719.555C1464.67 721.805 1462.54 723.326 1460.07 724.119C1457.6 724.912 1455.62 724.711 1454.12 723.518ZM1487.87 750.364C1486.37 749.171 1485.73 747.283 1485.95 744.701C1486.16 742.119 1487.17 739.702 1488.96 737.452C1490.75 735.202 1492.88 733.681 1495.34 732.888C1497.81 732.096 1499.79 732.296 1501.29 733.489C1502.79 734.682 1503.43 736.57 1503.22 739.153C1503 741.735 1502 744.151 1500.21 746.401C1498.42 748.651 1496.29 750.172 1493.82 750.965C1491.35 751.758 1489.37 751.557 1487.87 750.364ZM1482.61 654.798C1485.86 654.938 1489.25 655.49 1492.77 656.453C1496.29 657.416 1500.02 658.697 1503.95 660.295C1510.74 650.996 1516.5 640.962 1521.24 630.191C1525.98 619.421 1529.48 608.962 1531.73 598.816C1534.13 588.482 1535.23 579.022 1535.02 570.436C1534.81 561.849 1533.14 555.091 1530.02 550.16C1528.75 550.987 1527.27 552.179 1525.57 553.737C1523.87 555.294 1521.98 557.386 1519.89 560.011C1509.75 572.761 1501.48 587.301 1495.07 603.633C1488.66 619.965 1484.51 637.019 1482.61 654.798ZM1548.42 707.147C1565.32 701.301 1581 693.418 1595.47 683.5C1609.94 673.581 1622.25 662.247 1632.39 649.497C1634.48 646.872 1636.09 644.557 1637.23 642.552C1638.36 640.547 1639.19 638.833 1639.71 637.41C1634.21 635.479 1627.25 635.377 1618.83 637.103C1610.42 638.829 1601.45 642.025 1591.92 646.691C1582.73 651.319 1573.42 657.154 1563.99 664.196C1554.56 671.238 1545.99 679.035 1538.26 687.588C1540.48 690.575 1542.42 693.722 1544.07 697.029C1545.73 700.336 1547.18 703.708 1548.42 707.147Z" fill="#F4F2F2"/>
</g>
</g>
<defs>
<filter id="filter0_d_385_366" x="0" y="0" width="1929" height="934" filterUnits="userSpaceOnUse" color-interpolation-filters="sRGB">
<feFlood flood-opacity="0" result="BackgroundImageFix"/>
<feColorMatrix in="SourceAlpha" type="matrix" values="0 0 0 0 0 0 0 0 0 0 0 0 0 0 0 0 0 0 127 0" result="hardAlpha"/>
<feOffset dy="4"/>
<feGaussianBlur stdDeviation="2"/>
<feComposite in2="hardAlpha" operator="out"/>
<feColorMatrix type="matrix" values="0 0 0 0 0 0 0 0 0 0 0 0 0 0 0 0 0 0 0.25 0"/>
<feBlend mode="normal" in2="BackgroundImageFix" result="effect1_dropShadow_385_366"/>
<feBlend mode="normal" in="SourceGraphic" in2="effect1_dropShadow_385_366" result="shape"/>
</filter>
<clipPath id="clip0_385_366">
<rect width="1921" height="926" fill="white" transform="translate(4)"/>
</clipPath>
</defs>
</svg>
