<svg width="1924" height="1125" viewBox="0 0 1924 1125" fill="none" xmlns="http://www.w3.org/2000/svg">
<g clip-path="url(#clip0_215_124)">
<path d="M1924 0H0V1125H1924V0Z" fill="white"/>
<path d="M-696.149 -58.9381C-696.149 -58.9381 -223.26 35.9855 -15.9129 338.809C191.435 641.633 232.256 257.597 664.324 736.557C1096.39 1215.52 925.995 857.981 1344.56 1134.3C1763.13 1410.63 1691.74 1260.99 2024.8 1532.05L2272.34 1676.79L539.564 2689.98L-2428.92 954.247L-696.149 -58.9381Z" fill="#5F5F5F"/>
<path d="M-157.056 -374.157C-157.056 -374.157 173.251 -411.29 523.181 23.5906C873.11 458.471 1124.34 43.5121 1203.42 421.338C1282.49 799.164 1894.59 388.627 1883.65 819.086C1872.72 1249.54 2581.58 782.427 2563.89 1216.83L2811.43 1361.57L4600.46 315.493L1631.97 -1420.24L-157.056 -374.157Z" fill="#CACACA"/>
</g>
<defs>
<clipPath id="clip0_215_124">
<rect width="1924" height="1125" fill="white"/>
</clipPath>
</defs>
</svg>
