<svg width="164" height="164" viewBox="0 0 164 164" fill="none" xmlns="http://www.w3.org/2000/svg">
<circle cx="82" cy="82" r="82" fill="#D9D9D9"/>
<mask id="mask0_426_174" style="mask-type:alpha" maskUnits="userSpaceOnUse" x="32" y="32" width="100" height="100">
<rect x="32" y="32" width="100" height="100" fill="#8C52FF"/>
</mask>
<g mask="url(#mask0_426_174)">
<path d="M82.0078 123.665C76.7995 123.665 71.921 122.675 67.3724 120.696C62.8238 118.717 58.8655 116.044 55.4974 112.675C52.1293 109.307 49.4557 105.349 47.4766 100.8C45.4974 96.2519 44.5078 91.3734 44.5078 86.165C44.5078 80.9567 45.4974 76.0782 47.4766 71.5296C49.4557 66.981 52.1293 63.0227 55.4974 59.6546C58.8655 56.2866 62.8238 53.613 67.3724 51.6338C71.921 49.6546 76.7995 48.665 82.0078 48.665C87.2162 48.665 92.0946 49.6546 96.6432 51.6338C101.192 53.613 105.15 56.2866 108.518 59.6546C111.886 63.0227 114.56 66.981 116.539 71.5296C118.518 76.0782 119.508 80.9567 119.508 86.165C119.508 91.3734 118.518 96.2519 116.539 100.8C114.56 105.349 111.886 109.307 108.518 112.675C105.15 116.044 101.192 118.717 96.6432 120.696C92.0946 122.675 87.2162 123.665 82.0078 123.665ZM93.6745 103.665L99.5078 97.8317L86.1745 84.4984V65.3317H77.8412V87.8317L93.6745 103.665ZM55.3411 41.79L61.1745 47.6234L43.4661 65.3317L37.6328 59.4984L55.3411 41.79ZM108.674 41.79L126.383 59.4984L120.549 65.3317L102.841 47.6234L108.674 41.79ZM82.0078 115.332C90.1328 115.332 97.0252 112.502 102.685 106.842C108.345 101.182 111.174 94.29 111.174 86.165C111.174 78.04 108.345 71.1477 102.685 65.488C97.0252 59.8282 90.1328 56.9984 82.0078 56.9984C73.8828 56.9984 66.9905 59.8282 61.3307 65.488C55.671 71.1477 52.8411 78.04 52.8411 86.165C52.8411 94.29 55.671 101.182 61.3307 106.842C66.9905 112.502 73.8828 115.332 82.0078 115.332Z" fill="#8C52FF"/>
</g>
</svg>
