<svg width="164" height="164" viewBox="0 0 164 164" fill="none" xmlns="http://www.w3.org/2000/svg">
<circle cx="82" cy="82" r="82" fill="#D9D9D9"/>
<mask id="mask0_305_294" style="mask-type:alpha" maskUnits="userSpaceOnUse" x="32" y="32" width="100" height="100">
<rect x="32" y="32" width="100" height="100" fill="#8C52FF"/>
</mask>
<g mask="url(#mask0_305_294)">
<path d="M52.8333 119.499C50.5417 119.499 48.5799 118.683 46.9479 117.051C45.316 115.419 44.5 113.458 44.5 111.166V52.8327C44.5 50.541 45.316 48.5792 46.9479 46.9473C48.5799 45.3153 50.5417 44.4993 52.8333 44.4993H70.3333C71.3056 41.9993 72.8333 39.9855 74.9167 38.4577C77 36.9299 79.3611 36.166 82 36.166C84.6389 36.166 87 36.9299 89.0833 38.4577C91.1667 39.9855 92.6944 41.9993 93.6667 44.4993H111.167C113.458 44.4993 115.42 45.3153 117.052 46.9473C118.684 48.5792 119.5 50.541 119.5 52.8327V111.166C119.5 113.458 118.684 115.419 117.052 117.051C115.42 118.683 113.458 119.499 111.167 119.499H52.8333ZM82 49.7077C82.9028 49.7077 83.6493 49.4125 84.2396 48.8223C84.8299 48.232 85.125 47.4855 85.125 46.5827C85.125 45.6799 84.8299 44.9334 84.2396 44.3431C83.6493 43.7528 82.9028 43.4577 82 43.4577C81.0972 43.4577 80.3507 43.7528 79.7604 44.3431C79.1701 44.9334 78.875 45.6799 78.875 46.5827C78.875 47.4855 79.1701 48.232 79.7604 48.8223C80.3507 49.4125 81.0972 49.7077 82 49.7077ZM52.8333 106.374C56.5833 102.694 60.941 99.7945 65.9062 97.6764C70.8715 95.5584 76.2361 94.4993 82 94.4993C87.7639 94.4993 93.1285 95.5584 98.0938 97.6764C103.059 99.7945 107.417 102.694 111.167 106.374V52.8327H52.8333V106.374ZM82 86.166C86.0278 86.166 89.4653 84.7424 92.3125 81.8952C95.1597 79.048 96.5833 75.6105 96.5833 71.5827C96.5833 67.5549 95.1597 64.1174 92.3125 61.2702C89.4653 58.423 86.0278 56.9993 82 56.9993C77.9722 56.9993 74.5347 58.423 71.6875 61.2702C68.8403 64.1174 67.4167 67.5549 67.4167 71.5827C67.4167 75.6105 68.8403 79.048 71.6875 81.8952C74.5347 84.7424 77.9722 86.166 82 86.166ZM61.1667 111.166H102.833V110.124C99.9167 107.694 96.6875 105.871 93.1458 104.656C89.6042 103.44 85.8889 102.833 82 102.833C78.1111 102.833 74.3958 103.44 70.8542 104.656C67.3125 105.871 64.0833 107.694 61.1667 110.124V111.166ZM82 77.8327C80.2639 77.8327 78.7882 77.225 77.5729 76.0098C76.3576 74.7945 75.75 73.3188 75.75 71.5827C75.75 69.8466 76.3576 68.3709 77.5729 67.1556C78.7882 65.9403 80.2639 65.3327 82 65.3327C83.7361 65.3327 85.2118 65.9403 86.4271 67.1556C87.6424 68.3709 88.25 69.8466 88.25 71.5827C88.25 73.3188 87.6424 74.7945 86.4271 76.0098C85.2118 77.225 83.7361 77.8327 82 77.8327Z" fill="#8C52FF"/>
</g>
</svg>
