<svg width="164" height="164" viewBox="0 0 164 164" fill="none" xmlns="http://www.w3.org/2000/svg">
<circle cx="82" cy="82" r="82" fill="#D9D9D9"/>
<mask id="mask0_361_254" style="mask-type:alpha" maskUnits="userSpaceOnUse" x="32" y="32" width="100" height="100">
<rect x="32" y="32" width="100" height="100" fill="#8C52FF"/>
</mask>
<g mask="url(#mask0_361_254)">
<path d="M48.6654 123.666C46.3737 123.666 44.4119 122.85 42.7799 121.218C41.148 119.586 40.332 117.625 40.332 115.333V69.4997C40.332 67.208 41.148 65.2462 42.7799 63.6143C44.4119 61.9823 46.3737 61.1663 48.6654 61.1663H69.4987V48.6663C69.4987 46.3747 70.3147 44.4129 71.9466 42.7809C73.5786 41.149 75.5404 40.333 77.832 40.333H86.1654C88.457 40.333 90.4188 41.149 92.0508 42.7809C93.6827 44.4129 94.4987 46.3747 94.4987 48.6663V61.1663H115.332C117.624 61.1663 119.586 61.9823 121.217 63.6143C122.849 65.2462 123.665 67.208 123.665 69.4997V115.333C123.665 117.625 122.849 119.586 121.217 121.218C119.586 122.85 117.624 123.666 115.332 123.666H48.6654ZM48.6654 115.333H115.332V69.4997H94.4987C94.4987 71.7913 93.6827 73.7532 92.0508 75.3851C90.4188 77.017 88.457 77.833 86.1654 77.833H77.832C75.5404 77.833 73.5786 77.017 71.9466 75.3851C70.3147 73.7532 69.4987 71.7913 69.4987 69.4997H48.6654V115.333ZM56.9987 107H81.9987V105.125C81.9987 103.944 81.6688 102.85 81.0091 101.843C80.3494 100.836 79.4293 100.055 78.2487 99.4997C76.8598 98.8747 75.4536 98.4059 74.03 98.0934C72.6063 97.7809 71.0959 97.6247 69.4987 97.6247C67.9015 97.6247 66.3911 97.7809 64.9674 98.0934C63.5438 98.4059 62.1376 98.8747 60.7487 99.4997C59.5681 100.055 58.648 100.836 57.9883 101.843C57.3286 102.85 56.9987 103.944 56.9987 105.125V107ZM90.332 100.75H106.999V94.4997H90.332V100.75ZM69.4987 94.4997C71.2348 94.4997 72.7105 93.892 73.9258 92.6768C75.1411 91.4615 75.7487 89.9858 75.7487 88.2497C75.7487 86.5136 75.1411 85.0379 73.9258 83.8226C72.7105 82.6073 71.2348 81.9997 69.4987 81.9997C67.7626 81.9997 66.2869 82.6073 65.0716 83.8226C63.8563 85.0379 63.2487 86.5136 63.2487 88.2497C63.2487 89.9858 63.8563 91.4615 65.0716 92.6768C66.2869 93.892 67.7626 94.4997 69.4987 94.4997ZM90.332 88.2497H106.999V81.9997H90.332V88.2497ZM77.832 69.4997H86.1654V48.6663H77.832V69.4997Z" fill="#8C52FF"/>
</g>
</svg>
