<svg width="143" height="45" viewBox="0 0 143 45" fill="none" xmlns="http://www.w3.org/2000/svg">
<mask id="mask0_374_185" style="mask-type:alpha" maskUnits="userSpaceOnUse" x="0" y="0" width="44" height="44">
<rect width="44" height="44" fill="#D9D9D9"/>
</mask>
<g mask="url(#mask0_374_185)">
<path d="M8.2474 22.2285C6.96406 22.2285 5.87934 21.7855 4.99323 20.8994C4.10712 20.0132 3.66406 18.9285 3.66406 17.6452C3.66406 16.3618 4.10712 15.2771 4.99323 14.391C5.87934 13.5049 6.96406 13.0618 8.2474 13.0618C9.53073 13.0618 10.6155 13.5049 11.5016 14.391C12.3877 15.2771 12.8307 16.3618 12.8307 17.6452C12.8307 18.9285 12.3877 20.0132 11.5016 20.8994C10.6155 21.7855 9.53073 22.2285 8.2474 22.2285ZM16.4974 14.8952C15.2141 14.8952 14.1293 14.4521 13.2432 13.566C12.3571 12.6799 11.9141 11.5952 11.9141 10.3118C11.9141 9.02852 12.3571 7.94379 13.2432 7.05768C14.1293 6.17157 15.2141 5.72852 16.4974 5.72852C17.7807 5.72852 18.8655 6.17157 19.7516 7.05768C20.6377 7.94379 21.0807 9.02852 21.0807 10.3118C21.0807 11.5952 20.6377 12.6799 19.7516 13.566C18.8655 14.4521 17.7807 14.8952 16.4974 14.8952ZM27.4974 14.8952C26.2141 14.8952 25.1293 14.4521 24.2432 13.566C23.3571 12.6799 22.9141 11.5952 22.9141 10.3118C22.9141 9.02852 23.3571 7.94379 24.2432 7.05768C25.1293 6.17157 26.2141 5.72852 27.4974 5.72852C28.7807 5.72852 29.8655 6.17157 30.7516 7.05768C31.6377 7.94379 32.0807 9.02852 32.0807 10.3118C32.0807 11.5952 31.6377 12.6799 30.7516 13.566C29.8655 14.4521 28.7807 14.8952 27.4974 14.8952ZM35.7474 22.2285C34.4641 22.2285 33.3793 21.7855 32.4932 20.8994C31.6071 20.0132 31.1641 18.9285 31.1641 17.6452C31.1641 16.3618 31.6071 15.2771 32.4932 14.391C33.3793 13.5049 34.4641 13.0618 35.7474 13.0618C37.0307 13.0618 38.1154 13.5049 39.0016 14.391C39.8877 15.2771 40.3307 16.3618 40.3307 17.6452C40.3307 18.9285 39.8877 20.0132 39.0016 20.8994C38.1154 21.7855 37.0307 22.2285 35.7474 22.2285ZM12.1891 40.5619C10.8141 40.5619 9.66059 40.0348 8.72865 38.9806C7.7967 37.9264 7.33073 36.6813 7.33073 35.2452C7.33073 33.6563 7.87309 32.266 8.95781 31.0744C10.0425 29.8827 11.1196 28.7063 12.1891 27.5452C13.0752 26.598 13.8391 25.5667 14.4807 24.4514C15.1224 23.3362 15.8863 22.2896 16.7724 21.3119C17.4446 20.5174 18.2238 19.8605 19.1099 19.341C19.996 18.8216 20.9585 18.5619 21.9974 18.5619C23.0363 18.5619 23.9988 18.8063 24.8849 19.2952C25.771 19.7841 26.5502 20.4257 27.2224 21.2202C28.078 22.198 28.8342 23.2521 29.4911 24.3827C30.1481 25.5132 30.9196 26.5674 31.8057 27.5452C32.8752 28.7063 33.9523 29.8827 35.037 31.0744C36.1217 32.266 36.6641 33.6563 36.6641 35.2452C36.6641 36.6813 36.1981 37.9264 35.2661 38.9806C34.3342 40.0348 33.1807 40.5619 31.8057 40.5619C30.1557 40.5619 28.521 40.4244 26.9016 40.1494C25.2821 39.8744 23.6474 39.7369 21.9974 39.7369C20.3474 39.7369 18.7127 39.8744 17.0932 40.1494C15.4738 40.4244 13.8391 40.5619 12.1891 40.5619Z" fill="white"/>
</g>
<mask id="mask1_374_185" style="mask-type:alpha" maskUnits="userSpaceOnUse" x="0" y="1" width="44" height="44">
<rect y="1" width="44" height="44" fill="#D9D9D9"/>
</mask>
<g mask="url(#mask1_374_185)">
<path d="M8.2474 23.2285C6.96406 23.2285 5.87934 22.7855 4.99323 21.8994C4.10712 21.0132 3.66406 19.9285 3.66406 18.6452C3.66406 17.3618 4.10712 16.2771 4.99323 15.391C5.87934 14.5049 6.96406 14.0618 8.2474 14.0618C9.53073 14.0618 10.6155 14.5049 11.5016 15.391C12.3877 16.2771 12.8307 17.3618 12.8307 18.6452C12.8307 19.9285 12.3877 21.0132 11.5016 21.8994C10.6155 22.7855 9.53073 23.2285 8.2474 23.2285ZM16.4974 15.8952C15.2141 15.8952 14.1293 15.4521 13.2432 14.566C12.3571 13.6799 11.9141 12.5952 11.9141 11.3118C11.9141 10.0285 12.3571 8.94379 13.2432 8.05768C14.1293 7.17157 15.2141 6.72852 16.4974 6.72852C17.7807 6.72852 18.8655 7.17157 19.7516 8.05768C20.6377 8.94379 21.0807 10.0285 21.0807 11.3118C21.0807 12.5952 20.6377 13.6799 19.7516 14.566C18.8655 15.4521 17.7807 15.8952 16.4974 15.8952ZM27.4974 15.8952C26.2141 15.8952 25.1293 15.4521 24.2432 14.566C23.3571 13.6799 22.9141 12.5952 22.9141 11.3118C22.9141 10.0285 23.3571 8.94379 24.2432 8.05768C25.1293 7.17157 26.2141 6.72852 27.4974 6.72852C28.7807 6.72852 29.8655 7.17157 30.7516 8.05768C31.6377 8.94379 32.0807 10.0285 32.0807 11.3118C32.0807 12.5952 31.6377 13.6799 30.7516 14.566C29.8655 15.4521 28.7807 15.8952 27.4974 15.8952ZM35.7474 23.2285C34.4641 23.2285 33.3793 22.7855 32.4932 21.8994C31.6071 21.0132 31.1641 19.9285 31.1641 18.6452C31.1641 17.3618 31.6071 16.2771 32.4932 15.391C33.3793 14.5049 34.4641 14.0618 35.7474 14.0618C37.0307 14.0618 38.1154 14.5049 39.0016 15.391C39.8877 16.2771 40.3307 17.3618 40.3307 18.6452C40.3307 19.9285 39.8877 21.0132 39.0016 21.8994C38.1154 22.7855 37.0307 23.2285 35.7474 23.2285ZM12.1891 41.5619C10.8141 41.5619 9.66059 41.0348 8.72865 39.9806C7.7967 38.9264 7.33073 37.6813 7.33073 36.2452C7.33073 34.6563 7.87309 33.266 8.95781 32.0744C10.0425 30.8827 11.1196 29.7063 12.1891 28.5452C13.0752 27.598 13.8391 26.5667 14.4807 25.4514C15.1224 24.3362 15.8863 23.2896 16.7724 22.3119C17.4446 21.5174 18.2238 20.8605 19.1099 20.341C19.996 19.8216 20.9585 19.5619 21.9974 19.5619C23.0363 19.5619 23.9988 19.8063 24.8849 20.2952C25.771 20.7841 26.5502 21.4257 27.2224 22.2202C28.078 23.198 28.8342 24.2521 29.4911 25.3827C30.1481 26.5132 30.9196 27.5674 31.8057 28.5452C32.8752 29.7063 33.9523 30.8827 35.037 32.0744C36.1217 33.266 36.6641 34.6563 36.6641 36.2452C36.6641 37.6813 36.1981 38.9264 35.2661 39.9806C34.3342 41.0348 33.1807 41.5619 31.8057 41.5619C30.1557 41.5619 28.521 41.4244 26.9016 41.1494C25.2821 40.8744 23.6474 40.7369 21.9974 40.7369C20.3474 40.7369 18.7127 40.8744 17.0932 41.1494C15.4738 41.4244 13.8391 41.5619 12.1891 41.5619Z" fill="#D683FD"/>
</g>
<path d="M56.08 7.88V19H54.256V14.136H49.024V19H47.2V7.88H49.024V12.648H54.256V7.88H56.08ZM57.8733 14.552C57.8733 13.6667 58.0546 12.8827 58.4173 12.2C58.7906 11.5173 59.2919 10.9893 59.9213 10.616C60.5613 10.232 61.2653 10.04 62.0333 10.04C62.7266 10.04 63.3293 10.1787 63.8413 10.456C64.3639 10.7227 64.7799 11.0587 65.0893 11.464V10.184H66.9293V19H65.0893V17.688C64.7799 18.104 64.3586 18.4507 63.8253 18.728C63.2919 19.0053 62.6839 19.144 62.0013 19.144C61.2439 19.144 60.5506 18.952 59.9213 18.568C59.2919 18.1733 58.7906 17.6293 58.4173 16.936C58.0546 16.232 57.8733 15.4373 57.8733 14.552ZM65.0893 14.584C65.0893 13.976 64.9613 13.448 64.7053 13C64.4599 12.552 64.1346 12.2107 63.7293 11.976C63.3239 11.7413 62.8866 11.624 62.4173 11.624C61.9479 11.624 61.5106 11.7413 61.1053 11.976C60.6999 12.2 60.3693 12.536 60.1133 12.984C59.8679 13.4213 59.7453 13.944 59.7453 14.552C59.7453 15.16 59.8679 15.6933 60.1133 16.152C60.3693 16.6107 60.6999 16.9627 61.1053 17.208C61.5213 17.4427 61.9586 17.56 62.4173 17.56C62.8866 17.56 63.3239 17.4427 63.7293 17.208C64.1346 16.9733 64.4599 16.632 64.7053 16.184C64.9613 15.7253 65.0893 15.192 65.0893 14.584ZM79.997 10.04C80.6903 10.04 81.309 10.184 81.853 10.472C82.4077 10.76 82.8397 11.1867 83.149 11.752C83.469 12.3173 83.629 13 83.629 13.8V19H81.821V14.072C81.821 13.2827 81.6237 12.68 81.229 12.264C80.8343 11.8373 80.2957 11.624 79.613 11.624C78.9303 11.624 78.3863 11.8373 77.981 12.264C77.5863 12.68 77.389 13.2827 77.389 14.072V19H75.581V14.072C75.581 13.2827 75.3837 12.68 74.989 12.264C74.5943 11.8373 74.0557 11.624 73.373 11.624C72.6903 11.624 72.1463 11.8373 71.741 12.264C71.3463 12.68 71.149 13.2827 71.149 14.072V19H69.325V10.184H71.149V11.192C71.4477 10.8293 71.8263 10.5467 72.285 10.344C72.7437 10.1413 73.2343 10.04 73.757 10.04C74.461 10.04 75.0903 10.1893 75.645 10.488C76.1997 10.7867 76.6263 11.2187 76.925 11.784C77.1917 11.2507 77.6077 10.8293 78.173 10.52C78.7383 10.2 79.3463 10.04 79.997 10.04ZM88.078 11.672V16.552C88.078 16.8827 88.1527 17.1227 88.302 17.272C88.462 17.4107 88.7287 17.48 89.102 17.48H90.222V19H88.782C87.9607 19 87.3313 18.808 86.894 18.424C86.4567 18.04 86.238 17.416 86.238 16.552V11.672H85.198V10.184H86.238V7.992H88.078V10.184H90.222V11.672H88.078ZM91.2951 14.552C91.2951 13.6667 91.4765 12.8827 91.8391 12.2C92.2125 11.5173 92.7138 10.9893 93.3431 10.616C93.9831 10.232 94.6871 10.04 95.4551 10.04C96.1485 10.04 96.7511 10.1787 97.2631 10.456C97.7858 10.7227 98.2018 11.0587 98.5111 11.464V10.184H100.351V19H98.5111V17.688C98.2018 18.104 97.7805 18.4507 97.2471 18.728C96.7138 19.0053 96.1058 19.144 95.4231 19.144C94.6658 19.144 93.9725 18.952 93.3431 18.568C92.7138 18.1733 92.2125 17.6293 91.8391 16.936C91.4765 16.232 91.2951 15.4373 91.2951 14.552ZM98.5111 14.584C98.5111 13.976 98.3831 13.448 98.1271 13C97.8818 12.552 97.5565 12.2107 97.1511 11.976C96.7458 11.7413 96.3085 11.624 95.8391 11.624C95.3698 11.624 94.9325 11.7413 94.5271 11.976C94.1218 12.2 93.7911 12.536 93.5351 12.984C93.2898 13.4213 93.1671 13.944 93.1671 14.552C93.1671 15.16 93.2898 15.6933 93.5351 16.152C93.7911 16.6107 94.1218 16.9627 94.5271 17.208C94.9431 17.4427 95.3805 17.56 95.8391 17.56C96.3085 17.56 96.7458 17.4427 97.1511 17.208C97.5565 16.9733 97.8818 16.632 98.1271 16.184C98.3831 15.7253 98.5111 15.192 98.5111 14.584ZM104.571 11.464C104.838 11.016 105.19 10.6693 105.627 10.424C106.075 10.168 106.603 10.04 107.211 10.04V11.928H106.747C106.032 11.928 105.488 12.1093 105.115 12.472C104.752 12.8347 104.571 13.464 104.571 14.36V19H102.747V10.184H104.571V11.464ZM112.712 19.144C111.88 19.144 111.128 18.9573 110.456 18.584C109.784 18.2 109.256 17.6667 108.872 16.984C108.488 16.2907 108.296 15.4907 108.296 14.584C108.296 13.688 108.493 12.8933 108.888 12.2C109.282 11.5067 109.821 10.9733 110.504 10.6C111.186 10.2267 111.949 10.04 112.792 10.04C113.634 10.04 114.397 10.2267 115.08 10.6C115.762 10.9733 116.301 11.5067 116.696 12.2C117.09 12.8933 117.288 13.688 117.288 14.584C117.288 15.48 117.085 16.2747 116.68 16.968C116.274 17.6613 115.72 18.2 115.016 18.584C114.322 18.9573 113.554 19.144 112.712 19.144ZM112.712 17.56C113.181 17.56 113.618 17.448 114.024 17.224C114.44 17 114.776 16.664 115.032 16.216C115.288 15.768 115.416 15.224 115.416 14.584C115.416 13.944 115.293 13.4053 115.048 12.968C114.802 12.52 114.477 12.184 114.072 11.96C113.666 11.736 113.229 11.624 112.76 11.624C112.29 11.624 111.853 11.736 111.448 11.96C111.053 12.184 110.738 12.52 110.504 12.968C110.269 13.4053 110.152 13.944 110.152 14.584C110.152 15.5333 110.392 16.2693 110.872 16.792C111.362 17.304 111.976 17.56 112.712 17.56Z" fill="white"/>
<path d="M46.592 32.416C46.592 31.328 46.8427 30.352 47.344 29.488C47.856 28.624 48.544 27.952 49.408 27.472C50.2827 26.9813 51.2373 26.736 52.272 26.736C53.456 26.736 54.5067 27.0293 55.424 27.616C56.352 28.192 57.024 29.0133 57.44 30.08H55.248C54.96 29.4933 54.56 29.056 54.048 28.768C53.536 28.48 52.944 28.336 52.272 28.336C51.536 28.336 50.88 28.5013 50.304 28.832C49.728 29.1627 49.2747 29.6373 48.944 30.256C48.624 30.8747 48.464 31.5947 48.464 32.416C48.464 33.2373 48.624 33.9573 48.944 34.576C49.2747 35.1947 49.728 35.6747 50.304 36.016C50.88 36.3467 51.536 36.512 52.272 36.512C52.944 36.512 53.536 36.368 54.048 36.08C54.56 35.792 54.96 35.3547 55.248 34.768H57.44C57.024 35.8347 56.352 36.656 55.424 37.232C54.5067 37.808 53.456 38.096 52.272 38.096C51.2267 38.096 50.272 37.856 49.408 37.376C48.544 36.8853 47.856 36.208 47.344 35.344C46.8427 34.48 46.592 33.504 46.592 32.416ZM63.399 38.144C62.567 38.144 61.815 37.9573 61.143 37.584C60.471 37.2 59.943 36.6667 59.559 35.984C59.175 35.2907 58.983 34.4907 58.983 33.584C58.983 32.688 59.1803 31.8933 59.575 31.2C59.9697 30.5067 60.5083 29.9733 61.191 29.6C61.8737 29.2267 62.6363 29.04 63.479 29.04C64.3217 29.04 65.0843 29.2267 65.767 29.6C66.4497 29.9733 66.9883 30.5067 67.383 31.2C67.7777 31.8933 67.975 32.688 67.975 33.584C67.975 34.48 67.7723 35.2747 67.367 35.968C66.9617 36.6613 66.407 37.2 65.703 37.584C65.0097 37.9573 64.2417 38.144 63.399 38.144ZM63.399 36.56C63.8683 36.56 64.3057 36.448 64.711 36.224C65.127 36 65.463 35.664 65.719 35.216C65.975 34.768 66.103 34.224 66.103 33.584C66.103 32.944 65.9803 32.4053 65.735 31.968C65.4897 31.52 65.1643 31.184 64.759 30.96C64.3537 30.736 63.9163 30.624 63.447 30.624C62.9777 30.624 62.5403 30.736 62.135 30.96C61.7403 31.184 61.4257 31.52 61.191 31.968C60.9563 32.4053 60.839 32.944 60.839 33.584C60.839 34.5333 61.079 35.2693 61.559 35.792C62.0497 36.304 62.663 36.56 63.399 36.56ZM71.6021 30.464C71.8688 30.016 72.2208 29.6693 72.6581 29.424C73.1061 29.168 73.6341 29.04 74.2421 29.04V30.928H73.7781C73.0635 30.928 72.5195 31.1093 72.1461 31.472C71.7835 31.8347 71.6021 32.464 71.6021 33.36V38H69.7781V29.184H71.6021V30.464ZM77.7428 30.48C78.0521 30.0747 78.4734 29.7333 79.0068 29.456C79.5401 29.1787 80.1428 29.04 80.8148 29.04C81.5828 29.04 82.2814 29.232 82.9108 29.616C83.5508 29.9893 84.0521 30.5173 84.4148 31.2C84.7774 31.8827 84.9588 32.6667 84.9588 33.552C84.9588 34.4373 84.7774 35.232 84.4148 35.936C84.0521 36.6293 83.5508 37.1733 82.9108 37.568C82.2814 37.952 81.5828 38.144 80.8148 38.144C80.1428 38.144 79.5454 38.0107 79.0228 37.744C78.5001 37.4667 78.0734 37.1253 77.7428 36.72V42.192H75.9188V29.184H77.7428V30.48ZM83.1028 33.552C83.1028 32.944 82.9748 32.4213 82.7188 31.984C82.4734 31.536 82.1428 31.2 81.7268 30.976C81.3214 30.7413 80.8841 30.624 80.4148 30.624C79.9561 30.624 79.5188 30.7413 79.1028 30.976C78.6974 31.2107 78.3668 31.552 78.1108 32C77.8654 32.448 77.7428 32.976 77.7428 33.584C77.7428 34.192 77.8654 34.7253 78.1108 35.184C78.3668 35.632 78.6974 35.9733 79.1028 36.208C79.5188 36.4427 79.9561 36.56 80.4148 36.56C80.8841 36.56 81.3214 36.4427 81.7268 36.208C82.1428 35.9627 82.4734 35.6107 82.7188 35.152C82.9748 34.6933 83.1028 34.16 83.1028 33.552ZM90.5865 38.144C89.7545 38.144 89.0025 37.9573 88.3305 37.584C87.6585 37.2 87.1305 36.6667 86.7465 35.984C86.3625 35.2907 86.1705 34.4907 86.1705 33.584C86.1705 32.688 86.3678 31.8933 86.7625 31.2C87.1572 30.5067 87.6958 29.9733 88.3785 29.6C89.0612 29.2267 89.8238 29.04 90.6665 29.04C91.5092 29.04 92.2718 29.2267 92.9545 29.6C93.6372 29.9733 94.1758 30.5067 94.5705 31.2C94.9652 31.8933 95.1625 32.688 95.1625 33.584C95.1625 34.48 94.9598 35.2747 94.5545 35.968C94.1492 36.6613 93.5945 37.2 92.8905 37.584C92.1972 37.9573 91.4292 38.144 90.5865 38.144ZM90.5865 36.56C91.0558 36.56 91.4932 36.448 91.8985 36.224C92.3145 36 92.6505 35.664 92.9065 35.216C93.1625 34.768 93.2905 34.224 93.2905 33.584C93.2905 32.944 93.1678 32.4053 92.9225 31.968C92.6772 31.52 92.3518 31.184 91.9465 30.96C91.5412 30.736 91.1038 30.624 90.6345 30.624C90.1652 30.624 89.7278 30.736 89.3225 30.96C88.9278 31.184 88.6132 31.52 88.3785 31.968C88.1438 32.4053 88.0265 32.944 88.0265 33.584C88.0265 34.5333 88.2665 35.2693 88.7465 35.792C89.2372 36.304 89.8505 36.56 90.5865 36.56ZM98.7896 30.464C99.0563 30.016 99.4083 29.6693 99.8456 29.424C100.294 29.168 100.822 29.04 101.43 29.04V30.928H100.966C100.251 30.928 99.707 31.1093 99.3336 31.472C98.971 31.8347 98.7896 32.464 98.7896 33.36V38H96.9656V29.184H98.7896V30.464ZM102.498 33.552C102.498 32.6667 102.68 31.8827 103.042 31.2C103.416 30.5173 103.917 29.9893 104.546 29.616C105.186 29.232 105.89 29.04 106.658 29.04C107.352 29.04 107.954 29.1787 108.466 29.456C108.989 29.7227 109.405 30.0587 109.714 30.464V29.184H111.554V38H109.714V36.688C109.405 37.104 108.984 37.4507 108.45 37.728C107.917 38.0053 107.309 38.144 106.626 38.144C105.869 38.144 105.176 37.952 104.546 37.568C103.917 37.1733 103.416 36.6293 103.042 35.936C102.68 35.232 102.498 34.4373 102.498 33.552ZM109.714 33.584C109.714 32.976 109.586 32.448 109.33 32C109.085 31.552 108.76 31.2107 108.354 30.976C107.949 30.7413 107.512 30.624 107.042 30.624C106.573 30.624 106.136 30.7413 105.73 30.976C105.325 31.2 104.994 31.536 104.738 31.984C104.493 32.4213 104.37 32.944 104.37 33.552C104.37 34.16 104.493 34.6933 104.738 35.152C104.994 35.6107 105.325 35.9627 105.73 36.208C106.146 36.4427 106.584 36.56 107.042 36.56C107.512 36.56 107.949 36.4427 108.354 36.208C108.76 35.9733 109.085 35.632 109.33 35.184C109.586 34.7253 109.714 34.192 109.714 33.584ZM116.078 30.672V35.552C116.078 35.8827 116.153 36.1227 116.302 36.272C116.462 36.4107 116.729 36.48 117.102 36.48H118.222V38H116.782C115.961 38 115.331 37.808 114.894 37.424C114.457 37.04 114.238 36.416 114.238 35.552V30.672H113.198V29.184H114.238V26.992H116.078V29.184H118.222V30.672H116.078ZM120.831 28.016C120.5 28.016 120.223 27.904 119.999 27.68C119.775 27.456 119.663 27.1787 119.663 26.848C119.663 26.5173 119.775 26.24 119.999 26.016C120.223 25.792 120.5 25.68 120.831 25.68C121.151 25.68 121.423 25.792 121.647 26.016C121.871 26.24 121.983 26.5173 121.983 26.848C121.983 27.1787 121.871 27.456 121.647 27.68C121.423 27.904 121.151 28.016 120.831 28.016ZM121.727 29.184V38H119.903V29.184H121.727ZM127.53 36.368L130.026 29.184H131.962L128.602 38H126.426L123.082 29.184H125.034L127.53 36.368ZM137.165 38.144C136.333 38.144 135.581 37.9573 134.909 37.584C134.237 37.2 133.709 36.6667 133.325 35.984C132.941 35.2907 132.749 34.4907 132.749 33.584C132.749 32.688 132.946 31.8933 133.341 31.2C133.735 30.5067 134.274 29.9733 134.957 29.6C135.639 29.2267 136.402 29.04 137.245 29.04C138.087 29.04 138.85 29.2267 139.533 29.6C140.215 29.9733 140.754 30.5067 141.149 31.2C141.543 31.8933 141.741 32.688 141.741 33.584C141.741 34.48 141.538 35.2747 141.133 35.968C140.727 36.6613 140.173 37.2 139.469 37.584C138.775 37.9573 138.007 38.144 137.165 38.144ZM137.165 36.56C137.634 36.56 138.071 36.448 138.477 36.224C138.893 36 139.229 35.664 139.485 35.216C139.741 34.768 139.869 34.224 139.869 33.584C139.869 32.944 139.746 32.4053 139.501 31.968C139.255 31.52 138.93 31.184 138.525 30.96C138.119 30.736 137.682 30.624 137.213 30.624C136.743 30.624 136.306 30.736 135.901 30.96C135.506 31.184 135.191 31.52 134.957 31.968C134.722 32.4053 134.605 32.944 134.605 33.584C134.605 34.5333 134.845 35.2693 135.325 35.792C135.815 36.304 136.429 36.56 137.165 36.56Z" fill="#D683FD"/>
</svg>
