<svg width="25" height="25" viewBox="0 0 25 25" fill="none" xmlns="http://www.w3.org/2000/svg">
<mask id="mask0_372_251" style="mask-type:alpha" maskUnits="userSpaceOnUse" x="0" y="0" width="25" height="25">
<rect x="0.832031" y="0.5" width="24" height="24" fill="#D9D9D9"/>
</mask>
<g mask="url(#mask0_372_251)">
<path d="M5.83203 18.35C6.73203 17.4667 7.77786 16.7708 8.96953 16.2625C10.1612 15.7542 11.4487 15.5 12.832 15.5C14.2154 15.5 15.5029 15.7542 16.6945 16.2625C17.8862 16.7708 18.932 17.4667 19.832 18.35V5.5H5.83203V18.35ZM12.832 13.5C13.7987 13.5 14.6237 13.1583 15.307 12.475C15.9904 11.7917 16.332 10.9667 16.332 10C16.332 9.03333 15.9904 8.20833 15.307 7.525C14.6237 6.84167 13.7987 6.5 12.832 6.5C11.8654 6.5 11.0404 6.84167 10.357 7.525C9.6737 8.20833 9.33203 9.03333 9.33203 10C9.33203 10.9667 9.6737 11.7917 10.357 12.475C11.0404 13.1583 11.8654 13.5 12.832 13.5ZM5.83203 21.5C5.28203 21.5 4.8112 21.3042 4.41953 20.9125C4.02786 20.5208 3.83203 20.05 3.83203 19.5V5.5C3.83203 4.95 4.02786 4.47917 4.41953 4.0875C4.8112 3.69583 5.28203 3.5 5.83203 3.5H19.832C20.382 3.5 20.8529 3.69583 21.2445 4.0875C21.6362 4.47917 21.832 4.95 21.832 5.5V19.5C21.832 20.05 21.6362 20.5208 21.2445 20.9125C20.8529 21.3042 20.382 21.5 19.832 21.5H5.83203ZM7.83203 19.5H17.832V19.25C17.132 18.6667 16.357 18.2292 15.507 17.9375C14.657 17.6458 13.7654 17.5 12.832 17.5C11.8987 17.5 11.007 17.6458 10.157 17.9375C9.30703 18.2292 8.53203 18.6667 7.83203 19.25V19.5ZM12.832 11.5C12.4154 11.5 12.0612 11.3542 11.7695 11.0625C11.4779 10.7708 11.332 10.4167 11.332 10C11.332 9.58333 11.4779 9.22917 11.7695 8.9375C12.0612 8.64583 12.4154 8.5 12.832 8.5C13.2487 8.5 13.6029 8.64583 13.8945 8.9375C14.1862 9.22917 14.332 9.58333 14.332 10C14.332 10.4167 14.1862 10.7708 13.8945 11.0625C13.6029 11.3542 13.2487 11.5 12.832 11.5Z" fill="white"/>
</g>
</svg>
